%TF.GenerationSoftware,KiCad,Pcbnew,(6.0.0)*%
%TF.CreationDate,2022-01-12T17:49:16+01:00*%
%TF.ProjectId,v0_miniAB_pancake_board,76305f6d-696e-4694-9142-5f70616e6361,rev?*%
%TF.SameCoordinates,Original*%
%TF.FileFunction,Copper,L2,Bot*%
%TF.FilePolarity,Positive*%
%FSLAX46Y46*%
G04 Gerber Fmt 4.6, Leading zero omitted, Abs format (unit mm)*
G04 Created by KiCad (PCBNEW (6.0.0)) date 2022-01-12 17:49:16*
%MOMM*%
%LPD*%
G01*
G04 APERTURE LIST*
G04 Aperture macros list*
%AMRoundRect*
0 Rectangle with rounded corners*
0 $1 Rounding radius*
0 $2 $3 $4 $5 $6 $7 $8 $9 X,Y pos of 4 corners*
0 Add a 4 corners polygon primitive as box body*
4,1,4,$2,$3,$4,$5,$6,$7,$8,$9,$2,$3,0*
0 Add four circle primitives for the rounded corners*
1,1,$1+$1,$2,$3*
1,1,$1+$1,$4,$5*
1,1,$1+$1,$6,$7*
1,1,$1+$1,$8,$9*
0 Add four rect primitives between the rounded corners*
20,1,$1+$1,$2,$3,$4,$5,0*
20,1,$1+$1,$4,$5,$6,$7,0*
20,1,$1+$1,$6,$7,$8,$9,0*
20,1,$1+$1,$8,$9,$2,$3,0*%
%AMHorizOval*
0 Thick line with rounded ends*
0 $1 width*
0 $2 $3 position (X,Y) of the first rounded end (center of the circle)*
0 $4 $5 position (X,Y) of the second rounded end (center of the circle)*
0 Add line between two ends*
20,1,$1,$2,$3,$4,$5,0*
0 Add two circle primitives to create the rounded ends*
1,1,$1,$2,$3*
1,1,$1,$4,$5*%
G04 Aperture macros list end*
%TA.AperFunction,ComponentPad*%
%ADD10RoundRect,0.250000X0.395409X-0.586218X0.586218X0.395409X-0.395409X0.586218X-0.586218X-0.395409X0*%
%TD*%
%TA.AperFunction,ComponentPad*%
%ADD11C,1.500000*%
%TD*%
%TA.AperFunction,ComponentPad*%
%ADD12RoundRect,0.249999X0.625001X-0.350001X0.625001X0.350001X-0.625001X0.350001X-0.625001X-0.350001X0*%
%TD*%
%TA.AperFunction,ComponentPad*%
%ADD13O,1.750000X1.200000*%
%TD*%
%TA.AperFunction,ComponentPad*%
%ADD14RoundRect,0.249999X0.350001X0.625001X-0.350001X0.625001X-0.350001X-0.625001X0.350001X-0.625001X0*%
%TD*%
%TA.AperFunction,ComponentPad*%
%ADD15O,1.200000X1.750000*%
%TD*%
%TA.AperFunction,ComponentPad*%
%ADD16RoundRect,0.250000X-0.500000X-0.500000X0.500000X-0.500000X0.500000X0.500000X-0.500000X0.500000X0*%
%TD*%
%TA.AperFunction,ComponentPad*%
%ADD17RoundRect,0.250000X-0.625000X0.350000X-0.625000X-0.350000X0.625000X-0.350000X0.625000X0.350000X0*%
%TD*%
%TA.AperFunction,ComponentPad*%
%ADD18RoundRect,0.249999X-0.194454X0.689431X-0.689431X0.194454X0.194454X-0.689431X0.689431X-0.194454X0*%
%TD*%
%TA.AperFunction,ComponentPad*%
%ADD19HorizOval,1.200000X-0.194454X0.194454X0.194454X-0.194454X0*%
%TD*%
%TA.AperFunction,ComponentPad*%
%ADD20RoundRect,0.249999X-0.676283X0.236153X-0.554729X-0.453214X0.676283X-0.236153X0.554729X0.453214X0*%
%TD*%
%TA.AperFunction,ComponentPad*%
%ADD21HorizOval,1.200000X-0.270822X-0.047753X0.270822X0.047753X0*%
%TD*%
%TA.AperFunction,ComponentPad*%
%ADD22RoundRect,0.249999X0.554729X-0.453214X0.676283X0.236153X-0.554729X0.453214X-0.676283X-0.236153X0*%
%TD*%
%TA.AperFunction,ComponentPad*%
%ADD23HorizOval,1.200000X-0.270822X0.047753X0.270822X-0.047753X0*%
%TD*%
%TA.AperFunction,Conductor*%
%ADD24C,0.750000*%
%TD*%
G04 APERTURE END LIST*
D10*
%TO.P,J2,1,Pin_1*%
%TO.N,/heat_high*%
X96260000Y-110730000D03*
D11*
%TO.P,J2,2,Pin_2*%
%TO.N,/heat_gnd*%
X99204882Y-111302427D03*
%TD*%
D12*
%TO.P,J3,1,Pin_1*%
%TO.N,/therm0*%
X103420000Y-113400000D03*
D13*
%TO.P,J3,2,Pin_2*%
%TO.N,/therm1*%
X103420000Y-111400000D03*
%TD*%
D14*
%TO.P,J6,1,Pin_1*%
%TO.N,Net-(J6-Pad1)*%
X111710000Y-108680000D03*
D15*
%TO.P,J6,2,Pin_2*%
%TO.N,/fan1*%
X109710000Y-108680000D03*
%TD*%
D16*
%TO.P,J9,1,Pin_1*%
%TO.N,/A+*%
X90880000Y-100990000D03*
D11*
%TO.P,J9,2,Pin_2*%
%TO.N,/A-*%
X93880000Y-100990000D03*
%TO.P,J9,3,Pin_3*%
%TO.N,/B+*%
X96880000Y-100990000D03*
%TO.P,J9,4,Pin_4*%
%TO.N,/B-*%
X99880000Y-100990000D03*
%TO.P,J9,5,Pin_5*%
%TO.N,/sw1*%
X102880000Y-100990000D03*
%TO.P,J9,6,Pin_6*%
%TO.N,/fan0*%
X105880000Y-100990000D03*
%TO.P,J9,7,Pin_7*%
%TO.N,Net-(J4-Pad1)*%
X108880000Y-100990000D03*
%TO.P,J9,8,Pin_8*%
%TO.N,/heat_high*%
X90880000Y-103990000D03*
%TO.P,J9,9,Pin_9*%
%TO.N,/heat_gnd*%
X93880000Y-103990000D03*
%TO.P,J9,10,Pin_10*%
%TO.N,/therm0*%
X96880000Y-103990000D03*
%TO.P,J9,11,Pin_11*%
%TO.N,/therm1*%
X99880000Y-103990000D03*
%TO.P,J9,12,Pin_12*%
%TO.N,/sw0*%
X102880000Y-103990000D03*
%TO.P,J9,13,Pin_13*%
%TO.N,/fan1*%
X105880000Y-103990000D03*
%TO.P,J9,14,Pin_14*%
%TO.N,Net-(J6-Pad1)*%
X108880000Y-103990000D03*
%TD*%
D17*
%TO.P,J7,1,Pin_1*%
%TO.N,/sw1*%
X83862000Y-97552000D03*
D13*
%TO.P,J7,2,Pin_2*%
%TO.N,/sw0*%
X83862000Y-99552000D03*
%TD*%
D18*
%TO.P,J1,1,Pin_1*%
%TO.N,/B-*%
X87130000Y-82930000D03*
D19*
%TO.P,J1,2,Pin_2*%
%TO.N,/B+*%
X85715786Y-84344214D03*
%TO.P,J1,3,Pin_3*%
%TO.N,/A-*%
X84301573Y-85758427D03*
%TO.P,J1,4,Pin_4*%
%TO.N,/A+*%
X82887359Y-87172641D03*
%TD*%
D20*
%TO.P,J4,1,Pin_1*%
%TO.N,Net-(J4-Pad1)*%
X77190000Y-106030000D03*
D21*
%TO.P,J4,2,Pin_2*%
%TO.N,/fan0*%
X77537296Y-107999616D03*
%TD*%
D22*
%TO.P,J5,1,Pin_1*%
%TO.N,Net-(J4-Pad1)*%
X122450000Y-108000000D03*
D23*
%TO.P,J5,2,Pin_2*%
%TO.N,/fan0*%
X122797296Y-106030384D03*
%TD*%
D24*
%TO.N,/fan0*%
X120791616Y-106030384D02*
X122797296Y-106030384D01*
X79198384Y-107999616D02*
X80264000Y-106934000D01*
X80264000Y-106934000D02*
X119888000Y-106934000D01*
X77537296Y-107999616D02*
X79198384Y-107999616D01*
X119888000Y-106934000D02*
X120791616Y-106030384D01*
%TO.N,/sw0*%
X100952000Y-105918000D02*
X102880000Y-103990000D01*
X87630000Y-105918000D02*
X100952000Y-105918000D01*
X83862000Y-99552000D02*
X83862000Y-102150000D01*
X83862000Y-102150000D02*
X87630000Y-105918000D01*
%TO.N,/sw1*%
X100684521Y-98794521D02*
X102880000Y-100990000D01*
X90920521Y-98794521D02*
X100684521Y-98794521D01*
X89662000Y-97536000D02*
X83878000Y-97536000D01*
X90920521Y-98794521D02*
X89662000Y-97536000D01*
X83878000Y-97536000D02*
X83862000Y-97552000D01*
%TD*%
%TA.AperFunction,NonConductor*%
G36*
X85737314Y-82405624D02*
G01*
X85794150Y-82448171D01*
X85818961Y-82514691D01*
X85815323Y-82555015D01*
X85792043Y-82645684D01*
X85792042Y-82645693D01*
X85790071Y-82653369D01*
X85790071Y-82817723D01*
X85830944Y-82976913D01*
X85834763Y-82983861D01*
X85837175Y-82989952D01*
X85843653Y-83060652D01*
X85810879Y-83123631D01*
X85749259Y-83158894D01*
X85700369Y-83160266D01*
X85699419Y-83159994D01*
X85589467Y-83151533D01*
X85503121Y-83144889D01*
X85503117Y-83144889D01*
X85496761Y-83144400D01*
X85459834Y-83149065D01*
X85301438Y-83169075D01*
X85301435Y-83169076D01*
X85295108Y-83169875D01*
X85164585Y-83214309D01*
X85161480Y-83215366D01*
X85090547Y-83218384D01*
X85029243Y-83182574D01*
X84997032Y-83119305D01*
X85004139Y-83048665D01*
X85031779Y-83006993D01*
X85604187Y-82434585D01*
X85666499Y-82400559D01*
X85737314Y-82405624D01*
G37*
%TD.AperFunction*%
%TA.AperFunction,NonConductor*%
G36*
X84507517Y-83635421D02*
G01*
X84564353Y-83677968D01*
X84589164Y-83744488D01*
X84577864Y-83806329D01*
X84573138Y-83816556D01*
X84573136Y-83816562D01*
X84570462Y-83822349D01*
X84569006Y-83828558D01*
X84529270Y-83997973D01*
X84524048Y-84020236D01*
X84523870Y-84026610D01*
X84518981Y-84201622D01*
X84518372Y-84223413D01*
X84519481Y-84229700D01*
X84542253Y-84358843D01*
X84553668Y-84423581D01*
X84559927Y-84439390D01*
X84561061Y-84442254D01*
X84567539Y-84512955D01*
X84534765Y-84575934D01*
X84473145Y-84611197D01*
X84409179Y-84609755D01*
X84285206Y-84574207D01*
X84194413Y-84567221D01*
X84088908Y-84559102D01*
X84088904Y-84559102D01*
X84082548Y-84558613D01*
X84041640Y-84563781D01*
X83887225Y-84583288D01*
X83887222Y-84583289D01*
X83880895Y-84584088D01*
X83797245Y-84612565D01*
X83747267Y-84629579D01*
X83676334Y-84632597D01*
X83615030Y-84596787D01*
X83582819Y-84533518D01*
X83589926Y-84462878D01*
X83617566Y-84421206D01*
X84374390Y-83664382D01*
X84436702Y-83630356D01*
X84507517Y-83635421D01*
G37*
%TD.AperFunction*%
%TA.AperFunction,NonConductor*%
G36*
X83093304Y-85049634D02*
G01*
X83150140Y-85092181D01*
X83174951Y-85158701D01*
X83163651Y-85220542D01*
X83158925Y-85230769D01*
X83158923Y-85230775D01*
X83156249Y-85236562D01*
X83109835Y-85434449D01*
X83109657Y-85440823D01*
X83107259Y-85526675D01*
X83104159Y-85637626D01*
X83110420Y-85673131D01*
X83134385Y-85809039D01*
X83139455Y-85837794D01*
X83141802Y-85843722D01*
X83141804Y-85843729D01*
X83146847Y-85856465D01*
X83153328Y-85927165D01*
X83120556Y-85990146D01*
X83058936Y-86025410D01*
X82994967Y-86023969D01*
X82877128Y-85990180D01*
X82877124Y-85990179D01*
X82870992Y-85988421D01*
X82780199Y-85981435D01*
X82674694Y-85973316D01*
X82674690Y-85973316D01*
X82668334Y-85972827D01*
X82627426Y-85977995D01*
X82473011Y-85997502D01*
X82473008Y-85997503D01*
X82466681Y-85998302D01*
X82383034Y-86026778D01*
X82333053Y-86043793D01*
X82262120Y-86046811D01*
X82200816Y-86011001D01*
X82168605Y-85947732D01*
X82175712Y-85877092D01*
X82203352Y-85835420D01*
X82960177Y-85078595D01*
X83022489Y-85044569D01*
X83093304Y-85049634D01*
G37*
%TD.AperFunction*%
%TA.AperFunction,NonConductor*%
G36*
X89356709Y-98331502D02*
G01*
X89377679Y-98348401D01*
X90128184Y-99098907D01*
X90162208Y-99161217D01*
X90157143Y-99232033D01*
X90114596Y-99288868D01*
X90048076Y-99313679D01*
X90039087Y-99314000D01*
X89154000Y-99314000D01*
X89154000Y-105016500D01*
X89133998Y-105084621D01*
X89080342Y-105131114D01*
X89028000Y-105142500D01*
X88003413Y-105142500D01*
X87935292Y-105122498D01*
X87914318Y-105105595D01*
X84674405Y-101865683D01*
X84640379Y-101803371D01*
X84637500Y-101776588D01*
X84637500Y-100492727D01*
X84657502Y-100424606D01*
X84700179Y-100384621D01*
X84700119Y-100384535D01*
X84700706Y-100384127D01*
X84702417Y-100382524D01*
X84705357Y-100380895D01*
X84705364Y-100380890D01*
X84710944Y-100377797D01*
X84865271Y-100245523D01*
X84872287Y-100236479D01*
X84985939Y-100089958D01*
X84989848Y-100084919D01*
X85079587Y-99902545D01*
X85106418Y-99799541D01*
X85129212Y-99712034D01*
X85129212Y-99712031D01*
X85130822Y-99705852D01*
X85135979Y-99607444D01*
X85141125Y-99509256D01*
X85141125Y-99509252D01*
X85141459Y-99502874D01*
X85111065Y-99301903D01*
X85040881Y-99111148D01*
X84984301Y-99019893D01*
X84937137Y-98943824D01*
X84937134Y-98943820D01*
X84933774Y-98938401D01*
X84849536Y-98849322D01*
X84798508Y-98795361D01*
X84798507Y-98795360D01*
X84794119Y-98790720D01*
X84788888Y-98787057D01*
X84706181Y-98729145D01*
X84661853Y-98673688D01*
X84654544Y-98603068D01*
X84686575Y-98539708D01*
X84733348Y-98511035D01*
X84732512Y-98509103D01*
X84739785Y-98505956D01*
X84747398Y-98503744D01*
X84762950Y-98494547D01*
X84882044Y-98424115D01*
X84888865Y-98420081D01*
X84960541Y-98348405D01*
X85022853Y-98314379D01*
X85049636Y-98311500D01*
X89288588Y-98311500D01*
X89356709Y-98331502D01*
G37*
%TD.AperFunction*%
%TA.AperFunction,NonConductor*%
G36*
X87353096Y-81022155D02*
G01*
X87456406Y-81045734D01*
X87483035Y-81055052D01*
X87578506Y-81101028D01*
X87602396Y-81116039D01*
X87668525Y-81168776D01*
X87679338Y-81180086D01*
X87679974Y-81179450D01*
X87686989Y-81186465D01*
X87692816Y-81194485D01*
X87700836Y-81200312D01*
X87700838Y-81200314D01*
X87710585Y-81207395D01*
X87725619Y-81220236D01*
X89975772Y-83470389D01*
X89988613Y-83485423D01*
X89995694Y-83495170D01*
X89995697Y-83495173D01*
X90001523Y-83503192D01*
X90006553Y-83506847D01*
X90012512Y-83512124D01*
X90012513Y-83512125D01*
X90185905Y-83665660D01*
X90220206Y-83696033D01*
X90223352Y-83698201D01*
X90457109Y-83859298D01*
X90457113Y-83859300D01*
X90460251Y-83861463D01*
X90718552Y-83996625D01*
X90722119Y-83997971D01*
X90722124Y-83997973D01*
X90764676Y-84014027D01*
X90991312Y-84099533D01*
X91157957Y-84140216D01*
X91270814Y-84167768D01*
X91270818Y-84167769D01*
X91274522Y-84168673D01*
X91278306Y-84169122D01*
X91278311Y-84169123D01*
X91560224Y-84202579D01*
X91560228Y-84202579D01*
X91564018Y-84203029D01*
X91567837Y-84203017D01*
X91567841Y-84203017D01*
X91706779Y-84202573D01*
X91855544Y-84202097D01*
X91859337Y-84201622D01*
X91859341Y-84201622D01*
X91999812Y-84184039D01*
X92144814Y-84165890D01*
X92148527Y-84164958D01*
X92148534Y-84164957D01*
X92423859Y-84095872D01*
X92423864Y-84095870D01*
X92427576Y-84094939D01*
X92693931Y-83992498D01*
X92699922Y-83990835D01*
X92713633Y-83981756D01*
X92733581Y-83970992D01*
X93441214Y-83667825D01*
X93446606Y-83665660D01*
X94201171Y-83382803D01*
X94206657Y-83380890D01*
X94862192Y-83169075D01*
X94973424Y-83133134D01*
X94978993Y-83131475D01*
X95276802Y-83050204D01*
X95756398Y-82919324D01*
X95762030Y-82917926D01*
X96548367Y-82741847D01*
X96554064Y-82740708D01*
X97128449Y-82639643D01*
X97347716Y-82601062D01*
X97353450Y-82600190D01*
X98152669Y-82497285D01*
X98158431Y-82496678D01*
X98961551Y-82430729D01*
X98967353Y-82430387D01*
X99772656Y-82401535D01*
X99778466Y-82401461D01*
X99967398Y-82403408D01*
X100584246Y-82409766D01*
X100590045Y-82409960D01*
X100771374Y-82420202D01*
X101394573Y-82455405D01*
X101400365Y-82455866D01*
X102201957Y-82538356D01*
X102207722Y-82539084D01*
X103004652Y-82658440D01*
X103010377Y-82659433D01*
X103800959Y-82815403D01*
X103806632Y-82816659D01*
X104589175Y-83008910D01*
X104594784Y-83010426D01*
X105367638Y-83238552D01*
X105373158Y-83240321D01*
X105510614Y-83287886D01*
X106134675Y-83503837D01*
X106140121Y-83505863D01*
X106888683Y-83804207D01*
X106894025Y-83806480D01*
X107313730Y-83996625D01*
X107628027Y-84139015D01*
X107633263Y-84141534D01*
X108351164Y-84507559D01*
X108356277Y-84510316D01*
X108991240Y-84871868D01*
X109056529Y-84909044D01*
X109061503Y-84912030D01*
X109706848Y-85319999D01*
X109742628Y-85342618D01*
X109747467Y-85345835D01*
X110408028Y-85807376D01*
X110412713Y-85810813D01*
X111051286Y-86302309D01*
X111055807Y-86305958D01*
X111671034Y-86826367D01*
X111675383Y-86830221D01*
X112265984Y-87378458D01*
X112270150Y-87382509D01*
X112834812Y-87957358D01*
X112838784Y-87961592D01*
X113257770Y-88429454D01*
X113376372Y-88561892D01*
X113380148Y-88566309D01*
X113889481Y-89190746D01*
X113893042Y-89195323D01*
X114373078Y-89842622D01*
X114376400Y-89847326D01*
X114638906Y-90237709D01*
X114805990Y-90486187D01*
X114816894Y-90506055D01*
X114823479Y-90521130D01*
X114829793Y-90528242D01*
X114831136Y-90530223D01*
X114831666Y-90531052D01*
X114831675Y-90531082D01*
X114832028Y-90531619D01*
X114833359Y-90533701D01*
X114834404Y-90535045D01*
X115137421Y-90982050D01*
X115138438Y-90983390D01*
X115138444Y-90983398D01*
X115473566Y-91424840D01*
X115474604Y-91426207D01*
X115835102Y-91851660D01*
X115836247Y-91852873D01*
X115836255Y-91852882D01*
X116017358Y-92044748D01*
X116217878Y-92257186D01*
X116621832Y-92641619D01*
X117045804Y-93003856D01*
X117488577Y-93342856D01*
X117489976Y-93343812D01*
X117489986Y-93343820D01*
X117934334Y-93647699D01*
X117935674Y-93648750D01*
X117937747Y-93650088D01*
X117938279Y-93650442D01*
X117938317Y-93650456D01*
X117939177Y-93651011D01*
X117941119Y-93652339D01*
X117948207Y-93658684D01*
X117969020Y-93667878D01*
X117986094Y-93677050D01*
X123010406Y-96897676D01*
X123620577Y-97288801D01*
X123636616Y-97300996D01*
X123652386Y-97315112D01*
X123662127Y-97319414D01*
X123685007Y-97332539D01*
X123708568Y-97349563D01*
X123922817Y-97504364D01*
X123933147Y-97512689D01*
X124174112Y-97728778D01*
X124183508Y-97738142D01*
X124252298Y-97814326D01*
X124400423Y-97978373D01*
X124408773Y-97988660D01*
X124497830Y-98111035D01*
X124599225Y-98250363D01*
X124606453Y-98261480D01*
X124768340Y-98541768D01*
X124774354Y-98553575D01*
X124783583Y-98574330D01*
X124905869Y-98849322D01*
X124910613Y-98861710D01*
X125010301Y-99169632D01*
X125013717Y-99182451D01*
X125080477Y-99499144D01*
X125082527Y-99512251D01*
X125102427Y-99705852D01*
X125115622Y-99834230D01*
X125116281Y-99847473D01*
X125115481Y-100122789D01*
X125115428Y-100140856D01*
X125112590Y-100167082D01*
X125110341Y-100177497D01*
X125111294Y-100186852D01*
X125111272Y-100187543D01*
X125109728Y-100196820D01*
X125111202Y-100206624D01*
X125111202Y-100206625D01*
X125112442Y-100214876D01*
X125113809Y-100236479D01*
X125097631Y-100946090D01*
X125097489Y-100949857D01*
X125058101Y-101696384D01*
X125057846Y-101700144D01*
X124996149Y-102445132D01*
X124995782Y-102448883D01*
X124979918Y-102589248D01*
X124916474Y-103150605D01*
X124911829Y-103191700D01*
X124911350Y-103195439D01*
X124810571Y-103898065D01*
X124805668Y-103919150D01*
X124803088Y-103927081D01*
X124803088Y-103927084D01*
X124800021Y-103936511D01*
X124800018Y-103946425D01*
X124800014Y-103957809D01*
X124798407Y-103977825D01*
X123813641Y-110083380D01*
X123807159Y-110107598D01*
X123807095Y-110107905D01*
X123803574Y-110117173D01*
X123803089Y-110127078D01*
X123801062Y-110136782D01*
X123800301Y-110136623D01*
X123797475Y-110152048D01*
X123782947Y-110196845D01*
X123770862Y-110234111D01*
X123759795Y-110258813D01*
X123705177Y-110352280D01*
X123689089Y-110374048D01*
X123615774Y-110453687D01*
X123595407Y-110471517D01*
X123506769Y-110533662D01*
X123483066Y-110546730D01*
X123383201Y-110588510D01*
X123357254Y-110596214D01*
X123250768Y-110615700D01*
X123223777Y-110617684D01*
X123137557Y-110614729D01*
X123122093Y-110612127D01*
X123121983Y-110612897D01*
X123112163Y-110611494D01*
X123102687Y-110608574D01*
X123088922Y-110608783D01*
X123086772Y-110608816D01*
X123064201Y-110607127D01*
X119515643Y-110017444D01*
X117097737Y-109615648D01*
X117096908Y-109615445D01*
X117095710Y-109614835D01*
X117082685Y-109612772D01*
X117035144Y-109605242D01*
X117034202Y-109605089D01*
X117008505Y-109600819D01*
X117008495Y-109600818D01*
X117005078Y-109600250D01*
X117003766Y-109600240D01*
X117002868Y-109600130D01*
X116980359Y-109596565D01*
X116980356Y-109596565D01*
X116970562Y-109595014D01*
X116964648Y-109595951D01*
X116583035Y-109612772D01*
X116198514Y-109663886D01*
X116195818Y-109664490D01*
X116195810Y-109664491D01*
X115822695Y-109748026D01*
X115822687Y-109748028D01*
X115819981Y-109748634D01*
X115817333Y-109749478D01*
X115817331Y-109749478D01*
X115453013Y-109865520D01*
X115453004Y-109865523D01*
X115450374Y-109866361D01*
X115353908Y-109906744D01*
X115095115Y-110015081D01*
X115095109Y-110015084D01*
X115092558Y-110016152D01*
X114940769Y-110096057D01*
X114753616Y-110194579D01*
X114749311Y-110196845D01*
X114746980Y-110198348D01*
X114425622Y-110405537D01*
X114425615Y-110405542D01*
X114423293Y-110407039D01*
X114117035Y-110645104D01*
X114115008Y-110646988D01*
X114115001Y-110646994D01*
X114025622Y-110730071D01*
X113832911Y-110909193D01*
X113761299Y-110988600D01*
X113581829Y-111187604D01*
X113581828Y-111187606D01*
X113577087Y-111192863D01*
X113572604Y-111196826D01*
X113571355Y-111198944D01*
X113567574Y-111205358D01*
X113567572Y-111205360D01*
X113564264Y-111210972D01*
X113551032Y-111229395D01*
X113044627Y-111815046D01*
X113040706Y-111819375D01*
X112490065Y-112399501D01*
X112482922Y-112407026D01*
X112478814Y-112411157D01*
X112432065Y-112456046D01*
X111894413Y-112972299D01*
X111890107Y-112976246D01*
X111280327Y-113509694D01*
X111275842Y-113513438D01*
X110641971Y-114018063D01*
X110637317Y-114021594D01*
X110566013Y-114073146D01*
X109980766Y-114496273D01*
X109975988Y-114499562D01*
X109298073Y-114943343D01*
X109293134Y-114946414D01*
X109056610Y-115086032D01*
X108595432Y-115358260D01*
X108590334Y-115361112D01*
X107874296Y-115740173D01*
X107869071Y-115742786D01*
X107136226Y-116088253D01*
X107130885Y-116090621D01*
X106382821Y-116401744D01*
X106377376Y-116403862D01*
X105615686Y-116679979D01*
X105610149Y-116681842D01*
X105438330Y-116735256D01*
X104836485Y-116922353D01*
X104830898Y-116923950D01*
X104293284Y-117064111D01*
X104046879Y-117128351D01*
X104041193Y-117129693D01*
X103248580Y-117297524D01*
X103242838Y-117298601D01*
X102672311Y-117392016D01*
X102443297Y-117429513D01*
X102437529Y-117430321D01*
X101855892Y-117498050D01*
X101632771Y-117524032D01*
X101626954Y-117524573D01*
X101484568Y-117534493D01*
X100818715Y-117580880D01*
X100812909Y-117581149D01*
X100347479Y-117591942D01*
X100002920Y-117599932D01*
X99997078Y-117599932D01*
X99652536Y-117591943D01*
X99187090Y-117581149D01*
X99181284Y-117580880D01*
X98519715Y-117534790D01*
X98373045Y-117524572D01*
X98367228Y-117524031D01*
X98138786Y-117497430D01*
X97562469Y-117430321D01*
X97556701Y-117429513D01*
X97327412Y-117391971D01*
X96757161Y-117298601D01*
X96751419Y-117297524D01*
X95958805Y-117129692D01*
X95953119Y-117128350D01*
X95706717Y-117064111D01*
X95169101Y-116923950D01*
X95163514Y-116922353D01*
X94712044Y-116782003D01*
X94389850Y-116681841D01*
X94384313Y-116679978D01*
X93622623Y-116403862D01*
X93617178Y-116401744D01*
X92869114Y-116090621D01*
X92863773Y-116088253D01*
X92130927Y-115742786D01*
X92125702Y-115740173D01*
X91409665Y-115361112D01*
X91404567Y-115358260D01*
X90706878Y-114946421D01*
X90706865Y-114946413D01*
X90701917Y-114943336D01*
X90024011Y-114499561D01*
X90019233Y-114496272D01*
X89542867Y-114151865D01*
X89362682Y-114021593D01*
X89358028Y-114018062D01*
X88724157Y-113513437D01*
X88719672Y-113509693D01*
X88109904Y-112976256D01*
X88105597Y-112972309D01*
X87521186Y-112411157D01*
X87517067Y-112407014D01*
X86959295Y-111819375D01*
X86955391Y-111815065D01*
X86448959Y-111229384D01*
X86435731Y-111210964D01*
X86432434Y-111205371D01*
X86432432Y-111205369D01*
X86427396Y-111196826D01*
X86422913Y-111192863D01*
X86167090Y-110909192D01*
X85974380Y-110730071D01*
X85885000Y-110646993D01*
X85884993Y-110646987D01*
X85882966Y-110645103D01*
X85576707Y-110407038D01*
X85574379Y-110405537D01*
X85574378Y-110405536D01*
X85253020Y-110198347D01*
X85250689Y-110196844D01*
X85248235Y-110195552D01*
X84909890Y-110017440D01*
X84909886Y-110017438D01*
X84907441Y-110016151D01*
X84746885Y-109948938D01*
X90114277Y-109948938D01*
X90140473Y-110223497D01*
X90141558Y-110227931D01*
X90141559Y-110227937D01*
X90185018Y-110405537D01*
X90206028Y-110491399D01*
X90309570Y-110747031D01*
X90311871Y-110750961D01*
X90311874Y-110750967D01*
X90446626Y-110981108D01*
X90446631Y-110981115D01*
X90448929Y-110985040D01*
X90451776Y-110988600D01*
X90585826Y-111156220D01*
X90621187Y-111200437D01*
X90624528Y-111203558D01*
X90817794Y-111384097D01*
X90822735Y-111388713D01*
X91049350Y-111545921D01*
X91053426Y-111547949D01*
X91053428Y-111547950D01*
X91292198Y-111666737D01*
X91292201Y-111666738D01*
X91296285Y-111668770D01*
X91558369Y-111754685D01*
X91562860Y-111755465D01*
X91562861Y-111755465D01*
X91826328Y-111801211D01*
X91826336Y-111801212D01*
X91830109Y-111801867D01*
X91833946Y-111802058D01*
X91915676Y-111806127D01*
X91915684Y-111806127D01*
X91917247Y-111806205D01*
X92089441Y-111806205D01*
X92091709Y-111806040D01*
X92091721Y-111806040D01*
X92225974Y-111796299D01*
X92294454Y-111791330D01*
X92298909Y-111790346D01*
X92298912Y-111790346D01*
X92559318Y-111732853D01*
X92559321Y-111732852D01*
X92563774Y-111731869D01*
X92821690Y-111634154D01*
X92955132Y-111560034D01*
X93058806Y-111502448D01*
X93058807Y-111502447D01*
X93062799Y-111500230D01*
X93252550Y-111355416D01*
X93278417Y-111335675D01*
X93278418Y-111335674D01*
X93282049Y-111332903D01*
X93285244Y-111329635D01*
X93471654Y-111138947D01*
X93471658Y-111138942D01*
X93474848Y-111135679D01*
X93477537Y-111131985D01*
X93498980Y-111102526D01*
X95018511Y-111102526D01*
X95019095Y-111108942D01*
X95031582Y-111246148D01*
X95033407Y-111266205D01*
X95036066Y-111273674D01*
X95036067Y-111273676D01*
X95037588Y-111277947D01*
X95088540Y-111421036D01*
X95092971Y-111427606D01*
X95092972Y-111427607D01*
X95126564Y-111477409D01*
X95180446Y-111557292D01*
X95186372Y-111562553D01*
X95291729Y-111656093D01*
X95303350Y-111666411D01*
X95310398Y-111670033D01*
X95310402Y-111670036D01*
X95392569Y-111712264D01*
X95449530Y-111741538D01*
X95455736Y-111743259D01*
X95455741Y-111743261D01*
X95482768Y-111750756D01*
X95482774Y-111750757D01*
X95485174Y-111751423D01*
X95973135Y-111846273D01*
X96593340Y-111966829D01*
X96593348Y-111966830D01*
X96595775Y-111967302D01*
X96632526Y-111971489D01*
X96683986Y-111966806D01*
X96788307Y-111957312D01*
X96788309Y-111957312D01*
X96796205Y-111956593D01*
X96803674Y-111953934D01*
X96803676Y-111953933D01*
X96882237Y-111925958D01*
X96951036Y-111901460D01*
X97072731Y-111819376D01*
X97080720Y-111813987D01*
X97080721Y-111813986D01*
X97087292Y-111809554D01*
X97196411Y-111686650D01*
X97200033Y-111679602D01*
X97200036Y-111679598D01*
X97262893Y-111557292D01*
X97271538Y-111540470D01*
X97273259Y-111534264D01*
X97273261Y-111534259D01*
X97280756Y-111507232D01*
X97280757Y-111507226D01*
X97281423Y-111504826D01*
X97326645Y-111272181D01*
X98049849Y-111272181D01*
X98063678Y-111483176D01*
X98065099Y-111488772D01*
X98065100Y-111488777D01*
X98087666Y-111577627D01*
X98115727Y-111688117D01*
X98118144Y-111693360D01*
X98138996Y-111738592D01*
X98204251Y-111880141D01*
X98326287Y-112052818D01*
X98477747Y-112200364D01*
X98482543Y-112203569D01*
X98482546Y-112203571D01*
X98569713Y-112261814D01*
X98653559Y-112317838D01*
X98658867Y-112320119D01*
X98658868Y-112320119D01*
X98842532Y-112399027D01*
X98842535Y-112399028D01*
X98847835Y-112401305D01*
X98853464Y-112402579D01*
X98853465Y-112402579D01*
X99048432Y-112446696D01*
X99048435Y-112446696D01*
X99054068Y-112447971D01*
X99059839Y-112448198D01*
X99059841Y-112448198D01*
X99121871Y-112450635D01*
X99265352Y-112456273D01*
X99271061Y-112455445D01*
X99271065Y-112455445D01*
X99468897Y-112426760D01*
X99468901Y-112426759D01*
X99474612Y-112425931D01*
X99543405Y-112402579D01*
X99669365Y-112359822D01*
X99669370Y-112359820D01*
X99674837Y-112357964D01*
X99690965Y-112348932D01*
X99854277Y-112257473D01*
X99854281Y-112257470D01*
X99859324Y-112254646D01*
X100021894Y-112119439D01*
X100157101Y-111956869D01*
X100159925Y-111951826D01*
X100159928Y-111951822D01*
X100257595Y-111777425D01*
X100257596Y-111777423D01*
X100260419Y-111772382D01*
X100262275Y-111766915D01*
X100262277Y-111766910D01*
X100326529Y-111577627D01*
X100328386Y-111572157D01*
X100330542Y-111557292D01*
X100346225Y-111449126D01*
X102140541Y-111449126D01*
X102170935Y-111650097D01*
X102173141Y-111656092D01*
X102173141Y-111656093D01*
X102181789Y-111679598D01*
X102241119Y-111840852D01*
X102244479Y-111846272D01*
X102244480Y-111846273D01*
X102344863Y-112008176D01*
X102344866Y-112008180D01*
X102348226Y-112013599D01*
X102487881Y-112161280D01*
X102493111Y-112164942D01*
X102493112Y-112164943D01*
X102575819Y-112222855D01*
X102620147Y-112278312D01*
X102627456Y-112348932D01*
X102595425Y-112412292D01*
X102548655Y-112440962D01*
X102549491Y-112442895D01*
X102542214Y-112446044D01*
X102534601Y-112448256D01*
X102527774Y-112452293D01*
X102527775Y-112452293D01*
X102399962Y-112527881D01*
X102399959Y-112527883D01*
X102393135Y-112531919D01*
X102276919Y-112648135D01*
X102272883Y-112654959D01*
X102272881Y-112654962D01*
X102209980Y-112761323D01*
X102193256Y-112789601D01*
X102147402Y-112947430D01*
X102146897Y-112953848D01*
X102146897Y-112953849D01*
X102144693Y-112981846D01*
X102144692Y-112981859D01*
X102144500Y-112984305D01*
X102144501Y-113815694D01*
X102147402Y-113852570D01*
X102193256Y-114010399D01*
X102198858Y-114019872D01*
X102272881Y-114145038D01*
X102272883Y-114145041D01*
X102276919Y-114151865D01*
X102393135Y-114268081D01*
X102399959Y-114272117D01*
X102399962Y-114272119D01*
X102506323Y-114335020D01*
X102534601Y-114351744D01*
X102542213Y-114353955D01*
X102542214Y-114353956D01*
X102646950Y-114384385D01*
X102692430Y-114397598D01*
X102705583Y-114398633D01*
X102726846Y-114400307D01*
X102726859Y-114400308D01*
X102729305Y-114400500D01*
X103419720Y-114400500D01*
X104110694Y-114400499D01*
X104130230Y-114398962D01*
X104141152Y-114398103D01*
X104141153Y-114398103D01*
X104147570Y-114397598D01*
X104153755Y-114395801D01*
X104297786Y-114353956D01*
X104297787Y-114353955D01*
X104305399Y-114351744D01*
X104333677Y-114335020D01*
X104440038Y-114272119D01*
X104440041Y-114272117D01*
X104446865Y-114268081D01*
X104563081Y-114151865D01*
X104567117Y-114145041D01*
X104567119Y-114145038D01*
X104641142Y-114019872D01*
X104646744Y-114010399D01*
X104692598Y-113852570D01*
X104693633Y-113839417D01*
X104695307Y-113818154D01*
X104695308Y-113818141D01*
X104695500Y-113815695D01*
X104695499Y-112984306D01*
X104692598Y-112947430D01*
X104646744Y-112789601D01*
X104630020Y-112761323D01*
X104567119Y-112654962D01*
X104567117Y-112654959D01*
X104563081Y-112648135D01*
X104446865Y-112531919D01*
X104440041Y-112527883D01*
X104440038Y-112527881D01*
X104312220Y-112452290D01*
X104305399Y-112448256D01*
X104297792Y-112446046D01*
X104291773Y-112443441D01*
X104237200Y-112398029D01*
X104215842Y-112330321D01*
X104234481Y-112261814D01*
X104268078Y-112226277D01*
X104268944Y-112225797D01*
X104423271Y-112093523D01*
X104451722Y-112056845D01*
X104518383Y-111970905D01*
X104547848Y-111932919D01*
X104611617Y-111803323D01*
X104634769Y-111756272D01*
X104637587Y-111750545D01*
X104639197Y-111744365D01*
X104687212Y-111560034D01*
X104687212Y-111560031D01*
X104688822Y-111553852D01*
X104697619Y-111385991D01*
X104699125Y-111357256D01*
X104699125Y-111357252D01*
X104699459Y-111350874D01*
X104669065Y-111149903D01*
X104662473Y-111131985D01*
X104637216Y-111063340D01*
X104598881Y-110959148D01*
X104572092Y-110915941D01*
X104495137Y-110791824D01*
X104495134Y-110791820D01*
X104491774Y-110786401D01*
X104380373Y-110668598D01*
X104356508Y-110643361D01*
X104356507Y-110643360D01*
X104352119Y-110638720D01*
X104185621Y-110522137D01*
X103999081Y-110441414D01*
X103953053Y-110431798D01*
X103804856Y-110400838D01*
X103804851Y-110400837D01*
X103800120Y-110399849D01*
X103795238Y-110399593D01*
X103795129Y-110399587D01*
X103795113Y-110399587D01*
X103793461Y-110399500D01*
X103094200Y-110399500D01*
X103076440Y-110401304D01*
X102949132Y-110414235D01*
X102949130Y-110414235D01*
X102942784Y-110414880D01*
X102748828Y-110475662D01*
X102571056Y-110574203D01*
X102416729Y-110706477D01*
X102412822Y-110711514D01*
X102412820Y-110711516D01*
X102388552Y-110742803D01*
X102292152Y-110867081D01*
X102202413Y-111049455D01*
X102200804Y-111055633D01*
X102200803Y-111055635D01*
X102159908Y-111212635D01*
X102151178Y-111246148D01*
X102149707Y-111274219D01*
X102141669Y-111427607D01*
X102140541Y-111449126D01*
X100346225Y-111449126D01*
X100358196Y-111366567D01*
X100358196Y-111366565D01*
X100358728Y-111362897D01*
X100360311Y-111302427D01*
X100340963Y-111091867D01*
X100283568Y-110888358D01*
X100273076Y-110867081D01*
X100192601Y-110703896D01*
X100190047Y-110698717D01*
X100076553Y-110546730D01*
X100066986Y-110533918D01*
X100066985Y-110533917D01*
X100063533Y-110529294D01*
X99931277Y-110407038D01*
X99912504Y-110389684D01*
X99912502Y-110389682D01*
X99908263Y-110385764D01*
X99729436Y-110272932D01*
X99533042Y-110194579D01*
X99527385Y-110193454D01*
X99527379Y-110193452D01*
X99331324Y-110154455D01*
X99331322Y-110154455D01*
X99325657Y-110153328D01*
X99319882Y-110153252D01*
X99319878Y-110153252D01*
X99213858Y-110151864D01*
X99114228Y-110150560D01*
X99108531Y-110151539D01*
X99108530Y-110151539D01*
X98911532Y-110185389D01*
X98911531Y-110185389D01*
X98905835Y-110186368D01*
X98707457Y-110259554D01*
X98702496Y-110262506D01*
X98702495Y-110262506D01*
X98531845Y-110364032D01*
X98525738Y-110367665D01*
X98366763Y-110507082D01*
X98235858Y-110673135D01*
X98233169Y-110678246D01*
X98233167Y-110678249D01*
X98183282Y-110773065D01*
X98137405Y-110860263D01*
X98074702Y-111062200D01*
X98049849Y-111272181D01*
X97326645Y-111272181D01*
X97427958Y-110750967D01*
X97496829Y-110396660D01*
X97496830Y-110396652D01*
X97497302Y-110394225D01*
X97500665Y-110364711D01*
X97500760Y-110363873D01*
X97501489Y-110357474D01*
X97486593Y-110193795D01*
X97465081Y-110133381D01*
X97455900Y-110107598D01*
X97431460Y-110038964D01*
X97416073Y-110016151D01*
X97343987Y-109909280D01*
X97343986Y-109909279D01*
X97339554Y-109902708D01*
X97216650Y-109793589D01*
X97209602Y-109789967D01*
X97209598Y-109789964D01*
X97076202Y-109721408D01*
X97076203Y-109721408D01*
X97070470Y-109718462D01*
X97064264Y-109716741D01*
X97064259Y-109716739D01*
X97037232Y-109709244D01*
X97037226Y-109709243D01*
X97034826Y-109708577D01*
X96298239Y-109565399D01*
X95926660Y-109493171D01*
X95926652Y-109493170D01*
X95924225Y-109492698D01*
X95887474Y-109488511D01*
X95841467Y-109492698D01*
X95731693Y-109502688D01*
X95731691Y-109502688D01*
X95723795Y-109503407D01*
X95716326Y-109506066D01*
X95716324Y-109506067D01*
X95665455Y-109524181D01*
X95568964Y-109558540D01*
X95562394Y-109562971D01*
X95562393Y-109562972D01*
X95484298Y-109615648D01*
X95432708Y-109650446D01*
X95372321Y-109718462D01*
X95346074Y-109748025D01*
X95323589Y-109773350D01*
X95319967Y-109780398D01*
X95319964Y-109780402D01*
X95275788Y-109866360D01*
X95248462Y-109919530D01*
X95246741Y-109925736D01*
X95246739Y-109925741D01*
X95239789Y-109950802D01*
X95238577Y-109955174D01*
X95148761Y-110417236D01*
X95026984Y-111043728D01*
X95022698Y-111065775D01*
X95018511Y-111102526D01*
X93498980Y-111102526D01*
X93634471Y-110916381D01*
X93634473Y-110916378D01*
X93637158Y-110912689D01*
X93765577Y-110668604D01*
X93857416Y-110408537D01*
X93886199Y-110262506D01*
X93909870Y-110142409D01*
X93909871Y-110142403D01*
X93910751Y-110137937D01*
X93911785Y-110117173D01*
X93924238Y-109867041D01*
X93924238Y-109867035D01*
X93924465Y-109862472D01*
X93898269Y-109587913D01*
X93894431Y-109572225D01*
X93833800Y-109324449D01*
X93832714Y-109320011D01*
X93729172Y-109064379D01*
X93726871Y-109060449D01*
X93726868Y-109060443D01*
X93592116Y-108830302D01*
X93592111Y-108830295D01*
X93589813Y-108826370D01*
X93565767Y-108796302D01*
X93420407Y-108614539D01*
X93420406Y-108614538D01*
X93417555Y-108610973D01*
X93216007Y-108422697D01*
X92989392Y-108265489D01*
X92920296Y-108231114D01*
X92746544Y-108144673D01*
X92746541Y-108144672D01*
X92742457Y-108142640D01*
X92480373Y-108056725D01*
X92475881Y-108055945D01*
X92212414Y-108010199D01*
X92212406Y-108010198D01*
X92208633Y-108009543D01*
X92194271Y-108008828D01*
X92123066Y-108005283D01*
X92123058Y-108005283D01*
X92121495Y-108005205D01*
X91949301Y-108005205D01*
X91947033Y-108005370D01*
X91947021Y-108005370D01*
X91812768Y-108015111D01*
X91744288Y-108020080D01*
X91739833Y-108021064D01*
X91739830Y-108021064D01*
X91479424Y-108078557D01*
X91479421Y-108078558D01*
X91474968Y-108079541D01*
X91217052Y-108177256D01*
X91213065Y-108179470D01*
X91213064Y-108179471D01*
X91120089Y-108231114D01*
X90975943Y-108311180D01*
X90756693Y-108478507D01*
X90753500Y-108481773D01*
X90753498Y-108481775D01*
X90567088Y-108672463D01*
X90567084Y-108672468D01*
X90563894Y-108675731D01*
X90561207Y-108679423D01*
X90561205Y-108679425D01*
X90434676Y-108853258D01*
X90401584Y-108898721D01*
X90273165Y-109142806D01*
X90181326Y-109402873D01*
X90167594Y-109472544D01*
X90129762Y-109664490D01*
X90127991Y-109673473D01*
X90127764Y-109678027D01*
X90127764Y-109678029D01*
X90115219Y-109930020D01*
X90114277Y-109948938D01*
X84746885Y-109948938D01*
X84549626Y-109866360D01*
X84180018Y-109748633D01*
X84177312Y-109748027D01*
X84177304Y-109748025D01*
X83804190Y-109664490D01*
X83804182Y-109664489D01*
X83801486Y-109663885D01*
X83425081Y-109613850D01*
X83419725Y-109613138D01*
X83416964Y-109612771D01*
X83242691Y-109605089D01*
X83042430Y-109596261D01*
X83042428Y-109596261D01*
X83035342Y-109595949D01*
X83029437Y-109595014D01*
X83019645Y-109596565D01*
X83019642Y-109596565D01*
X82996666Y-109600204D01*
X82994873Y-109600429D01*
X82992582Y-109600459D01*
X82987705Y-109601299D01*
X82987692Y-109601300D01*
X82965013Y-109605206D01*
X82963406Y-109605472D01*
X82932458Y-109610374D01*
X82910506Y-109613850D01*
X82910502Y-109613851D01*
X82904289Y-109614835D01*
X82902183Y-109615908D01*
X82900617Y-109616295D01*
X80064146Y-110104725D01*
X77238719Y-110591253D01*
X77225231Y-110592833D01*
X77200232Y-110594402D01*
X77200223Y-110594404D01*
X77190329Y-110595025D01*
X77181108Y-110598674D01*
X77171434Y-110600835D01*
X77171301Y-110600242D01*
X77156027Y-110604104D01*
X77037807Y-110618180D01*
X77012350Y-110618620D01*
X76958423Y-110614082D01*
X76870956Y-110606721D01*
X76845924Y-110602032D01*
X76709811Y-110561944D01*
X76686234Y-110552317D01*
X76560963Y-110485677D01*
X76539805Y-110471507D01*
X76430493Y-110381039D01*
X76412615Y-110362902D01*
X76323726Y-110252298D01*
X76309860Y-110230936D01*
X76303701Y-110218945D01*
X76245031Y-110104722D01*
X76235745Y-110081012D01*
X76232350Y-110068839D01*
X76203757Y-109966341D01*
X76201513Y-109950748D01*
X76200914Y-109950851D01*
X76199229Y-109941081D01*
X76199093Y-109931161D01*
X76192720Y-109912426D01*
X76187670Y-109892248D01*
X75517199Y-105805290D01*
X75858148Y-105805290D01*
X75861693Y-105842109D01*
X76006063Y-106660867D01*
X76015324Y-106696679D01*
X76018168Y-106702459D01*
X76018170Y-106702464D01*
X76022735Y-106711741D01*
X76087888Y-106844148D01*
X76194845Y-106968936D01*
X76329476Y-107063206D01*
X76336896Y-107065995D01*
X76336898Y-107065996D01*
X76475894Y-107118242D01*
X76475899Y-107118243D01*
X76483321Y-107121033D01*
X76491206Y-107121890D01*
X76497572Y-107123406D01*
X76559203Y-107158651D01*
X76591995Y-107221621D01*
X76585537Y-107292323D01*
X76558624Y-107333156D01*
X76557852Y-107333781D01*
X76553800Y-107338714D01*
X76432892Y-107485909D01*
X76432889Y-107485913D01*
X76428839Y-107490844D01*
X76398002Y-107549332D01*
X76350139Y-107640113D01*
X76334043Y-107670641D01*
X76332262Y-107676770D01*
X76332262Y-107676771D01*
X76292943Y-107812109D01*
X76277336Y-107865827D01*
X76261034Y-108068429D01*
X76261811Y-108074757D01*
X76261811Y-108074759D01*
X76270396Y-108144673D01*
X76285805Y-108270170D01*
X76350636Y-108462810D01*
X76452878Y-108638480D01*
X76588355Y-108790004D01*
X76642616Y-108830302D01*
X76746412Y-108907389D01*
X76746415Y-108907391D01*
X76751532Y-108911191D01*
X76757312Y-108913886D01*
X76757315Y-108913888D01*
X76811032Y-108938936D01*
X76935745Y-108997090D01*
X76941953Y-108998569D01*
X76941956Y-108998570D01*
X77050858Y-109024514D01*
X77133469Y-109044195D01*
X77336625Y-109050579D01*
X77341415Y-109049991D01*
X77341421Y-109049991D01*
X77341541Y-109049976D01*
X77343243Y-109049767D01*
X77344871Y-109049480D01*
X78028751Y-108928894D01*
X78028753Y-108928894D01*
X78031881Y-108928342D01*
X78092493Y-108911191D01*
X78172191Y-108888639D01*
X78178326Y-108886903D01*
X78243234Y-108853258D01*
X78353114Y-108796302D01*
X78353118Y-108796300D01*
X78358781Y-108793364D01*
X78359191Y-108794154D01*
X78423051Y-108775116D01*
X79189516Y-108775116D01*
X79190837Y-108775123D01*
X79277249Y-108776028D01*
X79284135Y-108774539D01*
X79284137Y-108774539D01*
X79317635Y-108767296D01*
X79330218Y-108765235D01*
X79364286Y-108761414D01*
X79364288Y-108761413D01*
X79371282Y-108760629D01*
X79401360Y-108750154D01*
X79416165Y-108745993D01*
X79440422Y-108740749D01*
X79440425Y-108740748D01*
X79447303Y-108739261D01*
X79484765Y-108721792D01*
X79496568Y-108717000D01*
X79535587Y-108703412D01*
X79562596Y-108686535D01*
X79576116Y-108679194D01*
X79598604Y-108668708D01*
X79598607Y-108668706D01*
X79604983Y-108665733D01*
X79637631Y-108640408D01*
X79648088Y-108633114D01*
X79677160Y-108614948D01*
X79677162Y-108614947D01*
X79683132Y-108611216D01*
X79710783Y-108583757D01*
X79711353Y-108583224D01*
X79712000Y-108582722D01*
X79736885Y-108557837D01*
X79806585Y-108488622D01*
X79807221Y-108487620D01*
X79808258Y-108486464D01*
X80548319Y-107746404D01*
X80610631Y-107712379D01*
X80637414Y-107709500D01*
X108733551Y-107709500D01*
X108801672Y-107729502D01*
X108848165Y-107783158D01*
X108858269Y-107853432D01*
X108838512Y-107903355D01*
X108838912Y-107903579D01*
X108837237Y-107906577D01*
X108836764Y-107907771D01*
X108832137Y-107914379D01*
X108751414Y-108100919D01*
X108750108Y-108107171D01*
X108716056Y-108270170D01*
X108709849Y-108299880D01*
X108709500Y-108306539D01*
X108709500Y-109005800D01*
X108709823Y-109008979D01*
X108723853Y-109147102D01*
X108724880Y-109157216D01*
X108785662Y-109351172D01*
X108884203Y-109528944D01*
X109016477Y-109683271D01*
X109177081Y-109807848D01*
X109359455Y-109897587D01*
X109365633Y-109899196D01*
X109365635Y-109899197D01*
X109549966Y-109947212D01*
X109549969Y-109947212D01*
X109556148Y-109948822D01*
X109628203Y-109952598D01*
X109752744Y-109959125D01*
X109752748Y-109959125D01*
X109759126Y-109959459D01*
X109960097Y-109929065D01*
X109969132Y-109925741D01*
X110001592Y-109913798D01*
X110150852Y-109858881D01*
X110156273Y-109855520D01*
X110318176Y-109755137D01*
X110318180Y-109755134D01*
X110323599Y-109751774D01*
X110471280Y-109612119D01*
X110475927Y-109605483D01*
X110532855Y-109524181D01*
X110588312Y-109479853D01*
X110658932Y-109472544D01*
X110722292Y-109504575D01*
X110750962Y-109551345D01*
X110752895Y-109550509D01*
X110756044Y-109557786D01*
X110758256Y-109565399D01*
X110762293Y-109572225D01*
X110837881Y-109700038D01*
X110837883Y-109700041D01*
X110841919Y-109706865D01*
X110958135Y-109823081D01*
X110964959Y-109827117D01*
X110964962Y-109827119D01*
X111071323Y-109890020D01*
X111099601Y-109906744D01*
X111107213Y-109908955D01*
X111107214Y-109908956D01*
X111179717Y-109930020D01*
X111257430Y-109952598D01*
X111270583Y-109953633D01*
X111291846Y-109955307D01*
X111291859Y-109955308D01*
X111294305Y-109955500D01*
X111709831Y-109955500D01*
X112125694Y-109955499D01*
X112151181Y-109953494D01*
X112156152Y-109953103D01*
X112156153Y-109953103D01*
X112162570Y-109952598D01*
X112169530Y-109950576D01*
X112312786Y-109908956D01*
X112312787Y-109908955D01*
X112320399Y-109906744D01*
X112348677Y-109890020D01*
X112455038Y-109827119D01*
X112455041Y-109827117D01*
X112461865Y-109823081D01*
X112578081Y-109706865D01*
X112582117Y-109700041D01*
X112582119Y-109700038D01*
X112657707Y-109572225D01*
X112661744Y-109565399D01*
X112670927Y-109533793D01*
X112705801Y-109413755D01*
X112707598Y-109407570D01*
X112708633Y-109394417D01*
X112710307Y-109373154D01*
X112710308Y-109373141D01*
X112710500Y-109370695D01*
X112710499Y-107989306D01*
X112707598Y-107952430D01*
X112683839Y-107870652D01*
X112684042Y-107799657D01*
X112722595Y-107740041D01*
X112787260Y-107710732D01*
X112804836Y-107709500D01*
X119879132Y-107709500D01*
X119880453Y-107709507D01*
X119966865Y-107710412D01*
X119973751Y-107708923D01*
X119973753Y-107708923D01*
X120007251Y-107701680D01*
X120019834Y-107699619D01*
X120053902Y-107695798D01*
X120053904Y-107695797D01*
X120060898Y-107695013D01*
X120090976Y-107684538D01*
X120105781Y-107680377D01*
X120130038Y-107675133D01*
X120130041Y-107675132D01*
X120136919Y-107673645D01*
X120174381Y-107656176D01*
X120186184Y-107651384D01*
X120225203Y-107637796D01*
X120252212Y-107620919D01*
X120265732Y-107613578D01*
X120288220Y-107603092D01*
X120288223Y-107603090D01*
X120294599Y-107600117D01*
X120327247Y-107574792D01*
X120337704Y-107567498D01*
X120366776Y-107549332D01*
X120366778Y-107549331D01*
X120372748Y-107545600D01*
X120400399Y-107518141D01*
X120400969Y-107517608D01*
X120401616Y-107517106D01*
X120426498Y-107492224D01*
X120496201Y-107423006D01*
X120496836Y-107422006D01*
X120497879Y-107420843D01*
X121075933Y-106842789D01*
X121138245Y-106808763D01*
X121165028Y-106805884D01*
X121419659Y-106805884D01*
X121487780Y-106825886D01*
X121534273Y-106879542D01*
X121544377Y-106949816D01*
X121514883Y-107014396D01*
X121491929Y-107035097D01*
X121461345Y-107056512D01*
X121461342Y-107056515D01*
X121454845Y-107061064D01*
X121347888Y-107185852D01*
X121275324Y-107333321D01*
X121266062Y-107369132D01*
X121121694Y-108187891D01*
X121118148Y-108224710D01*
X121135898Y-108388104D01*
X121138686Y-108395522D01*
X121138687Y-108395525D01*
X121190935Y-108534527D01*
X121193725Y-108541949D01*
X121198271Y-108548442D01*
X121198272Y-108548443D01*
X121222275Y-108582722D01*
X121287995Y-108676580D01*
X121294014Y-108681739D01*
X121294016Y-108681741D01*
X121406764Y-108778378D01*
X121406768Y-108778381D01*
X121412784Y-108783537D01*
X121560252Y-108856101D01*
X121566481Y-108857712D01*
X121566484Y-108857713D01*
X121593672Y-108864744D01*
X121593680Y-108864746D01*
X121596063Y-108865362D01*
X121598480Y-108865788D01*
X121598493Y-108865791D01*
X122875911Y-109091033D01*
X122956466Y-109105237D01*
X122958917Y-109105473D01*
X122958924Y-109105474D01*
X122986876Y-109108166D01*
X122986879Y-109108166D01*
X122993286Y-109108783D01*
X123119880Y-109095031D01*
X123148800Y-109091889D01*
X123148801Y-109091889D01*
X123156679Y-109091033D01*
X123164097Y-109088245D01*
X123164100Y-109088244D01*
X123303102Y-109035996D01*
X123303104Y-109035995D01*
X123310524Y-109033206D01*
X123445155Y-108938936D01*
X123552112Y-108814148D01*
X123624676Y-108666679D01*
X123633938Y-108630868D01*
X123778306Y-107812109D01*
X123780142Y-107793048D01*
X123781235Y-107781700D01*
X123781235Y-107781697D01*
X123781852Y-107775290D01*
X123764102Y-107611896D01*
X123750156Y-107574792D01*
X123709065Y-107465473D01*
X123709064Y-107465471D01*
X123706275Y-107458051D01*
X123612005Y-107323420D01*
X123575724Y-107292323D01*
X123493234Y-107221621D01*
X123487216Y-107216463D01*
X123480104Y-107212963D01*
X123474636Y-107209358D01*
X123428776Y-107155161D01*
X123419498Y-107084773D01*
X123449746Y-107020543D01*
X123489011Y-106991374D01*
X123489945Y-106991052D01*
X123664897Y-106887586D01*
X123695854Y-106859516D01*
X123810739Y-106755345D01*
X123810740Y-106755344D01*
X123815470Y-106751055D01*
X123935514Y-106587034D01*
X123999939Y-106446319D01*
X124017472Y-106408024D01*
X124017474Y-106408019D01*
X124020126Y-106402226D01*
X124032222Y-106349834D01*
X124064412Y-106210399D01*
X124065848Y-106204179D01*
X124070814Y-106000983D01*
X124061639Y-105949988D01*
X124041783Y-105839637D01*
X124034820Y-105800939D01*
X123974631Y-105650452D01*
X123961708Y-105618143D01*
X123961707Y-105618141D01*
X123959338Y-105612218D01*
X123847449Y-105442530D01*
X123703724Y-105298806D01*
X123534036Y-105186917D01*
X123497459Y-105172287D01*
X123477269Y-105164212D01*
X123345315Y-105111434D01*
X123340601Y-105110346D01*
X123340599Y-105110345D01*
X123340435Y-105110307D01*
X123340423Y-105110305D01*
X123338818Y-105109934D01*
X123098939Y-105067637D01*
X122653322Y-104989063D01*
X122650180Y-104988509D01*
X122647009Y-104988276D01*
X122647000Y-104988275D01*
X122504757Y-104977830D01*
X122504755Y-104977830D01*
X122498394Y-104977363D01*
X122296830Y-105003541D01*
X122290800Y-105005617D01*
X122290797Y-105005618D01*
X122110684Y-105067637D01*
X122110682Y-105067638D01*
X122104647Y-105069716D01*
X121929695Y-105173182D01*
X121875607Y-105222226D01*
X121811710Y-105253166D01*
X121790972Y-105254884D01*
X120800484Y-105254884D01*
X120799164Y-105254877D01*
X120797570Y-105254860D01*
X120712751Y-105253972D01*
X120705865Y-105255461D01*
X120705863Y-105255461D01*
X120672365Y-105262704D01*
X120659782Y-105264765D01*
X120625714Y-105268586D01*
X120625712Y-105268587D01*
X120618718Y-105269371D01*
X120588640Y-105279846D01*
X120573835Y-105284007D01*
X120549578Y-105289251D01*
X120549575Y-105289252D01*
X120542697Y-105290739D01*
X120505235Y-105308208D01*
X120493434Y-105312999D01*
X120454413Y-105326588D01*
X120448439Y-105330321D01*
X120448437Y-105330322D01*
X120427404Y-105343465D01*
X120413884Y-105350806D01*
X120391396Y-105361292D01*
X120391393Y-105361294D01*
X120385017Y-105364267D01*
X120354614Y-105387850D01*
X120352368Y-105389592D01*
X120341912Y-105396886D01*
X120334439Y-105401556D01*
X120306868Y-105418784D01*
X120279217Y-105446243D01*
X120278647Y-105446776D01*
X120278000Y-105447278D01*
X120253118Y-105472160D01*
X120183415Y-105541378D01*
X120182780Y-105542378D01*
X120181737Y-105543541D01*
X119603683Y-106121595D01*
X119541371Y-106155621D01*
X119514588Y-106158500D01*
X102112412Y-106158500D01*
X102044291Y-106138498D01*
X101997798Y-106084842D01*
X101987694Y-106014568D01*
X102017188Y-105949988D01*
X102023317Y-105943405D01*
X102265817Y-105700905D01*
X102328129Y-105666879D01*
X102354912Y-105664000D01*
X110744000Y-105664000D01*
X110744000Y-99940167D01*
X120016087Y-99940167D01*
X120017306Y-99971205D01*
X120025031Y-100167809D01*
X120026650Y-100209028D01*
X120035373Y-100256790D01*
X120058039Y-100380895D01*
X120074991Y-100473718D01*
X120160145Y-100728956D01*
X120280413Y-100969649D01*
X120282938Y-100973303D01*
X120282939Y-100973304D01*
X120349498Y-101069607D01*
X120433395Y-101190995D01*
X120616038Y-101388578D01*
X120619492Y-101391390D01*
X120821243Y-101555641D01*
X120821247Y-101555644D01*
X120824700Y-101558455D01*
X120828522Y-101560756D01*
X120984422Y-101654615D01*
X121055215Y-101697236D01*
X121151761Y-101738118D01*
X121298882Y-101800417D01*
X121298887Y-101800419D01*
X121302985Y-101802154D01*
X121307282Y-101803293D01*
X121307287Y-101803295D01*
X121558766Y-101869973D01*
X121563066Y-101871113D01*
X121567483Y-101871636D01*
X121567484Y-101871636D01*
X121649957Y-101881397D01*
X121830269Y-101902738D01*
X122099263Y-101896399D01*
X122103658Y-101895667D01*
X122103663Y-101895667D01*
X122360277Y-101852955D01*
X122360281Y-101852954D01*
X122364679Y-101852222D01*
X122531554Y-101799447D01*
X122616977Y-101772431D01*
X122616979Y-101772430D01*
X122621223Y-101771088D01*
X122863776Y-101654615D01*
X122979259Y-101577452D01*
X123083790Y-101507607D01*
X123083794Y-101507604D01*
X123087498Y-101505129D01*
X123090815Y-101502158D01*
X123090819Y-101502155D01*
X123284607Y-101328584D01*
X123284608Y-101328583D01*
X123287925Y-101325612D01*
X123461058Y-101119645D01*
X123474251Y-101098492D01*
X123552325Y-100973304D01*
X123603444Y-100891338D01*
X123619571Y-100854861D01*
X123710442Y-100649313D01*
X123712240Y-100645246D01*
X123785276Y-100386280D01*
X123795704Y-100308639D01*
X123820667Y-100122789D01*
X123820668Y-100122781D01*
X123821094Y-100119607D01*
X123824292Y-100017854D01*
X123824752Y-100003222D01*
X123824752Y-100003217D01*
X123824853Y-100000000D01*
X123818359Y-99908272D01*
X123806165Y-99736053D01*
X123805850Y-99731604D01*
X123798933Y-99699473D01*
X123750155Y-99472915D01*
X123749218Y-99468563D01*
X123729714Y-99415693D01*
X123657630Y-99220303D01*
X123656089Y-99216126D01*
X123634412Y-99175951D01*
X123530434Y-98983245D01*
X123530434Y-98983244D01*
X123528321Y-98979329D01*
X123368462Y-98762897D01*
X123364214Y-98758581D01*
X123235334Y-98627662D01*
X123179702Y-98571149D01*
X123176163Y-98568448D01*
X123176156Y-98568442D01*
X122996105Y-98431032D01*
X122965808Y-98407910D01*
X122859555Y-98348405D01*
X122734933Y-98278613D01*
X122734930Y-98278612D01*
X122731047Y-98276437D01*
X122726908Y-98274836D01*
X122726900Y-98274832D01*
X122541034Y-98202927D01*
X122480104Y-98179355D01*
X122475779Y-98178352D01*
X122475774Y-98178351D01*
X122285059Y-98134146D01*
X122217985Y-98118599D01*
X121949920Y-98095382D01*
X121945485Y-98095626D01*
X121945481Y-98095626D01*
X121836438Y-98101627D01*
X121681259Y-98110167D01*
X121417361Y-98162660D01*
X121273133Y-98213309D01*
X121167700Y-98250334D01*
X121167697Y-98250335D01*
X121163492Y-98251812D01*
X121159539Y-98253865D01*
X121159533Y-98253868D01*
X121076417Y-98297044D01*
X120924717Y-98375846D01*
X120921102Y-98378429D01*
X120921096Y-98378433D01*
X120870661Y-98414475D01*
X120705801Y-98532286D01*
X120702574Y-98535364D01*
X120702572Y-98535366D01*
X120540286Y-98690179D01*
X120511111Y-98718010D01*
X120508355Y-98721506D01*
X120479128Y-98758581D01*
X120344533Y-98929314D01*
X120289069Y-99024802D01*
X120211627Y-99158127D01*
X120211624Y-99158133D01*
X120209389Y-99161981D01*
X120189045Y-99212208D01*
X120110050Y-99407236D01*
X120110047Y-99407244D01*
X120108377Y-99411368D01*
X120043512Y-99672500D01*
X120016087Y-99940167D01*
X110744000Y-99940167D01*
X110744000Y-99314000D01*
X102352912Y-99314000D01*
X102284791Y-99293998D01*
X102263817Y-99277095D01*
X101239223Y-98252501D01*
X101238295Y-98251564D01*
X101182690Y-98194782D01*
X101182689Y-98194781D01*
X101177761Y-98189749D01*
X101171842Y-98185935D01*
X101171839Y-98185932D01*
X101143024Y-98167362D01*
X101132671Y-98159923D01*
X101125660Y-98154326D01*
X101100381Y-98134146D01*
X101094044Y-98131083D01*
X101094040Y-98131080D01*
X101071712Y-98120287D01*
X101058295Y-98112758D01*
X101050163Y-98107517D01*
X101031517Y-98095501D01*
X100992670Y-98081362D01*
X100980949Y-98076411D01*
X100943741Y-98058424D01*
X100936877Y-98056839D01*
X100936876Y-98056839D01*
X100912714Y-98051261D01*
X100897961Y-98046891D01*
X100895150Y-98045868D01*
X100868028Y-98035996D01*
X100827010Y-98030814D01*
X100814486Y-98028583D01*
X100774219Y-98019286D01*
X100767173Y-98019261D01*
X100767169Y-98019261D01*
X100735282Y-98019150D01*
X100734462Y-98019123D01*
X100733658Y-98019021D01*
X100698542Y-98019021D01*
X100698102Y-98019020D01*
X100697581Y-98019018D01*
X100600237Y-98018678D01*
X100599078Y-98018937D01*
X100597529Y-98019021D01*
X94656381Y-98019021D01*
X94588260Y-97999019D01*
X94541767Y-97945363D01*
X94531663Y-97875089D01*
X94554510Y-97818871D01*
X94655100Y-97680676D01*
X94655102Y-97680673D01*
X94657787Y-97676984D01*
X94786206Y-97432899D01*
X94878045Y-97172832D01*
X94913396Y-96993476D01*
X94930499Y-96906704D01*
X94930500Y-96906698D01*
X94931380Y-96902232D01*
X94933562Y-96858410D01*
X94940790Y-96713233D01*
X104834906Y-96713233D01*
X104861102Y-96987792D01*
X104862187Y-96992226D01*
X104862188Y-96992232D01*
X104905288Y-97168366D01*
X104926657Y-97255694D01*
X105030199Y-97511326D01*
X105032500Y-97515256D01*
X105032503Y-97515262D01*
X105167255Y-97745403D01*
X105167260Y-97745410D01*
X105169558Y-97749335D01*
X105172405Y-97752895D01*
X105338180Y-97960185D01*
X105341816Y-97964732D01*
X105345157Y-97967853D01*
X105500277Y-98112758D01*
X105543364Y-98153008D01*
X105769979Y-98310216D01*
X105774055Y-98312244D01*
X105774057Y-98312245D01*
X106012827Y-98431032D01*
X106012830Y-98431033D01*
X106016914Y-98433065D01*
X106278998Y-98518980D01*
X106283489Y-98519760D01*
X106283490Y-98519760D01*
X106546957Y-98565506D01*
X106546965Y-98565507D01*
X106550738Y-98566162D01*
X106554575Y-98566353D01*
X106636305Y-98570422D01*
X106636313Y-98570422D01*
X106637876Y-98570500D01*
X106810070Y-98570500D01*
X106812338Y-98570335D01*
X106812350Y-98570335D01*
X106946603Y-98560594D01*
X107015083Y-98555625D01*
X107019538Y-98554641D01*
X107019541Y-98554641D01*
X107279947Y-98497148D01*
X107279950Y-98497147D01*
X107284403Y-98496164D01*
X107542319Y-98398449D01*
X107586707Y-98373794D01*
X107779435Y-98266743D01*
X107779436Y-98266742D01*
X107783428Y-98264525D01*
X107910742Y-98167362D01*
X107999046Y-98099970D01*
X107999047Y-98099969D01*
X108002678Y-98097198D01*
X108040582Y-98058424D01*
X108192283Y-97903242D01*
X108192287Y-97903237D01*
X108195477Y-97899974D01*
X108212275Y-97876896D01*
X108355100Y-97680676D01*
X108355102Y-97680673D01*
X108357787Y-97676984D01*
X108486206Y-97432899D01*
X108578045Y-97172832D01*
X108613396Y-96993476D01*
X108630499Y-96906704D01*
X108630500Y-96906698D01*
X108631380Y-96902232D01*
X108633562Y-96858410D01*
X108644867Y-96631336D01*
X108644867Y-96631330D01*
X108645094Y-96626767D01*
X108618898Y-96352208D01*
X108553343Y-96084306D01*
X108449801Y-95828674D01*
X108447500Y-95824744D01*
X108447497Y-95824738D01*
X108312745Y-95594597D01*
X108312740Y-95594590D01*
X108310442Y-95590665D01*
X108192927Y-95443720D01*
X108141036Y-95378834D01*
X108141035Y-95378833D01*
X108138184Y-95375268D01*
X107936636Y-95186992D01*
X107710021Y-95029784D01*
X107532667Y-94941551D01*
X107467173Y-94908968D01*
X107467170Y-94908967D01*
X107463086Y-94906935D01*
X107201002Y-94821020D01*
X107196510Y-94820240D01*
X106933043Y-94774494D01*
X106933035Y-94774493D01*
X106929262Y-94773838D01*
X106919029Y-94773329D01*
X106843695Y-94769578D01*
X106843687Y-94769578D01*
X106842124Y-94769500D01*
X106669930Y-94769500D01*
X106667662Y-94769665D01*
X106667650Y-94769665D01*
X106533397Y-94779406D01*
X106464917Y-94784375D01*
X106460462Y-94785359D01*
X106460459Y-94785359D01*
X106200053Y-94842852D01*
X106200050Y-94842853D01*
X106195597Y-94843836D01*
X105937681Y-94941551D01*
X105696572Y-95075475D01*
X105477322Y-95242802D01*
X105474129Y-95246068D01*
X105474127Y-95246070D01*
X105287717Y-95436758D01*
X105287713Y-95436763D01*
X105284523Y-95440026D01*
X105122213Y-95663016D01*
X104993794Y-95907101D01*
X104901955Y-96167168D01*
X104901075Y-96171634D01*
X104864587Y-96356760D01*
X104848620Y-96437768D01*
X104848393Y-96442322D01*
X104848393Y-96442324D01*
X104838825Y-96634518D01*
X104834906Y-96713233D01*
X94940790Y-96713233D01*
X94944867Y-96631336D01*
X94944867Y-96631330D01*
X94945094Y-96626767D01*
X94918898Y-96352208D01*
X94853343Y-96084306D01*
X94749801Y-95828674D01*
X94747500Y-95824744D01*
X94747497Y-95824738D01*
X94612745Y-95594597D01*
X94612740Y-95594590D01*
X94610442Y-95590665D01*
X94492927Y-95443720D01*
X94441036Y-95378834D01*
X94441035Y-95378833D01*
X94438184Y-95375268D01*
X94236636Y-95186992D01*
X94010021Y-95029784D01*
X93832667Y-94941551D01*
X93767173Y-94908968D01*
X93767170Y-94908967D01*
X93763086Y-94906935D01*
X93501002Y-94821020D01*
X93496510Y-94820240D01*
X93233043Y-94774494D01*
X93233035Y-94774493D01*
X93229262Y-94773838D01*
X93219029Y-94773329D01*
X93143695Y-94769578D01*
X93143687Y-94769578D01*
X93142124Y-94769500D01*
X92969930Y-94769500D01*
X92967662Y-94769665D01*
X92967650Y-94769665D01*
X92833397Y-94779406D01*
X92764917Y-94784375D01*
X92760462Y-94785359D01*
X92760459Y-94785359D01*
X92500053Y-94842852D01*
X92500050Y-94842853D01*
X92495597Y-94843836D01*
X92237681Y-94941551D01*
X91996572Y-95075475D01*
X91777322Y-95242802D01*
X91774129Y-95246068D01*
X91774127Y-95246070D01*
X91587717Y-95436758D01*
X91587713Y-95436763D01*
X91584523Y-95440026D01*
X91422213Y-95663016D01*
X91293794Y-95907101D01*
X91201955Y-96167168D01*
X91201075Y-96171634D01*
X91164587Y-96356760D01*
X91148620Y-96437768D01*
X91148393Y-96442322D01*
X91148393Y-96442324D01*
X91138825Y-96634518D01*
X91134906Y-96713233D01*
X91161102Y-96987792D01*
X91162187Y-96992226D01*
X91162188Y-96992232D01*
X91205288Y-97168366D01*
X91226657Y-97255694D01*
X91330199Y-97511326D01*
X91332500Y-97515256D01*
X91332503Y-97515262D01*
X91467255Y-97745403D01*
X91467260Y-97745410D01*
X91469558Y-97749335D01*
X91472405Y-97752895D01*
X91521533Y-97814326D01*
X91548457Y-97880019D01*
X91535592Y-97949840D01*
X91487020Y-98001622D01*
X91423130Y-98019021D01*
X91293934Y-98019021D01*
X91225813Y-97999019D01*
X91204839Y-97982116D01*
X90216701Y-96993979D01*
X90215773Y-96993042D01*
X90160169Y-96936261D01*
X90160168Y-96936260D01*
X90155240Y-96931228D01*
X90149321Y-96927414D01*
X90149318Y-96927411D01*
X90120503Y-96908841D01*
X90110150Y-96901402D01*
X90103139Y-96895805D01*
X90077860Y-96875625D01*
X90071523Y-96872562D01*
X90071519Y-96872559D01*
X90049191Y-96861766D01*
X90035774Y-96854237D01*
X90014920Y-96840798D01*
X90008996Y-96836980D01*
X89970149Y-96822841D01*
X89958428Y-96817890D01*
X89921220Y-96799903D01*
X89914356Y-96798318D01*
X89914355Y-96798318D01*
X89890193Y-96792740D01*
X89875440Y-96788370D01*
X89872629Y-96787347D01*
X89845507Y-96777475D01*
X89804489Y-96772293D01*
X89791965Y-96770062D01*
X89751698Y-96760765D01*
X89744652Y-96760740D01*
X89744648Y-96760740D01*
X89712761Y-96760629D01*
X89711941Y-96760602D01*
X89711137Y-96760500D01*
X89676021Y-96760500D01*
X89675581Y-96760499D01*
X89675060Y-96760497D01*
X89577716Y-96760157D01*
X89576557Y-96760416D01*
X89575008Y-96760500D01*
X85017636Y-96760500D01*
X84949515Y-96740498D01*
X84928541Y-96723595D01*
X84888865Y-96683919D01*
X84747398Y-96600256D01*
X84739786Y-96598045D01*
X84739785Y-96598044D01*
X84595754Y-96556199D01*
X84595755Y-96556199D01*
X84589569Y-96554402D01*
X84576416Y-96553367D01*
X84555153Y-96551693D01*
X84555140Y-96551692D01*
X84552694Y-96551500D01*
X83171306Y-96551500D01*
X83168860Y-96551692D01*
X83168847Y-96551693D01*
X83147584Y-96553367D01*
X83134431Y-96554402D01*
X83128245Y-96556199D01*
X83128246Y-96556199D01*
X82984215Y-96598044D01*
X82984214Y-96598045D01*
X82976602Y-96600256D01*
X82835135Y-96683919D01*
X82718919Y-96800135D01*
X82714885Y-96806956D01*
X82655895Y-96906704D01*
X82635256Y-96941602D01*
X82589402Y-97099431D01*
X82588897Y-97105850D01*
X82586693Y-97133847D01*
X82586692Y-97133860D01*
X82586500Y-97136306D01*
X82586500Y-97967694D01*
X82586692Y-97970140D01*
X82586693Y-97970153D01*
X82588367Y-97991416D01*
X82589402Y-98004569D01*
X82599233Y-98038407D01*
X82631623Y-98149892D01*
X82635256Y-98162398D01*
X82639291Y-98169220D01*
X82639291Y-98169221D01*
X82693856Y-98261485D01*
X82718919Y-98303865D01*
X82835135Y-98420081D01*
X82841956Y-98424115D01*
X82961051Y-98494547D01*
X82976602Y-98503744D01*
X82984216Y-98505956D01*
X82990222Y-98508555D01*
X83044797Y-98553965D01*
X83066158Y-98621672D01*
X83047523Y-98690179D01*
X83013925Y-98725721D01*
X83013056Y-98726203D01*
X83008213Y-98730354D01*
X83008210Y-98730356D01*
X82975280Y-98758581D01*
X82858729Y-98858477D01*
X82734152Y-99019081D01*
X82685903Y-99117137D01*
X82656963Y-99175951D01*
X82644413Y-99201455D01*
X82642804Y-99207633D01*
X82642803Y-99207635D01*
X82602198Y-99363521D01*
X82593178Y-99398148D01*
X82592844Y-99404527D01*
X82586754Y-99520740D01*
X82582541Y-99601126D01*
X82612935Y-99802097D01*
X82683119Y-99992852D01*
X82686479Y-99998272D01*
X82686480Y-99998273D01*
X82786863Y-100160176D01*
X82786866Y-100160180D01*
X82790226Y-100165599D01*
X82929881Y-100313280D01*
X82935114Y-100316944D01*
X82935116Y-100316946D01*
X83032770Y-100385324D01*
X83077099Y-100440781D01*
X83086500Y-100488537D01*
X83086500Y-102141132D01*
X83086493Y-102142452D01*
X83085588Y-102228865D01*
X83087077Y-102235751D01*
X83087077Y-102235753D01*
X83094320Y-102269251D01*
X83096381Y-102281834D01*
X83100987Y-102322898D01*
X83111462Y-102352976D01*
X83115623Y-102367781D01*
X83122355Y-102398919D01*
X83139824Y-102436381D01*
X83144615Y-102448182D01*
X83158204Y-102487203D01*
X83161937Y-102493177D01*
X83161938Y-102493179D01*
X83175081Y-102514212D01*
X83182422Y-102527732D01*
X83195883Y-102556599D01*
X83200197Y-102562160D01*
X83221208Y-102589248D01*
X83228502Y-102599704D01*
X83250400Y-102634748D01*
X83277859Y-102662399D01*
X83278392Y-102662969D01*
X83278894Y-102663616D01*
X83303777Y-102688499D01*
X83372994Y-102758201D01*
X83373994Y-102758836D01*
X83375157Y-102759879D01*
X86558682Y-105943405D01*
X86592708Y-106005717D01*
X86587643Y-106076533D01*
X86545096Y-106133368D01*
X86478576Y-106158179D01*
X86469587Y-106158500D01*
X80272915Y-106158500D01*
X80271596Y-106158493D01*
X80185135Y-106157588D01*
X80178249Y-106159077D01*
X80178247Y-106159077D01*
X80144749Y-106166320D01*
X80132166Y-106168381D01*
X80091102Y-106172987D01*
X80068197Y-106180963D01*
X80061024Y-106183461D01*
X80046217Y-106187623D01*
X80015082Y-106194355D01*
X79977622Y-106211823D01*
X79965818Y-106216615D01*
X79933454Y-106227885D01*
X79933448Y-106227888D01*
X79926797Y-106230204D01*
X79920823Y-106233937D01*
X79920821Y-106233938D01*
X79899788Y-106247081D01*
X79886268Y-106254422D01*
X79871917Y-106261114D01*
X79857401Y-106267883D01*
X79851837Y-106272199D01*
X79851835Y-106272200D01*
X79824754Y-106293206D01*
X79814300Y-106300500D01*
X79779252Y-106322400D01*
X79751611Y-106349849D01*
X79751033Y-106350390D01*
X79750384Y-106350893D01*
X79725361Y-106375916D01*
X79655799Y-106444994D01*
X79655164Y-106445995D01*
X79654128Y-106447149D01*
X79275392Y-106825886D01*
X78914067Y-107187211D01*
X78851754Y-107221236D01*
X78824971Y-107224116D01*
X78547955Y-107224116D01*
X78479834Y-107204114D01*
X78472831Y-107199271D01*
X78328185Y-107091847D01*
X78328184Y-107091846D01*
X78323060Y-107088041D01*
X78278122Y-107067086D01*
X78225765Y-107042671D01*
X78172480Y-106995753D01*
X78153019Y-106927476D01*
X78173561Y-106859516D01*
X78214646Y-106823156D01*
X78213487Y-106821399D01*
X78220102Y-106817038D01*
X78227216Y-106813537D01*
X78233232Y-106808381D01*
X78233236Y-106808378D01*
X78345984Y-106711741D01*
X78345986Y-106711739D01*
X78352005Y-106706580D01*
X78446275Y-106571949D01*
X78493995Y-106444994D01*
X78501313Y-106425525D01*
X78501314Y-106425522D01*
X78504102Y-106418104D01*
X78521852Y-106254710D01*
X78521118Y-106247081D01*
X78518545Y-106220363D01*
X78518307Y-106217891D01*
X78373937Y-105399133D01*
X78364676Y-105363321D01*
X78361832Y-105357541D01*
X78361830Y-105357536D01*
X78295613Y-105222967D01*
X78292112Y-105215852D01*
X78185155Y-105091064D01*
X78050524Y-104996794D01*
X78043104Y-104994005D01*
X78043102Y-104994004D01*
X77904100Y-104941756D01*
X77904097Y-104941755D01*
X77896679Y-104938967D01*
X77888801Y-104938111D01*
X77888800Y-104938111D01*
X77859880Y-104934969D01*
X77733286Y-104921217D01*
X77726878Y-104921834D01*
X77726874Y-104921834D01*
X77699595Y-104924461D01*
X77696467Y-104924762D01*
X76336064Y-105164639D01*
X76300252Y-105173899D01*
X76294471Y-105176744D01*
X76294470Y-105176744D01*
X76273796Y-105186917D01*
X76152784Y-105246463D01*
X76146768Y-105251619D01*
X76146764Y-105251622D01*
X76034016Y-105348259D01*
X76027995Y-105353420D01*
X75978753Y-105423744D01*
X75961145Y-105448892D01*
X75933725Y-105488051D01*
X75930936Y-105495471D01*
X75930935Y-105495473D01*
X75912868Y-105543541D01*
X75875898Y-105641896D01*
X75875042Y-105649774D01*
X75875042Y-105649775D01*
X75874134Y-105658135D01*
X75858148Y-105805290D01*
X75517199Y-105805290D01*
X75216942Y-103975028D01*
X75215280Y-103954673D01*
X75215276Y-103943998D01*
X75215273Y-103934083D01*
X75212207Y-103924659D01*
X75212206Y-103924651D01*
X75209682Y-103916893D01*
X75204764Y-103895708D01*
X75141765Y-103454017D01*
X75099049Y-103154523D01*
X75098553Y-103150605D01*
X75012092Y-102369143D01*
X75011718Y-102365194D01*
X74949900Y-101581411D01*
X74949650Y-101577452D01*
X74940569Y-101385309D01*
X74912531Y-100792034D01*
X74912408Y-100788091D01*
X74912247Y-100777817D01*
X74903048Y-100193529D01*
X74900624Y-100039544D01*
X74902159Y-100017854D01*
X74903435Y-100009796D01*
X74903435Y-100009793D01*
X74904986Y-100000000D01*
X74903241Y-99988982D01*
X74901848Y-99962993D01*
X74902988Y-99940167D01*
X76176087Y-99940167D01*
X76177306Y-99971205D01*
X76185031Y-100167809D01*
X76186650Y-100209028D01*
X76195373Y-100256790D01*
X76218039Y-100380895D01*
X76234991Y-100473718D01*
X76320145Y-100728956D01*
X76440413Y-100969649D01*
X76442938Y-100973303D01*
X76442939Y-100973304D01*
X76509498Y-101069607D01*
X76593395Y-101190995D01*
X76776038Y-101388578D01*
X76779492Y-101391390D01*
X76981243Y-101555641D01*
X76981247Y-101555644D01*
X76984700Y-101558455D01*
X76988522Y-101560756D01*
X77144422Y-101654615D01*
X77215215Y-101697236D01*
X77311761Y-101738118D01*
X77458882Y-101800417D01*
X77458887Y-101800419D01*
X77462985Y-101802154D01*
X77467282Y-101803293D01*
X77467287Y-101803295D01*
X77718766Y-101869973D01*
X77723066Y-101871113D01*
X77727483Y-101871636D01*
X77727484Y-101871636D01*
X77809957Y-101881397D01*
X77990269Y-101902738D01*
X78259263Y-101896399D01*
X78263658Y-101895667D01*
X78263663Y-101895667D01*
X78520277Y-101852955D01*
X78520281Y-101852954D01*
X78524679Y-101852222D01*
X78691554Y-101799447D01*
X78776977Y-101772431D01*
X78776979Y-101772430D01*
X78781223Y-101771088D01*
X79023776Y-101654615D01*
X79139259Y-101577452D01*
X79243790Y-101507607D01*
X79243794Y-101507604D01*
X79247498Y-101505129D01*
X79250815Y-101502158D01*
X79250819Y-101502155D01*
X79444607Y-101328584D01*
X79444608Y-101328583D01*
X79447925Y-101325612D01*
X79621058Y-101119645D01*
X79634251Y-101098492D01*
X79712325Y-100973304D01*
X79763444Y-100891338D01*
X79779571Y-100854861D01*
X79870442Y-100649313D01*
X79872240Y-100645246D01*
X79945276Y-100386280D01*
X79955704Y-100308639D01*
X79980667Y-100122789D01*
X79980668Y-100122781D01*
X79981094Y-100119607D01*
X79984292Y-100017854D01*
X79984752Y-100003222D01*
X79984752Y-100003217D01*
X79984853Y-100000000D01*
X79978359Y-99908272D01*
X79966165Y-99736053D01*
X79965850Y-99731604D01*
X79958933Y-99699473D01*
X79910155Y-99472915D01*
X79909218Y-99468563D01*
X79889714Y-99415693D01*
X79817630Y-99220303D01*
X79816089Y-99216126D01*
X79794412Y-99175951D01*
X79690434Y-98983245D01*
X79690434Y-98983244D01*
X79688321Y-98979329D01*
X79528462Y-98762897D01*
X79524214Y-98758581D01*
X79395334Y-98627662D01*
X79339702Y-98571149D01*
X79336163Y-98568448D01*
X79336156Y-98568442D01*
X79156105Y-98431032D01*
X79125808Y-98407910D01*
X79019555Y-98348405D01*
X78894933Y-98278613D01*
X78894930Y-98278612D01*
X78891047Y-98276437D01*
X78886908Y-98274836D01*
X78886900Y-98274832D01*
X78701034Y-98202927D01*
X78640104Y-98179355D01*
X78635779Y-98178352D01*
X78635774Y-98178351D01*
X78445059Y-98134146D01*
X78377985Y-98118599D01*
X78109920Y-98095382D01*
X78105485Y-98095626D01*
X78105481Y-98095626D01*
X77996438Y-98101627D01*
X77841259Y-98110167D01*
X77577361Y-98162660D01*
X77433133Y-98213309D01*
X77327700Y-98250334D01*
X77327697Y-98250335D01*
X77323492Y-98251812D01*
X77319539Y-98253865D01*
X77319533Y-98253868D01*
X77236417Y-98297044D01*
X77084717Y-98375846D01*
X77081102Y-98378429D01*
X77081096Y-98378433D01*
X77030661Y-98414475D01*
X76865801Y-98532286D01*
X76862574Y-98535364D01*
X76862572Y-98535366D01*
X76700286Y-98690179D01*
X76671111Y-98718010D01*
X76668355Y-98721506D01*
X76639128Y-98758581D01*
X76504533Y-98929314D01*
X76449069Y-99024802D01*
X76371627Y-99158127D01*
X76371624Y-99158133D01*
X76369389Y-99161981D01*
X76349045Y-99212208D01*
X76270050Y-99407236D01*
X76270047Y-99407244D01*
X76268377Y-99411368D01*
X76203512Y-99672500D01*
X76176087Y-99940167D01*
X74902988Y-99940167D01*
X74914378Y-99712034D01*
X74915503Y-99689510D01*
X74916754Y-99677011D01*
X74927245Y-99607444D01*
X74949160Y-99462116D01*
X74962170Y-99375838D01*
X74964661Y-99363521D01*
X74998157Y-99232033D01*
X75039851Y-99068369D01*
X75043554Y-99056366D01*
X75056836Y-99019893D01*
X75147778Y-98770154D01*
X75152659Y-98758581D01*
X75166259Y-98730356D01*
X75284863Y-98484199D01*
X75290874Y-98473166D01*
X75323332Y-98420081D01*
X75449757Y-98213308D01*
X75456839Y-98202927D01*
X75640820Y-97960185D01*
X75648901Y-97950561D01*
X75649571Y-97949840D01*
X75832431Y-97752895D01*
X75856140Y-97727360D01*
X75865139Y-97718589D01*
X76093581Y-97517141D01*
X76103410Y-97509309D01*
X76110295Y-97504364D01*
X76325804Y-97349562D01*
X76348401Y-97336642D01*
X76349528Y-97336144D01*
X76349529Y-97336143D01*
X76358599Y-97332137D01*
X76374960Y-97317492D01*
X76390682Y-97305501D01*
X82014305Y-93676938D01*
X82031704Y-93667557D01*
X82051792Y-93658684D01*
X82059180Y-93652071D01*
X82059183Y-93652069D01*
X82065310Y-93646585D01*
X82079471Y-93635618D01*
X82305162Y-93485216D01*
X82305172Y-93485209D01*
X82305966Y-93484680D01*
X82557056Y-93306396D01*
X82774226Y-93142315D01*
X82789249Y-93132561D01*
X82796444Y-93128586D01*
X82796446Y-93128585D01*
X82805122Y-93123791D01*
X82809373Y-93119245D01*
X83022936Y-92931044D01*
X83025468Y-92928200D01*
X83025474Y-92928194D01*
X83213770Y-92716690D01*
X83216310Y-92713837D01*
X83253575Y-92660108D01*
X83379872Y-92478008D01*
X83379874Y-92478004D01*
X83382046Y-92474873D01*
X83454330Y-92337828D01*
X83515939Y-92221022D01*
X83515940Y-92221020D01*
X83517719Y-92217647D01*
X83621345Y-91945923D01*
X83691408Y-91663676D01*
X83726883Y-91375034D01*
X83727251Y-91084221D01*
X83692507Y-90795491D01*
X83623158Y-90513067D01*
X83520219Y-90241082D01*
X83385197Y-89983514D01*
X83383039Y-89980386D01*
X83383035Y-89980379D01*
X83222227Y-89747264D01*
X83220066Y-89744131D01*
X83031315Y-89531034D01*
X83027666Y-89526011D01*
X83009328Y-89512687D01*
X82994542Y-89500093D01*
X81860362Y-88371966D01*
X81357587Y-87871875D01*
X81354993Y-87869216D01*
X81222038Y-87728935D01*
X81211555Y-87716324D01*
X81200305Y-87700841D01*
X81200304Y-87700840D01*
X81194479Y-87692823D01*
X81186463Y-87686999D01*
X81179446Y-87679982D01*
X81180082Y-87679346D01*
X81168770Y-87668532D01*
X81126897Y-87616025D01*
X81116032Y-87602401D01*
X81101021Y-87578511D01*
X81064575Y-87502828D01*
X81055046Y-87483042D01*
X81045728Y-87456412D01*
X81022149Y-87353104D01*
X81018990Y-87325067D01*
X81018990Y-87219101D01*
X81022149Y-87191064D01*
X81045728Y-87087756D01*
X81055047Y-87061124D01*
X81101022Y-86965655D01*
X81116033Y-86941765D01*
X81168771Y-86875635D01*
X81180080Y-86864823D01*
X81179444Y-86864187D01*
X81186459Y-86857172D01*
X81194479Y-86851345D01*
X81200306Y-86843325D01*
X81200308Y-86843323D01*
X81207389Y-86833576D01*
X81220230Y-86818542D01*
X81545963Y-86492809D01*
X81608275Y-86458783D01*
X81679090Y-86463848D01*
X81735926Y-86506395D01*
X81760737Y-86572915D01*
X81749437Y-86634756D01*
X81744711Y-86644983D01*
X81744709Y-86644989D01*
X81742035Y-86650776D01*
X81722465Y-86734213D01*
X81699160Y-86833576D01*
X81695621Y-86848663D01*
X81694561Y-86886623D01*
X81692353Y-86965657D01*
X81689945Y-87051840D01*
X81691054Y-87058127D01*
X81714495Y-87191064D01*
X81725241Y-87252008D01*
X81800065Y-87440992D01*
X81803564Y-87446339D01*
X81890055Y-87578511D01*
X81911360Y-87611069D01*
X81914598Y-87614665D01*
X81914724Y-87614806D01*
X81914734Y-87614816D01*
X81915822Y-87616025D01*
X82410274Y-88110476D01*
X82528216Y-88206668D01*
X82708343Y-88300837D01*
X82903726Y-88356861D01*
X82994519Y-88363847D01*
X83100024Y-88371966D01*
X83100028Y-88371966D01*
X83106384Y-88372455D01*
X83147292Y-88367287D01*
X83301707Y-88347780D01*
X83301710Y-88347779D01*
X83308037Y-88346980D01*
X83359059Y-88329611D01*
X83494415Y-88283532D01*
X83494419Y-88283530D01*
X83500450Y-88281477D01*
X83675762Y-88178623D01*
X83826810Y-88042617D01*
X83889669Y-87957358D01*
X83943639Y-87884155D01*
X83943640Y-87884153D01*
X83947426Y-87879018D01*
X84032683Y-87694506D01*
X84079097Y-87496619D01*
X84084773Y-87293442D01*
X84068239Y-87199673D01*
X84050585Y-87099555D01*
X84050584Y-87099551D01*
X84049477Y-87093274D01*
X84047130Y-87087346D01*
X84047128Y-87087339D01*
X84042085Y-87074603D01*
X84035604Y-87003903D01*
X84068376Y-86940922D01*
X84129996Y-86905658D01*
X84193965Y-86907099D01*
X84311804Y-86940888D01*
X84311808Y-86940889D01*
X84317940Y-86942647D01*
X84408733Y-86949633D01*
X84514238Y-86957752D01*
X84514242Y-86957752D01*
X84520598Y-86958241D01*
X84563161Y-86952864D01*
X84715921Y-86933566D01*
X84715924Y-86933565D01*
X84722251Y-86932766D01*
X84801880Y-86905658D01*
X84908629Y-86869318D01*
X84908633Y-86869316D01*
X84914664Y-86867263D01*
X85089976Y-86764409D01*
X85216177Y-86650776D01*
X85236281Y-86632674D01*
X85236283Y-86632672D01*
X85241024Y-86628403D01*
X85244813Y-86623264D01*
X85357853Y-86469941D01*
X85357854Y-86469939D01*
X85361640Y-86464804D01*
X85446897Y-86280292D01*
X85493311Y-86082405D01*
X85494903Y-86025410D01*
X85498809Y-85885610D01*
X85498809Y-85885607D01*
X85498987Y-85879228D01*
X85463691Y-85679060D01*
X85456298Y-85660387D01*
X85449820Y-85589686D01*
X85482594Y-85526707D01*
X85544214Y-85491444D01*
X85608180Y-85492886D01*
X85732153Y-85528434D01*
X85822946Y-85535420D01*
X85928451Y-85543539D01*
X85928455Y-85543539D01*
X85934811Y-85544028D01*
X85975719Y-85538860D01*
X86130134Y-85519353D01*
X86130137Y-85519352D01*
X86136464Y-85518553D01*
X86216096Y-85491444D01*
X86322842Y-85455105D01*
X86322846Y-85455103D01*
X86328877Y-85453050D01*
X86504189Y-85350196D01*
X86630391Y-85236562D01*
X86650494Y-85218461D01*
X86650496Y-85218459D01*
X86655237Y-85214190D01*
X86775853Y-85050591D01*
X86861110Y-84866079D01*
X86907524Y-84668192D01*
X86909896Y-84583288D01*
X86913022Y-84471397D01*
X86913022Y-84471394D01*
X86913200Y-84465015D01*
X86894558Y-84359293D01*
X86902427Y-84288734D01*
X86947194Y-84233630D01*
X87014646Y-84211476D01*
X87067994Y-84224277D01*
X87068769Y-84222319D01*
X87076142Y-84225238D01*
X87083087Y-84229056D01*
X87242277Y-84269929D01*
X87406631Y-84269929D01*
X87414306Y-84267958D01*
X87414309Y-84267958D01*
X87558146Y-84231027D01*
X87558147Y-84231027D01*
X87565822Y-84229056D01*
X87709847Y-84149878D01*
X87724406Y-84137443D01*
X87736092Y-84127463D01*
X87736101Y-84127455D01*
X87737974Y-84125855D01*
X88325854Y-83537974D01*
X88349878Y-83509847D01*
X88429056Y-83365822D01*
X88443341Y-83310187D01*
X88467958Y-83214309D01*
X88467958Y-83214306D01*
X88469929Y-83206631D01*
X88469929Y-83042277D01*
X88429056Y-82883087D01*
X88349878Y-82739061D01*
X88325855Y-82710935D01*
X87349065Y-81734146D01*
X87320939Y-81710122D01*
X87176913Y-81630944D01*
X87017723Y-81590071D01*
X86853369Y-81590071D01*
X86845693Y-81592042D01*
X86845684Y-81592043D01*
X86755015Y-81615323D01*
X86684060Y-81612891D01*
X86625684Y-81572483D01*
X86598421Y-81506930D01*
X86610927Y-81437043D01*
X86634585Y-81404187D01*
X86818539Y-81220233D01*
X86833573Y-81207392D01*
X86843316Y-81200313D01*
X86851338Y-81194485D01*
X86857166Y-81186464D01*
X86864180Y-81179450D01*
X86864816Y-81180086D01*
X86875629Y-81168776D01*
X86941758Y-81116039D01*
X86965648Y-81101028D01*
X87061119Y-81055052D01*
X87087748Y-81045734D01*
X87191058Y-81022155D01*
X87219094Y-81018996D01*
X87325060Y-81018996D01*
X87353096Y-81022155D01*
G37*
%TD.AperFunction*%
M02*
