%TF.GenerationSoftware,KiCad,Pcbnew,(6.0.0)*%
%TF.CreationDate,2022-01-12T17:49:16+01:00*%
%TF.ProjectId,v0_miniAB_pancake_board,76305f6d-696e-4694-9142-5f70616e6361,rev?*%
%TF.SameCoordinates,Original*%
%TF.FileFunction,Profile,NP*%
%FSLAX46Y46*%
G04 Gerber Fmt 4.6, Leading zero omitted, Abs format (unit mm)*
G04 Created by KiCad (PCBNEW (6.0.0)) date 2022-01-12 17:49:16*
%MOMM*%
%LPD*%
G01*
G04 APERTURE LIST*
%TA.AperFunction,Profile*%
%ADD10C,0.200000*%
%TD*%
G04 APERTURE END LIST*
D10*
X82741298Y-89812379D02*
X81070000Y-88150000D01*
X80908110Y-87979191D02*
X81070000Y-88150000D01*
X75800000Y-110000000D02*
X74815294Y-103997572D01*
X124200000Y-110200000D02*
X125200000Y-104000000D01*
X75800001Y-110000000D02*
G75*
G03*
X77278608Y-110990272I1210783J208846D01*
G01*
X118167779Y-93318387D02*
X123871958Y-96974815D01*
X125200000Y-104000000D02*
G75*
G03*
X125514702Y-100199994I-25200033J4000005D01*
G01*
X90287892Y-83216824D02*
G75*
G03*
X92531895Y-83622350I1414214J1414211D01*
G01*
X123420000Y-100000000D02*
G75*
G03*
X123420000Y-100000000I-1500000J0D01*
G01*
X116970562Y-110000000D02*
X123045421Y-111009491D01*
X76139027Y-96991840D02*
G75*
G03*
X74500000Y-100000000I1940974J-3008160D01*
G01*
X87979184Y-80908116D02*
G75*
G03*
X86564970Y-80908116I-707107J-707108D01*
G01*
X123045421Y-111009491D02*
G75*
G03*
X124200000Y-110200000I145734J1020274D01*
G01*
X125514703Y-100199994D02*
G75*
G03*
X123871958Y-96974815I-3594705J199993D01*
G01*
X116970562Y-110000000D02*
G75*
G03*
X113885006Y-111454545I1J-4000002D01*
G01*
X115164672Y-90302954D02*
G75*
G03*
X118167779Y-93318387I8424837J5387267D01*
G01*
X82556229Y-92804313D02*
G75*
G03*
X82741298Y-89812379I-1229145J1577721D01*
G01*
X86114994Y-111454545D02*
G75*
G03*
X83029437Y-110000000I-3085557J-2545457D01*
G01*
X115164672Y-90302954D02*
G75*
G03*
X92531895Y-83622351I-15164671J-9697044D01*
G01*
X77278608Y-110990272D02*
X83029437Y-110000000D01*
X79580000Y-100000000D02*
G75*
G03*
X79580000Y-100000000I-1500000J0D01*
G01*
X80908110Y-86564977D02*
G75*
G03*
X80908110Y-87979191I707108J-707107D01*
G01*
X90287892Y-83216824D02*
X87979184Y-80908116D01*
X76139027Y-96991840D02*
X81832220Y-93318387D01*
X81832220Y-93318387D02*
G75*
G03*
X82556229Y-92804313I-5421813J8402821D01*
G01*
X74500000Y-100000000D02*
G75*
G03*
X74815294Y-103997572I25500099J8D01*
G01*
X86114994Y-111454545D02*
G75*
G03*
X113885005Y-111454546I13885006J11454544D01*
G01*
X86564971Y-80908116D02*
X80908110Y-86564977D01*
M02*
