%TF.GenerationSoftware,KiCad,Pcbnew,(6.0.0)*%
%TF.CreationDate,2022-01-12T17:49:16+01:00*%
%TF.ProjectId,v0_miniAB_pancake_board,76305f6d-696e-4694-9142-5f70616e6361,rev?*%
%TF.SameCoordinates,Original*%
%TF.FileFunction,Legend,Top*%
%TF.FilePolarity,Positive*%
%FSLAX46Y46*%
G04 Gerber Fmt 4.6, Leading zero omitted, Abs format (unit mm)*
G04 Created by KiCad (PCBNEW (6.0.0)) date 2022-01-12 17:49:16*
%MOMM*%
%LPD*%
G01*
G04 APERTURE LIST*
%ADD10C,0.150000*%
%ADD11C,0.110000*%
%ADD12C,0.400000*%
%ADD13C,0.120000*%
%ADD14C,0.100000*%
G04 APERTURE END LIST*
D10*
X94956952Y-88098380D02*
X95528380Y-88098380D01*
X95242666Y-89098380D02*
X95242666Y-88098380D01*
X96004571Y-89098380D02*
X95909333Y-89050761D01*
X95861714Y-89003142D01*
X95814095Y-88907904D01*
X95814095Y-88622190D01*
X95861714Y-88526952D01*
X95909333Y-88479333D01*
X96004571Y-88431714D01*
X96147428Y-88431714D01*
X96242666Y-88479333D01*
X96290285Y-88526952D01*
X96337904Y-88622190D01*
X96337904Y-88907904D01*
X96290285Y-89003142D01*
X96242666Y-89050761D01*
X96147428Y-89098380D01*
X96004571Y-89098380D01*
X96909333Y-89098380D02*
X96814095Y-89050761D01*
X96766476Y-89003142D01*
X96718857Y-88907904D01*
X96718857Y-88622190D01*
X96766476Y-88526952D01*
X96814095Y-88479333D01*
X96909333Y-88431714D01*
X97052190Y-88431714D01*
X97147428Y-88479333D01*
X97195047Y-88526952D01*
X97242666Y-88622190D01*
X97242666Y-88907904D01*
X97195047Y-89003142D01*
X97147428Y-89050761D01*
X97052190Y-89098380D01*
X96909333Y-89098380D01*
X97814095Y-89098380D02*
X97718857Y-89050761D01*
X97671238Y-88955523D01*
X97671238Y-88098380D01*
X98195047Y-89098380D02*
X98195047Y-88098380D01*
X98623619Y-89098380D02*
X98623619Y-88574571D01*
X98576000Y-88479333D01*
X98480761Y-88431714D01*
X98337904Y-88431714D01*
X98242666Y-88479333D01*
X98195047Y-88526952D01*
X99480761Y-89050761D02*
X99385523Y-89098380D01*
X99195047Y-89098380D01*
X99099809Y-89050761D01*
X99052190Y-88955523D01*
X99052190Y-88574571D01*
X99099809Y-88479333D01*
X99195047Y-88431714D01*
X99385523Y-88431714D01*
X99480761Y-88479333D01*
X99528380Y-88574571D01*
X99528380Y-88669809D01*
X99052190Y-88765047D01*
X100385523Y-89098380D02*
X100385523Y-88574571D01*
X100337904Y-88479333D01*
X100242666Y-88431714D01*
X100052190Y-88431714D01*
X99956952Y-88479333D01*
X100385523Y-89050761D02*
X100290285Y-89098380D01*
X100052190Y-89098380D01*
X99956952Y-89050761D01*
X99909333Y-88955523D01*
X99909333Y-88860285D01*
X99956952Y-88765047D01*
X100052190Y-88717428D01*
X100290285Y-88717428D01*
X100385523Y-88669809D01*
X101290285Y-89098380D02*
X101290285Y-88098380D01*
X101290285Y-89050761D02*
X101195047Y-89098380D01*
X101004571Y-89098380D01*
X100909333Y-89050761D01*
X100861714Y-89003142D01*
X100814095Y-88907904D01*
X100814095Y-88622190D01*
X100861714Y-88526952D01*
X100909333Y-88479333D01*
X101004571Y-88431714D01*
X101195047Y-88431714D01*
X101290285Y-88479333D01*
X102528380Y-89098380D02*
X102528380Y-88098380D01*
X102909333Y-88098380D01*
X103004571Y-88146000D01*
X103052190Y-88193619D01*
X103099809Y-88288857D01*
X103099809Y-88431714D01*
X103052190Y-88526952D01*
X103004571Y-88574571D01*
X102909333Y-88622190D01*
X102528380Y-88622190D01*
X104099809Y-89003142D02*
X104052190Y-89050761D01*
X103909333Y-89098380D01*
X103814095Y-89098380D01*
X103671238Y-89050761D01*
X103576000Y-88955523D01*
X103528380Y-88860285D01*
X103480761Y-88669809D01*
X103480761Y-88526952D01*
X103528380Y-88336476D01*
X103576000Y-88241238D01*
X103671238Y-88146000D01*
X103814095Y-88098380D01*
X103909333Y-88098380D01*
X104052190Y-88146000D01*
X104099809Y-88193619D01*
X104861714Y-88574571D02*
X105004571Y-88622190D01*
X105052190Y-88669809D01*
X105099809Y-88765047D01*
X105099809Y-88907904D01*
X105052190Y-89003142D01*
X105004571Y-89050761D01*
X104909333Y-89098380D01*
X104528380Y-89098380D01*
X104528380Y-88098380D01*
X104861714Y-88098380D01*
X104956952Y-88146000D01*
X105004571Y-88193619D01*
X105052190Y-88288857D01*
X105052190Y-88384095D01*
X105004571Y-88479333D01*
X104956952Y-88526952D01*
X104861714Y-88574571D01*
X104528380Y-88574571D01*
D11*
X108744000Y-111749535D02*
X108744000Y-110999535D01*
X108744000Y-111356678D02*
X109172571Y-111356678D01*
X109172571Y-111749535D02*
X109172571Y-110999535D01*
X109672571Y-110999535D02*
X109815428Y-110999535D01*
X109886857Y-111035250D01*
X109958285Y-111106678D01*
X109994000Y-111249535D01*
X109994000Y-111499535D01*
X109958285Y-111642392D01*
X109886857Y-111713821D01*
X109815428Y-111749535D01*
X109672571Y-111749535D01*
X109601142Y-111713821D01*
X109529714Y-111642392D01*
X109494000Y-111499535D01*
X109494000Y-111249535D01*
X109529714Y-111106678D01*
X109601142Y-111035250D01*
X109672571Y-110999535D01*
X110208285Y-110999535D02*
X110636857Y-110999535D01*
X110422571Y-111749535D02*
X110422571Y-110999535D01*
X110886857Y-111356678D02*
X111136857Y-111356678D01*
X111244000Y-111749535D02*
X110886857Y-111749535D01*
X110886857Y-110999535D01*
X111244000Y-110999535D01*
X111565428Y-111749535D02*
X111565428Y-110999535D01*
X111994000Y-111749535D01*
X111994000Y-110999535D01*
X112351142Y-111749535D02*
X112351142Y-110999535D01*
X112529714Y-110999535D01*
X112636857Y-111035250D01*
X112708285Y-111106678D01*
X112744000Y-111178107D01*
X112779714Y-111320964D01*
X112779714Y-111428107D01*
X112744000Y-111570964D01*
X112708285Y-111642392D01*
X112636857Y-111713821D01*
X112529714Y-111749535D01*
X112351142Y-111749535D01*
X110136857Y-112564178D02*
X109886857Y-112564178D01*
X109886857Y-112957035D02*
X109886857Y-112207035D01*
X110244000Y-112207035D01*
X110494000Y-112742750D02*
X110851142Y-112742750D01*
X110422571Y-112957035D02*
X110672571Y-112207035D01*
X110922571Y-112957035D01*
X111172571Y-112957035D02*
X111172571Y-112207035D01*
X111601142Y-112957035D01*
X111601142Y-112207035D01*
X96111714Y-90521285D02*
X96540285Y-90521285D01*
X96326000Y-91271285D02*
X96326000Y-90521285D01*
X96897428Y-91271285D02*
X96826000Y-91235571D01*
X96790285Y-91199857D01*
X96754571Y-91128428D01*
X96754571Y-90914142D01*
X96790285Y-90842714D01*
X96826000Y-90807000D01*
X96897428Y-90771285D01*
X97004571Y-90771285D01*
X97076000Y-90807000D01*
X97111714Y-90842714D01*
X97147428Y-90914142D01*
X97147428Y-91128428D01*
X97111714Y-91199857D01*
X97076000Y-91235571D01*
X97004571Y-91271285D01*
X96897428Y-91271285D01*
X98290285Y-90878428D02*
X98040285Y-90878428D01*
X98040285Y-91271285D02*
X98040285Y-90521285D01*
X98397428Y-90521285D01*
X98683142Y-91271285D02*
X98683142Y-90771285D01*
X98683142Y-90914142D02*
X98718857Y-90842714D01*
X98754571Y-90807000D01*
X98826000Y-90771285D01*
X98897428Y-90771285D01*
X99468857Y-91271285D02*
X99468857Y-90878428D01*
X99433142Y-90807000D01*
X99361714Y-90771285D01*
X99218857Y-90771285D01*
X99147428Y-90807000D01*
X99468857Y-91235571D02*
X99397428Y-91271285D01*
X99218857Y-91271285D01*
X99147428Y-91235571D01*
X99111714Y-91164142D01*
X99111714Y-91092714D01*
X99147428Y-91021285D01*
X99218857Y-90985571D01*
X99397428Y-90985571D01*
X99468857Y-90949857D01*
X99826000Y-91271285D02*
X99826000Y-90771285D01*
X99826000Y-90842714D02*
X99861714Y-90807000D01*
X99933142Y-90771285D01*
X100040285Y-90771285D01*
X100111714Y-90807000D01*
X100147428Y-90878428D01*
X100147428Y-91271285D01*
X100147428Y-90878428D02*
X100183142Y-90807000D01*
X100254571Y-90771285D01*
X100361714Y-90771285D01*
X100433142Y-90807000D01*
X100468857Y-90878428D01*
X100468857Y-91271285D01*
X101111714Y-91235571D02*
X101040285Y-91271285D01*
X100897428Y-91271285D01*
X100826000Y-91235571D01*
X100790285Y-91164142D01*
X100790285Y-90878428D01*
X100826000Y-90807000D01*
X100897428Y-90771285D01*
X101040285Y-90771285D01*
X101111714Y-90807000D01*
X101147428Y-90878428D01*
X101147428Y-90949857D01*
X100790285Y-91021285D01*
X102040285Y-91271285D02*
X102040285Y-90521285D01*
X102326000Y-90521285D01*
X102397428Y-90557000D01*
X102433142Y-90592714D01*
X102468857Y-90664142D01*
X102468857Y-90771285D01*
X102433142Y-90842714D01*
X102397428Y-90878428D01*
X102326000Y-90914142D01*
X102040285Y-90914142D01*
X103218857Y-91199857D02*
X103183142Y-91235571D01*
X103076000Y-91271285D01*
X103004571Y-91271285D01*
X102897428Y-91235571D01*
X102826000Y-91164142D01*
X102790285Y-91092714D01*
X102754571Y-90949857D01*
X102754571Y-90842714D01*
X102790285Y-90699857D01*
X102826000Y-90628428D01*
X102897428Y-90557000D01*
X103004571Y-90521285D01*
X103076000Y-90521285D01*
X103183142Y-90557000D01*
X103218857Y-90592714D01*
X103790285Y-90878428D02*
X103897428Y-90914142D01*
X103933142Y-90949857D01*
X103968857Y-91021285D01*
X103968857Y-91128428D01*
X103933142Y-91199857D01*
X103897428Y-91235571D01*
X103826000Y-91271285D01*
X103540285Y-91271285D01*
X103540285Y-90521285D01*
X103790285Y-90521285D01*
X103861714Y-90557000D01*
X103897428Y-90592714D01*
X103933142Y-90664142D01*
X103933142Y-90735571D01*
X103897428Y-90807000D01*
X103861714Y-90842714D01*
X103790285Y-90878428D01*
X103540285Y-90878428D01*
D10*
X92251450Y-115342106D02*
X92442259Y-114360479D01*
X92351398Y-114827921D02*
X92912328Y-114936954D01*
X92812380Y-115451140D02*
X93003189Y-114469513D01*
X93662861Y-115567947D02*
X93560286Y-115596518D01*
X93373310Y-115560174D01*
X93288908Y-115495257D01*
X93260336Y-115392683D01*
X93333025Y-115018730D01*
X93397941Y-114934328D01*
X93500516Y-114905756D01*
X93687492Y-114942100D01*
X93771895Y-115007017D01*
X93800466Y-115109591D01*
X93782294Y-115203079D01*
X93296680Y-115205706D01*
X94541914Y-115787327D02*
X94641861Y-115273142D01*
X94613289Y-115170567D01*
X94528887Y-115105651D01*
X94341911Y-115069306D01*
X94239336Y-115097878D01*
X94551000Y-115740583D02*
X94448425Y-115769155D01*
X94214705Y-115723724D01*
X94130302Y-115658808D01*
X94101731Y-115556233D01*
X94119903Y-115462745D01*
X94184819Y-115378343D01*
X94287394Y-115349771D01*
X94521114Y-115395202D01*
X94623689Y-115366630D01*
X94996329Y-115196512D02*
X95370282Y-115269201D01*
X95200164Y-114896562D02*
X95036614Y-115737956D01*
X95065185Y-115840531D01*
X95149588Y-115905447D01*
X95243076Y-115923620D01*
X95953324Y-116013167D02*
X95850750Y-116041739D01*
X95663773Y-116005395D01*
X95579371Y-115940478D01*
X95550799Y-115837904D01*
X95623488Y-115463951D01*
X95688405Y-115379549D01*
X95790979Y-115350977D01*
X95977956Y-115387321D01*
X96062358Y-115452238D01*
X96090930Y-115554812D01*
X96072758Y-115648300D01*
X95587144Y-115650927D01*
X96411680Y-116150773D02*
X96538886Y-115496355D01*
X96502541Y-115683332D02*
X96567458Y-115598929D01*
X96623288Y-115561271D01*
X96725862Y-115532700D01*
X96819351Y-115550872D01*
D12*
X92631619Y-85518761D02*
X93298285Y-87518761D01*
X93964952Y-85518761D01*
X95012571Y-85518761D02*
X95393523Y-85518761D01*
X95584000Y-85614000D01*
X95774476Y-85804476D01*
X95869714Y-86185428D01*
X95869714Y-86852095D01*
X95774476Y-87233047D01*
X95584000Y-87423523D01*
X95393523Y-87518761D01*
X95012571Y-87518761D01*
X94822095Y-87423523D01*
X94631619Y-87233047D01*
X94536380Y-86852095D01*
X94536380Y-86185428D01*
X94631619Y-85804476D01*
X94822095Y-85614000D01*
X95012571Y-85518761D01*
X97869714Y-87518761D02*
X97203047Y-86566380D01*
X96726857Y-87518761D02*
X96726857Y-85518761D01*
X97488761Y-85518761D01*
X97679238Y-85614000D01*
X97774476Y-85709238D01*
X97869714Y-85899714D01*
X97869714Y-86185428D01*
X97774476Y-86375904D01*
X97679238Y-86471142D01*
X97488761Y-86566380D01*
X96726857Y-86566380D01*
X99107809Y-85518761D02*
X99488761Y-85518761D01*
X99679238Y-85614000D01*
X99869714Y-85804476D01*
X99964952Y-86185428D01*
X99964952Y-86852095D01*
X99869714Y-87233047D01*
X99679238Y-87423523D01*
X99488761Y-87518761D01*
X99107809Y-87518761D01*
X98917333Y-87423523D01*
X98726857Y-87233047D01*
X98631619Y-86852095D01*
X98631619Y-86185428D01*
X98726857Y-85804476D01*
X98917333Y-85614000D01*
X99107809Y-85518761D01*
X100822095Y-87518761D02*
X100822095Y-85518761D01*
X101964952Y-87518761D01*
X101964952Y-85518761D01*
X104822095Y-85518761D02*
X105012571Y-85518761D01*
X105203047Y-85614000D01*
X105298285Y-85709238D01*
X105393523Y-85899714D01*
X105488761Y-86280666D01*
X105488761Y-86756857D01*
X105393523Y-87137809D01*
X105298285Y-87328285D01*
X105203047Y-87423523D01*
X105012571Y-87518761D01*
X104822095Y-87518761D01*
X104631619Y-87423523D01*
X104536380Y-87328285D01*
X104441142Y-87137809D01*
X104345904Y-86756857D01*
X104345904Y-86280666D01*
X104441142Y-85899714D01*
X104536380Y-85709238D01*
X104631619Y-85614000D01*
X104822095Y-85518761D01*
X106345904Y-87328285D02*
X106441142Y-87423523D01*
X106345904Y-87518761D01*
X106250666Y-87423523D01*
X106345904Y-87328285D01*
X106345904Y-87518761D01*
X108345904Y-87518761D02*
X107203047Y-87518761D01*
X107774476Y-87518761D02*
X107774476Y-85518761D01*
X107584000Y-85804476D01*
X107393523Y-85994952D01*
X107203047Y-86090190D01*
D11*
X101011000Y-108047285D02*
X101439571Y-108047285D01*
X101225285Y-108797285D02*
X101225285Y-108047285D01*
X101689571Y-108797285D02*
X101689571Y-108047285D01*
X102011000Y-108797285D02*
X102011000Y-108404428D01*
X101975285Y-108333000D01*
X101903857Y-108297285D01*
X101796714Y-108297285D01*
X101725285Y-108333000D01*
X101689571Y-108368714D01*
X102653857Y-108761571D02*
X102582428Y-108797285D01*
X102439571Y-108797285D01*
X102368142Y-108761571D01*
X102332428Y-108690142D01*
X102332428Y-108404428D01*
X102368142Y-108333000D01*
X102439571Y-108297285D01*
X102582428Y-108297285D01*
X102653857Y-108333000D01*
X102689571Y-108404428D01*
X102689571Y-108475857D01*
X102332428Y-108547285D01*
X103011000Y-108797285D02*
X103011000Y-108297285D01*
X103011000Y-108440142D02*
X103046714Y-108368714D01*
X103082428Y-108333000D01*
X103153857Y-108297285D01*
X103225285Y-108297285D01*
X103475285Y-108797285D02*
X103475285Y-108297285D01*
X103475285Y-108368714D02*
X103511000Y-108333000D01*
X103582428Y-108297285D01*
X103689571Y-108297285D01*
X103761000Y-108333000D01*
X103796714Y-108404428D01*
X103796714Y-108797285D01*
X103796714Y-108404428D02*
X103832428Y-108333000D01*
X103903857Y-108297285D01*
X104011000Y-108297285D01*
X104082428Y-108333000D01*
X104118142Y-108404428D01*
X104118142Y-108797285D01*
X104475285Y-108797285D02*
X104475285Y-108297285D01*
X104475285Y-108047285D02*
X104439571Y-108083000D01*
X104475285Y-108118714D01*
X104511000Y-108083000D01*
X104475285Y-108047285D01*
X104475285Y-108118714D01*
X104796714Y-108761571D02*
X104868142Y-108797285D01*
X105011000Y-108797285D01*
X105082428Y-108761571D01*
X105118142Y-108690142D01*
X105118142Y-108654428D01*
X105082428Y-108583000D01*
X105011000Y-108547285D01*
X104903857Y-108547285D01*
X104832428Y-108511571D01*
X104796714Y-108440142D01*
X104796714Y-108404428D01*
X104832428Y-108333000D01*
X104903857Y-108297285D01*
X105011000Y-108297285D01*
X105082428Y-108333000D01*
X105332428Y-108297285D02*
X105618142Y-108297285D01*
X105439571Y-108047285D02*
X105439571Y-108690142D01*
X105475285Y-108761571D01*
X105546714Y-108797285D01*
X105618142Y-108797285D01*
X105975285Y-108797285D02*
X105903857Y-108761571D01*
X105868142Y-108725857D01*
X105832428Y-108654428D01*
X105832428Y-108440142D01*
X105868142Y-108368714D01*
X105903857Y-108333000D01*
X105975285Y-108297285D01*
X106082428Y-108297285D01*
X106153857Y-108333000D01*
X106189571Y-108368714D01*
X106225285Y-108440142D01*
X106225285Y-108654428D01*
X106189571Y-108725857D01*
X106153857Y-108761571D01*
X106082428Y-108797285D01*
X105975285Y-108797285D01*
X106546714Y-108797285D02*
X106546714Y-108297285D01*
X106546714Y-108440142D02*
X106582428Y-108368714D01*
X106618142Y-108333000D01*
X106689571Y-108297285D01*
X106761000Y-108297285D01*
D13*
X80383428Y-102205285D02*
X80883428Y-102955285D01*
X80883428Y-102205285D02*
X80383428Y-102955285D01*
X81169142Y-102669571D02*
X81740571Y-102669571D01*
X82097714Y-102562428D02*
X82347714Y-102562428D01*
X82454857Y-102955285D02*
X82097714Y-102955285D01*
X82097714Y-102205285D01*
X82454857Y-102205285D01*
X82776285Y-102455285D02*
X82776285Y-102955285D01*
X82776285Y-102526714D02*
X82812000Y-102491000D01*
X82883428Y-102455285D01*
X82990571Y-102455285D01*
X83062000Y-102491000D01*
X83097714Y-102562428D01*
X83097714Y-102955285D01*
X83776285Y-102955285D02*
X83776285Y-102205285D01*
X83776285Y-102919571D02*
X83704857Y-102955285D01*
X83562000Y-102955285D01*
X83490571Y-102919571D01*
X83454857Y-102883857D01*
X83419142Y-102812428D01*
X83419142Y-102598142D01*
X83454857Y-102526714D01*
X83490571Y-102491000D01*
X83562000Y-102455285D01*
X83704857Y-102455285D01*
X83776285Y-102491000D01*
X84097714Y-102919571D02*
X84169142Y-102955285D01*
X84312000Y-102955285D01*
X84383428Y-102919571D01*
X84419142Y-102848142D01*
X84419142Y-102812428D01*
X84383428Y-102741000D01*
X84312000Y-102705285D01*
X84204857Y-102705285D01*
X84133428Y-102669571D01*
X84097714Y-102598142D01*
X84097714Y-102562428D01*
X84133428Y-102491000D01*
X84204857Y-102455285D01*
X84312000Y-102455285D01*
X84383428Y-102491000D01*
X84633428Y-102455285D02*
X84919142Y-102455285D01*
X84740571Y-102205285D02*
X84740571Y-102848142D01*
X84776285Y-102919571D01*
X84847714Y-102955285D01*
X84919142Y-102955285D01*
X85276285Y-102955285D02*
X85204857Y-102919571D01*
X85169142Y-102883857D01*
X85133428Y-102812428D01*
X85133428Y-102598142D01*
X85169142Y-102526714D01*
X85204857Y-102491000D01*
X85276285Y-102455285D01*
X85383428Y-102455285D01*
X85454857Y-102491000D01*
X85490571Y-102526714D01*
X85526285Y-102598142D01*
X85526285Y-102812428D01*
X85490571Y-102883857D01*
X85454857Y-102919571D01*
X85383428Y-102955285D01*
X85276285Y-102955285D01*
X85847714Y-102455285D02*
X85847714Y-103205285D01*
X85847714Y-102491000D02*
X85919142Y-102455285D01*
X86062000Y-102455285D01*
X86133428Y-102491000D01*
X86169142Y-102526714D01*
X86204857Y-102598142D01*
X86204857Y-102812428D01*
X86169142Y-102883857D01*
X86133428Y-102919571D01*
X86062000Y-102955285D01*
X85919142Y-102955285D01*
X85847714Y-102919571D01*
D10*
%TO.C,J2*%
X89492381Y-107278545D02*
X89628673Y-106577383D01*
X89702676Y-106446237D01*
X89814336Y-106370921D01*
X89963655Y-106351435D01*
X90057143Y-106369607D01*
X89089856Y-107103282D02*
X89034026Y-107140940D01*
X88931451Y-107169512D01*
X88697730Y-107124081D01*
X88613328Y-107059164D01*
X88575670Y-107003334D01*
X88547098Y-106900760D01*
X88565271Y-106807271D01*
X88639273Y-106676125D01*
X89309237Y-106224229D01*
X88701563Y-106106109D01*
D14*
%TO.C,J3*%
X104891428Y-114246000D02*
X105320000Y-114246000D01*
X105405714Y-114274571D01*
X105462857Y-114331714D01*
X105491428Y-114417428D01*
X105491428Y-114474571D01*
X104891428Y-114017428D02*
X104891428Y-113646000D01*
X105120000Y-113846000D01*
X105120000Y-113760285D01*
X105148571Y-113703142D01*
X105177142Y-113674571D01*
X105234285Y-113646000D01*
X105377142Y-113646000D01*
X105434285Y-113674571D01*
X105462857Y-113703142D01*
X105491428Y-113760285D01*
X105491428Y-113931714D01*
X105462857Y-113988857D01*
X105434285Y-114017428D01*
%TO.C,J6*%
X108766000Y-106605428D02*
X108766000Y-107034000D01*
X108737428Y-107119714D01*
X108680285Y-107176857D01*
X108594571Y-107205428D01*
X108537428Y-107205428D01*
X109308857Y-106605428D02*
X109194571Y-106605428D01*
X109137428Y-106634000D01*
X109108857Y-106662571D01*
X109051714Y-106748285D01*
X109023142Y-106862571D01*
X109023142Y-107091142D01*
X109051714Y-107148285D01*
X109080285Y-107176857D01*
X109137428Y-107205428D01*
X109251714Y-107205428D01*
X109308857Y-107176857D01*
X109337428Y-107148285D01*
X109366000Y-107091142D01*
X109366000Y-106948285D01*
X109337428Y-106891142D01*
X109308857Y-106862571D01*
X109251714Y-106834000D01*
X109137428Y-106834000D01*
X109080285Y-106862571D01*
X109051714Y-106891142D01*
X109023142Y-106948285D01*
D10*
%TO.C,J9*%
X88066666Y-92652380D02*
X88066666Y-93366666D01*
X88019047Y-93509523D01*
X87923809Y-93604761D01*
X87780952Y-93652380D01*
X87685714Y-93652380D01*
X88590476Y-93652380D02*
X88780952Y-93652380D01*
X88876190Y-93604761D01*
X88923809Y-93557142D01*
X89019047Y-93414285D01*
X89066666Y-93223809D01*
X89066666Y-92842857D01*
X89019047Y-92747619D01*
X88971428Y-92700000D01*
X88876190Y-92652380D01*
X88685714Y-92652380D01*
X88590476Y-92700000D01*
X88542857Y-92747619D01*
X88495238Y-92842857D01*
X88495238Y-93080952D01*
X88542857Y-93176190D01*
X88590476Y-93223809D01*
X88685714Y-93271428D01*
X88876190Y-93271428D01*
X88971428Y-93223809D01*
X89019047Y-93176190D01*
X89066666Y-93080952D01*
D14*
%TO.C,J7*%
X81713428Y-100530000D02*
X82142000Y-100530000D01*
X82227714Y-100558571D01*
X82284857Y-100615714D01*
X82313428Y-100701428D01*
X82313428Y-100758571D01*
X81713428Y-100301428D02*
X81713428Y-99901428D01*
X82313428Y-100158571D01*
D13*
%TO.C,J2*%
X98042921Y-107322594D02*
X96636659Y-114557186D01*
X87674403Y-112815100D02*
X86883584Y-111642664D01*
X86883584Y-111642664D02*
X87908229Y-106371326D01*
X96636659Y-114557186D02*
X87674403Y-112815100D01*
X87908229Y-106371326D02*
X89080665Y-105580508D01*
X89080665Y-105580508D02*
X98042921Y-107322594D01*
%TO.C,J3*%
X105720000Y-112500000D02*
X105220000Y-112500000D01*
X101610000Y-109340000D02*
X101610000Y-115460000D01*
X102220000Y-111900000D02*
X101610000Y-111900000D01*
X102920000Y-109340000D02*
X102920000Y-109950000D01*
X105720000Y-114850000D02*
X105720000Y-109950000D01*
X105720000Y-109950000D02*
X102220000Y-109950000D01*
X105720000Y-112400000D02*
X105220000Y-112400000D01*
X102220000Y-109950000D02*
X102220000Y-111900000D01*
X101510000Y-113700000D02*
X101510000Y-114000000D01*
X101310000Y-114510000D02*
X101310000Y-115760000D01*
X106330000Y-115460000D02*
X106330000Y-109340000D01*
X101410000Y-114000000D02*
X101610000Y-114000000D01*
X101610000Y-113700000D02*
X101410000Y-113700000D01*
X102220000Y-112900000D02*
X102220000Y-114850000D01*
X104220000Y-109340000D02*
X104220000Y-109950000D01*
X101610000Y-112900000D02*
X102220000Y-112900000D01*
X101310000Y-115760000D02*
X102560000Y-115760000D01*
X105220000Y-112500000D02*
X105220000Y-112300000D01*
X101410000Y-113700000D02*
X101410000Y-114000000D01*
X101610000Y-115460000D02*
X106330000Y-115460000D01*
X106330000Y-109340000D02*
X101610000Y-109340000D01*
X105220000Y-112300000D02*
X105720000Y-112300000D01*
X104220000Y-115460000D02*
X104220000Y-114850000D01*
X102920000Y-115460000D02*
X102920000Y-114850000D01*
X102220000Y-114850000D02*
X105720000Y-114850000D01*
%TO.C,J6*%
X114070000Y-110790000D02*
X114070000Y-109540000D01*
X108260000Y-109880000D02*
X110210000Y-109880000D01*
X113770000Y-105770000D02*
X107650000Y-105770000D01*
X113160000Y-109880000D02*
X113160000Y-106380000D01*
X111210000Y-110490000D02*
X111210000Y-109880000D01*
X113770000Y-107880000D02*
X113160000Y-107880000D01*
X111210000Y-109880000D02*
X113160000Y-109880000D01*
X112010000Y-110590000D02*
X112310000Y-110590000D01*
X107650000Y-110490000D02*
X113770000Y-110490000D01*
X107650000Y-109180000D02*
X108260000Y-109180000D01*
X110810000Y-106380000D02*
X110810000Y-106880000D01*
X112010000Y-110690000D02*
X112310000Y-110690000D01*
X113160000Y-106380000D02*
X108260000Y-106380000D01*
X112310000Y-110690000D02*
X112310000Y-110490000D01*
X113770000Y-110490000D02*
X113770000Y-105770000D01*
X112010000Y-110490000D02*
X112010000Y-110690000D01*
X113770000Y-109180000D02*
X113160000Y-109180000D01*
X110710000Y-106380000D02*
X110710000Y-106880000D01*
X110810000Y-106880000D02*
X110610000Y-106880000D01*
X107650000Y-105770000D02*
X107650000Y-110490000D01*
X107650000Y-107880000D02*
X108260000Y-107880000D01*
X110210000Y-109880000D02*
X110210000Y-110490000D01*
X110610000Y-106880000D02*
X110610000Y-106380000D01*
X108260000Y-106380000D02*
X108260000Y-109880000D01*
X112820000Y-110790000D02*
X114070000Y-110790000D01*
%TO.C,J9*%
X88195000Y-91960000D02*
X111565000Y-91960000D01*
X87195000Y-92960000D02*
X88195000Y-91960000D01*
X112565000Y-102090000D02*
X87195000Y-102090000D01*
X87195000Y-102090000D02*
X87195000Y-92960000D01*
X111565000Y-91960000D02*
X112565000Y-92960000D01*
X112565000Y-92960000D02*
X112565000Y-102090000D01*
%TO.C,J7*%
X81562000Y-98552000D02*
X82062000Y-98552000D01*
X85872000Y-96952000D02*
X85672000Y-96952000D01*
X82062000Y-98652000D02*
X81562000Y-98652000D01*
X85062000Y-96102000D02*
X81562000Y-96102000D01*
X85672000Y-97252000D02*
X85872000Y-97252000D01*
X83062000Y-101612000D02*
X83062000Y-101002000D01*
X83062000Y-95492000D02*
X83062000Y-96102000D01*
X85672000Y-101612000D02*
X85672000Y-95492000D01*
X85672000Y-98052000D02*
X85062000Y-98052000D01*
X85062000Y-98052000D02*
X85062000Y-96102000D01*
X81562000Y-96102000D02*
X81562000Y-101002000D01*
X85972000Y-96442000D02*
X85972000Y-95192000D01*
X81562000Y-101002000D02*
X85062000Y-101002000D01*
X85672000Y-95492000D02*
X80952000Y-95492000D01*
X82062000Y-98452000D02*
X82062000Y-98652000D01*
X81562000Y-98452000D02*
X82062000Y-98452000D01*
X80952000Y-95492000D02*
X80952000Y-101612000D01*
X85062000Y-101002000D02*
X85062000Y-99052000D01*
X85062000Y-99052000D02*
X85672000Y-99052000D01*
X85972000Y-95192000D02*
X84722000Y-95192000D01*
X84362000Y-95492000D02*
X84362000Y-96102000D01*
X84362000Y-101612000D02*
X84362000Y-101002000D01*
X85872000Y-97252000D02*
X85872000Y-96952000D01*
X80952000Y-101612000D02*
X85672000Y-101612000D01*
X85772000Y-97252000D02*
X85772000Y-96952000D01*
%TD*%
M02*
