%TF.GenerationSoftware,KiCad,Pcbnew,(6.0.0)*%
%TF.CreationDate,2022-01-12T17:49:16+01:00*%
%TF.ProjectId,v0_miniAB_pancake_board,76305f6d-696e-4694-9142-5f70616e6361,rev?*%
%TF.SameCoordinates,Original*%
%TF.FileFunction,Copper,L1,Top*%
%TF.FilePolarity,Positive*%
%FSLAX46Y46*%
G04 Gerber Fmt 4.6, Leading zero omitted, Abs format (unit mm)*
G04 Created by KiCad (PCBNEW (6.0.0)) date 2022-01-12 17:49:16*
%MOMM*%
%LPD*%
G01*
G04 APERTURE LIST*
G04 Aperture macros list*
%AMRoundRect*
0 Rectangle with rounded corners*
0 $1 Rounding radius*
0 $2 $3 $4 $5 $6 $7 $8 $9 X,Y pos of 4 corners*
0 Add a 4 corners polygon primitive as box body*
4,1,4,$2,$3,$4,$5,$6,$7,$8,$9,$2,$3,0*
0 Add four circle primitives for the rounded corners*
1,1,$1+$1,$2,$3*
1,1,$1+$1,$4,$5*
1,1,$1+$1,$6,$7*
1,1,$1+$1,$8,$9*
0 Add four rect primitives between the rounded corners*
20,1,$1+$1,$2,$3,$4,$5,0*
20,1,$1+$1,$4,$5,$6,$7,0*
20,1,$1+$1,$6,$7,$8,$9,0*
20,1,$1+$1,$8,$9,$2,$3,0*%
%AMHorizOval*
0 Thick line with rounded ends*
0 $1 width*
0 $2 $3 position (X,Y) of the first rounded end (center of the circle)*
0 $4 $5 position (X,Y) of the second rounded end (center of the circle)*
0 Add line between two ends*
20,1,$1,$2,$3,$4,$5,0*
0 Add two circle primitives to create the rounded ends*
1,1,$1,$2,$3*
1,1,$1,$4,$5*%
G04 Aperture macros list end*
%TA.AperFunction,ComponentPad*%
%ADD10RoundRect,0.250000X0.395409X-0.586218X0.586218X0.395409X-0.395409X0.586218X-0.586218X-0.395409X0*%
%TD*%
%TA.AperFunction,ComponentPad*%
%ADD11C,1.500000*%
%TD*%
%TA.AperFunction,ComponentPad*%
%ADD12RoundRect,0.249999X0.625001X-0.350001X0.625001X0.350001X-0.625001X0.350001X-0.625001X-0.350001X0*%
%TD*%
%TA.AperFunction,ComponentPad*%
%ADD13O,1.750000X1.200000*%
%TD*%
%TA.AperFunction,ComponentPad*%
%ADD14RoundRect,0.249999X0.350001X0.625001X-0.350001X0.625001X-0.350001X-0.625001X0.350001X-0.625001X0*%
%TD*%
%TA.AperFunction,ComponentPad*%
%ADD15O,1.200000X1.750000*%
%TD*%
%TA.AperFunction,ComponentPad*%
%ADD16RoundRect,0.250000X-0.500000X-0.500000X0.500000X-0.500000X0.500000X0.500000X-0.500000X0.500000X0*%
%TD*%
%TA.AperFunction,ComponentPad*%
%ADD17RoundRect,0.250000X-0.625000X0.350000X-0.625000X-0.350000X0.625000X-0.350000X0.625000X0.350000X0*%
%TD*%
%TA.AperFunction,ComponentPad*%
%ADD18RoundRect,0.249999X-0.194454X0.689431X-0.689431X0.194454X0.194454X-0.689431X0.689431X-0.194454X0*%
%TD*%
%TA.AperFunction,ComponentPad*%
%ADD19HorizOval,1.200000X-0.194454X0.194454X0.194454X-0.194454X0*%
%TD*%
%TA.AperFunction,ComponentPad*%
%ADD20RoundRect,0.249999X-0.676283X0.236153X-0.554729X-0.453214X0.676283X-0.236153X0.554729X0.453214X0*%
%TD*%
%TA.AperFunction,ComponentPad*%
%ADD21HorizOval,1.200000X-0.270822X-0.047753X0.270822X0.047753X0*%
%TD*%
%TA.AperFunction,ComponentPad*%
%ADD22RoundRect,0.249999X0.554729X-0.453214X0.676283X0.236153X-0.554729X0.453214X-0.676283X-0.236153X0*%
%TD*%
%TA.AperFunction,ComponentPad*%
%ADD23HorizOval,1.200000X-0.270822X0.047753X0.270822X-0.047753X0*%
%TD*%
%TA.AperFunction,Conductor*%
%ADD24C,1.000000*%
%TD*%
%TA.AperFunction,Conductor*%
%ADD25C,0.750000*%
%TD*%
%TA.AperFunction,Conductor*%
%ADD26C,2.000000*%
%TD*%
G04 APERTURE END LIST*
D10*
%TO.P,J2,1,Pin_1*%
%TO.N,/heat_high*%
X96260000Y-110730000D03*
D11*
%TO.P,J2,2,Pin_2*%
%TO.N,/heat_gnd*%
X99204882Y-111302427D03*
%TD*%
D12*
%TO.P,J3,1,Pin_1*%
%TO.N,/therm0*%
X103420000Y-113400000D03*
D13*
%TO.P,J3,2,Pin_2*%
%TO.N,/therm1*%
X103420000Y-111400000D03*
%TD*%
D14*
%TO.P,J6,1,Pin_1*%
%TO.N,Net-(J6-Pad1)*%
X111710000Y-108680000D03*
D15*
%TO.P,J6,2,Pin_2*%
%TO.N,/fan1*%
X109710000Y-108680000D03*
%TD*%
D16*
%TO.P,J9,1,Pin_1*%
%TO.N,/A+*%
X90880000Y-100990000D03*
D11*
%TO.P,J9,2,Pin_2*%
%TO.N,/A-*%
X93880000Y-100990000D03*
%TO.P,J9,3,Pin_3*%
%TO.N,/B+*%
X96880000Y-100990000D03*
%TO.P,J9,4,Pin_4*%
%TO.N,/B-*%
X99880000Y-100990000D03*
%TO.P,J9,5,Pin_5*%
%TO.N,/sw1*%
X102880000Y-100990000D03*
%TO.P,J9,6,Pin_6*%
%TO.N,/fan0*%
X105880000Y-100990000D03*
%TO.P,J9,7,Pin_7*%
%TO.N,Net-(J4-Pad1)*%
X108880000Y-100990000D03*
%TO.P,J9,8,Pin_8*%
%TO.N,/heat_high*%
X90880000Y-103990000D03*
%TO.P,J9,9,Pin_9*%
%TO.N,/heat_gnd*%
X93880000Y-103990000D03*
%TO.P,J9,10,Pin_10*%
%TO.N,/therm0*%
X96880000Y-103990000D03*
%TO.P,J9,11,Pin_11*%
%TO.N,/therm1*%
X99880000Y-103990000D03*
%TO.P,J9,12,Pin_12*%
%TO.N,/sw0*%
X102880000Y-103990000D03*
%TO.P,J9,13,Pin_13*%
%TO.N,/fan1*%
X105880000Y-103990000D03*
%TO.P,J9,14,Pin_14*%
%TO.N,Net-(J6-Pad1)*%
X108880000Y-103990000D03*
%TD*%
D17*
%TO.P,J7,1,Pin_1*%
%TO.N,/sw1*%
X83862000Y-97552000D03*
D13*
%TO.P,J7,2,Pin_2*%
%TO.N,/sw0*%
X83862000Y-99552000D03*
%TD*%
D18*
%TO.P,J1,1,Pin_1*%
%TO.N,/B-*%
X87130000Y-82930000D03*
D19*
%TO.P,J1,2,Pin_2*%
%TO.N,/B+*%
X85715786Y-84344214D03*
%TO.P,J1,3,Pin_3*%
%TO.N,/A-*%
X84301573Y-85758427D03*
%TO.P,J1,4,Pin_4*%
%TO.N,/A+*%
X82887359Y-87172641D03*
%TD*%
D20*
%TO.P,J4,1,Pin_1*%
%TO.N,Net-(J4-Pad1)*%
X77190000Y-106030000D03*
D21*
%TO.P,J4,2,Pin_2*%
%TO.N,/fan0*%
X77537296Y-107999616D03*
%TD*%
D22*
%TO.P,J5,1,Pin_1*%
%TO.N,Net-(J4-Pad1)*%
X122450000Y-108000000D03*
D23*
%TO.P,J5,2,Pin_2*%
%TO.N,/fan0*%
X122797296Y-106030384D03*
%TD*%
D24*
%TO.N,/B-*%
X99880000Y-100990000D02*
X99880000Y-95680000D01*
X99880000Y-95680000D02*
X87130000Y-82930000D01*
%TO.N,/B+*%
X96880000Y-95508428D02*
X96880000Y-100990000D01*
X85715786Y-84344214D02*
X96880000Y-95508428D01*
%TO.N,/A-*%
X90839999Y-92296853D02*
X84301573Y-85758427D01*
X90839999Y-97949999D02*
X90839999Y-92296853D01*
X93880000Y-100990000D02*
X90839999Y-97949999D01*
%TO.N,/A+*%
X88900000Y-93185282D02*
X82887359Y-87172641D01*
X90880000Y-100990000D02*
X88900000Y-99010000D01*
X88900000Y-99010000D02*
X88900000Y-93185282D01*
D25*
%TO.N,/therm1*%
X103420000Y-108590660D02*
X103420000Y-111400000D01*
X99880000Y-105050660D02*
X103420000Y-108590660D01*
X99880000Y-103990000D02*
X99880000Y-105050660D01*
%TO.N,/therm0*%
X102732000Y-113400000D02*
X103420000Y-113400000D01*
X101092000Y-108202000D02*
X101092000Y-111760000D01*
X96880000Y-103990000D02*
X101092000Y-108202000D01*
X101092000Y-111760000D02*
X102732000Y-113400000D01*
%TO.N,/fan0*%
X107810000Y-99060000D02*
X105880000Y-100990000D01*
X119532401Y-102765489D02*
X115465489Y-102765489D01*
X111760000Y-99060000D02*
X107810000Y-99060000D01*
X122797296Y-106030384D02*
X119532401Y-102765489D01*
X115465489Y-102765489D02*
X111760000Y-99060000D01*
D26*
%TO.N,/heat_high*%
X90880000Y-104858207D02*
X90880000Y-103990000D01*
X96260000Y-110730000D02*
X96260000Y-110238207D01*
X96260000Y-110238207D02*
X90880000Y-104858207D01*
D25*
%TO.N,/fan1*%
X109710000Y-108680000D02*
X109710000Y-107820000D01*
X109710000Y-107820000D02*
X105880000Y-103990000D01*
%TO.N,Net-(J4-Pad1)*%
X118590000Y-104140000D02*
X114808000Y-104140000D01*
X122450000Y-108000000D02*
X118590000Y-104140000D01*
X84694000Y-106030000D02*
X77190000Y-106030000D01*
X93726000Y-115062000D02*
X84694000Y-106030000D01*
X114758000Y-108000000D02*
X107696000Y-115062000D01*
X122450000Y-108000000D02*
X114758000Y-108000000D01*
X111658000Y-100990000D02*
X108880000Y-100990000D01*
X107696000Y-115062000D02*
X93726000Y-115062000D01*
X114808000Y-104140000D02*
X111658000Y-100990000D01*
%TO.N,Net-(J6-Pad1)*%
X111710000Y-106820000D02*
X111710000Y-108680000D01*
X108880000Y-103990000D02*
X111710000Y-106820000D01*
D26*
%TO.N,/heat_gnd*%
X99214423Y-109324423D02*
X93880000Y-103990000D01*
X99204882Y-109333964D02*
X99214423Y-109324423D01*
X99204882Y-111302427D02*
X99204882Y-109333964D01*
%TD*%
%TA.AperFunction,NonConductor*%
G36*
X85737314Y-82405624D02*
G01*
X85794150Y-82448171D01*
X85818961Y-82514691D01*
X85815323Y-82555015D01*
X85792043Y-82645684D01*
X85792042Y-82645693D01*
X85790071Y-82653369D01*
X85790071Y-82817723D01*
X85830944Y-82976913D01*
X85834763Y-82983861D01*
X85837175Y-82989952D01*
X85843653Y-83060652D01*
X85810879Y-83123631D01*
X85749259Y-83158894D01*
X85700369Y-83160266D01*
X85699419Y-83159994D01*
X85589467Y-83151533D01*
X85503121Y-83144889D01*
X85503117Y-83144889D01*
X85496761Y-83144400D01*
X85459834Y-83149065D01*
X85301438Y-83169075D01*
X85301435Y-83169076D01*
X85295108Y-83169875D01*
X85222908Y-83194454D01*
X85161480Y-83215366D01*
X85090547Y-83218384D01*
X85029243Y-83182574D01*
X84997032Y-83119305D01*
X85004139Y-83048665D01*
X85031779Y-83006993D01*
X85604187Y-82434585D01*
X85666499Y-82400559D01*
X85737314Y-82405624D01*
G37*
%TD.AperFunction*%
%TA.AperFunction,NonConductor*%
G36*
X84507517Y-83635421D02*
G01*
X84564353Y-83677968D01*
X84589164Y-83744488D01*
X84577864Y-83806329D01*
X84573138Y-83816556D01*
X84573136Y-83816562D01*
X84570462Y-83822349D01*
X84569006Y-83828558D01*
X84529270Y-83997973D01*
X84524048Y-84020236D01*
X84523870Y-84026610D01*
X84518981Y-84201622D01*
X84518372Y-84223413D01*
X84519481Y-84229700D01*
X84542253Y-84358843D01*
X84553668Y-84423581D01*
X84559927Y-84439390D01*
X84561061Y-84442254D01*
X84567539Y-84512955D01*
X84534765Y-84575934D01*
X84473145Y-84611197D01*
X84409179Y-84609755D01*
X84285206Y-84574207D01*
X84194413Y-84567221D01*
X84088908Y-84559102D01*
X84088904Y-84559102D01*
X84082548Y-84558613D01*
X84041640Y-84563781D01*
X83887225Y-84583288D01*
X83887222Y-84583289D01*
X83880895Y-84584088D01*
X83797245Y-84612565D01*
X83747267Y-84629579D01*
X83676334Y-84632597D01*
X83615030Y-84596787D01*
X83582819Y-84533518D01*
X83589926Y-84462878D01*
X83617566Y-84421206D01*
X84374390Y-83664382D01*
X84436702Y-83630356D01*
X84507517Y-83635421D01*
G37*
%TD.AperFunction*%
%TA.AperFunction,NonConductor*%
G36*
X83093304Y-85049634D02*
G01*
X83150140Y-85092181D01*
X83174951Y-85158701D01*
X83163651Y-85220542D01*
X83158925Y-85230769D01*
X83158923Y-85230775D01*
X83156249Y-85236562D01*
X83109835Y-85434449D01*
X83104159Y-85637626D01*
X83105268Y-85643913D01*
X83134385Y-85809039D01*
X83139455Y-85837794D01*
X83141802Y-85843722D01*
X83141804Y-85843729D01*
X83146847Y-85856465D01*
X83153328Y-85927165D01*
X83120556Y-85990146D01*
X83058936Y-86025410D01*
X82994967Y-86023969D01*
X82877128Y-85990180D01*
X82877124Y-85990179D01*
X82870992Y-85988421D01*
X82780199Y-85981435D01*
X82674694Y-85973316D01*
X82674690Y-85973316D01*
X82668334Y-85972827D01*
X82627426Y-85977995D01*
X82473011Y-85997502D01*
X82473008Y-85997503D01*
X82466681Y-85998302D01*
X82383034Y-86026778D01*
X82333053Y-86043793D01*
X82262120Y-86046811D01*
X82200816Y-86011001D01*
X82168605Y-85947732D01*
X82175712Y-85877092D01*
X82203352Y-85835420D01*
X82960177Y-85078595D01*
X83022489Y-85044569D01*
X83093304Y-85049634D01*
G37*
%TD.AperFunction*%
%TA.AperFunction,NonConductor*%
G36*
X97892886Y-94966385D02*
G01*
X98942595Y-96016094D01*
X98976621Y-96078406D01*
X98979500Y-96105189D01*
X98979500Y-99188000D01*
X98959498Y-99256121D01*
X98905842Y-99302614D01*
X98853500Y-99314000D01*
X97906500Y-99314000D01*
X97838379Y-99293998D01*
X97791886Y-99240342D01*
X97780500Y-99188000D01*
X97780500Y-95589215D01*
X97782051Y-95569504D01*
X97783187Y-95562332D01*
X97784219Y-95555816D01*
X97782101Y-95515388D01*
X97780673Y-95488149D01*
X97780500Y-95481555D01*
X97780500Y-95461236D01*
X97778659Y-95443720D01*
X97778376Y-95441023D01*
X97777859Y-95434448D01*
X97774944Y-95378834D01*
X97774313Y-95366783D01*
X97770725Y-95353392D01*
X97767122Y-95333950D01*
X97766365Y-95326743D01*
X97766364Y-95326739D01*
X97765674Y-95320172D01*
X97744734Y-95255726D01*
X97742860Y-95249400D01*
X97727028Y-95190313D01*
X97727027Y-95190310D01*
X97725320Y-95183940D01*
X97722323Y-95178057D01*
X97719027Y-95171588D01*
X97711464Y-95153331D01*
X97709661Y-95147784D01*
X97707179Y-95140144D01*
X97694671Y-95118479D01*
X97677934Y-95049483D01*
X97701155Y-94982392D01*
X97756963Y-94938505D01*
X97827638Y-94931757D01*
X97892886Y-94966385D01*
G37*
%TD.AperFunction*%
%TA.AperFunction,NonConductor*%
G36*
X91852888Y-91754816D02*
G01*
X95942595Y-95844523D01*
X95976621Y-95906835D01*
X95979500Y-95933618D01*
X95979500Y-99188000D01*
X95959498Y-99256121D01*
X95905842Y-99302614D01*
X95853500Y-99314000D01*
X93529691Y-99314000D01*
X93461570Y-99293998D01*
X93440596Y-99277096D01*
X92949095Y-98785595D01*
X92915070Y-98723283D01*
X92920134Y-98652468D01*
X92962681Y-98595632D01*
X93029201Y-98570821D01*
X93038190Y-98570500D01*
X93110070Y-98570500D01*
X93112338Y-98570335D01*
X93112350Y-98570335D01*
X93246603Y-98560594D01*
X93315083Y-98555625D01*
X93319538Y-98554641D01*
X93319541Y-98554641D01*
X93579947Y-98497148D01*
X93579950Y-98497147D01*
X93584403Y-98496164D01*
X93842319Y-98398449D01*
X93886707Y-98373794D01*
X94079435Y-98266743D01*
X94079436Y-98266742D01*
X94083428Y-98264525D01*
X94208306Y-98169221D01*
X94299046Y-98099970D01*
X94299047Y-98099969D01*
X94302678Y-98097198D01*
X94305873Y-98093930D01*
X94492283Y-97903242D01*
X94492287Y-97903237D01*
X94495477Y-97899974D01*
X94607986Y-97745403D01*
X94655100Y-97680676D01*
X94655102Y-97680673D01*
X94657787Y-97676984D01*
X94786206Y-97432899D01*
X94878045Y-97172832D01*
X94914516Y-96987792D01*
X94930499Y-96906704D01*
X94930500Y-96906698D01*
X94931380Y-96902232D01*
X94934539Y-96838776D01*
X94944867Y-96631336D01*
X94944867Y-96631330D01*
X94945094Y-96626767D01*
X94918898Y-96352208D01*
X94853343Y-96084306D01*
X94749801Y-95828674D01*
X94747500Y-95824744D01*
X94747497Y-95824738D01*
X94612745Y-95594597D01*
X94612740Y-95594590D01*
X94610442Y-95590665D01*
X94573882Y-95544949D01*
X94441036Y-95378834D01*
X94441035Y-95378833D01*
X94438184Y-95375268D01*
X94364033Y-95306000D01*
X94239972Y-95190108D01*
X94239969Y-95190106D01*
X94236636Y-95186992D01*
X94010021Y-95029784D01*
X93980865Y-95015279D01*
X93767173Y-94908968D01*
X93767170Y-94908967D01*
X93763086Y-94906935D01*
X93501002Y-94821020D01*
X93496510Y-94820240D01*
X93233043Y-94774494D01*
X93233035Y-94774493D01*
X93229262Y-94773838D01*
X93219029Y-94773329D01*
X93143695Y-94769578D01*
X93143687Y-94769578D01*
X93142124Y-94769500D01*
X92969930Y-94769500D01*
X92967662Y-94769665D01*
X92967650Y-94769665D01*
X92833397Y-94779406D01*
X92764917Y-94784375D01*
X92760462Y-94785359D01*
X92760459Y-94785359D01*
X92500053Y-94842852D01*
X92500050Y-94842853D01*
X92495597Y-94843836D01*
X92237681Y-94941551D01*
X92233694Y-94943765D01*
X92233693Y-94943766D01*
X92024564Y-95059927D01*
X91996572Y-95075475D01*
X91967817Y-95097420D01*
X91942941Y-95116405D01*
X91876654Y-95141832D01*
X91807143Y-95127385D01*
X91756477Y-95077651D01*
X91740499Y-95016242D01*
X91740499Y-92377640D01*
X91742050Y-92357929D01*
X91743186Y-92350757D01*
X91744218Y-92344241D01*
X91740672Y-92276574D01*
X91740499Y-92269980D01*
X91740499Y-92249661D01*
X91740155Y-92246387D01*
X91738375Y-92229448D01*
X91737858Y-92222873D01*
X91734813Y-92164771D01*
X91734312Y-92155208D01*
X91730724Y-92141817D01*
X91727121Y-92122375D01*
X91726364Y-92115168D01*
X91726363Y-92115164D01*
X91725673Y-92108597D01*
X91704733Y-92044151D01*
X91702859Y-92037825D01*
X91687027Y-91978738D01*
X91687026Y-91978735D01*
X91685319Y-91972365D01*
X91679026Y-91960013D01*
X91671463Y-91941756D01*
X91671022Y-91940400D01*
X91667178Y-91928569D01*
X91654674Y-91906911D01*
X91637936Y-91837916D01*
X91661156Y-91770824D01*
X91716963Y-91726937D01*
X91787638Y-91720188D01*
X91852888Y-91754816D01*
G37*
%TD.AperFunction*%
%TA.AperFunction,NonConductor*%
G36*
X90009012Y-98325549D02*
G01*
X90035621Y-98357776D01*
X90046703Y-98376972D01*
X90049848Y-98382765D01*
X90077618Y-98437265D01*
X90080616Y-98443148D01*
X90084770Y-98448277D01*
X90084770Y-98448278D01*
X90089338Y-98453919D01*
X90100533Y-98470208D01*
X90107466Y-98482215D01*
X90111887Y-98487125D01*
X90152814Y-98532579D01*
X90157098Y-98537595D01*
X90159631Y-98540723D01*
X90169880Y-98553379D01*
X90184229Y-98567728D01*
X90188770Y-98572512D01*
X90223960Y-98611594D01*
X90234128Y-98622887D01*
X90245350Y-98631040D01*
X90260378Y-98643877D01*
X90715406Y-99098905D01*
X90749432Y-99161217D01*
X90744367Y-99232032D01*
X90701820Y-99288868D01*
X90635300Y-99313679D01*
X90626311Y-99314000D01*
X90529689Y-99314000D01*
X90461568Y-99293998D01*
X90440594Y-99277095D01*
X89837405Y-98673906D01*
X89803379Y-98611594D01*
X89800500Y-98584811D01*
X89800500Y-98420773D01*
X89820502Y-98352652D01*
X89874158Y-98306159D01*
X89944432Y-98296055D01*
X90009012Y-98325549D01*
G37*
%TD.AperFunction*%
%TA.AperFunction,NonConductor*%
G36*
X111454709Y-99855502D02*
G01*
X111475683Y-99872405D01*
X111602683Y-99999405D01*
X111636709Y-100061717D01*
X111631644Y-100132532D01*
X111589097Y-100189368D01*
X111522577Y-100214179D01*
X111513588Y-100214500D01*
X110870000Y-100214500D01*
X110801879Y-100194498D01*
X110755386Y-100140842D01*
X110744000Y-100088500D01*
X110744000Y-99961500D01*
X110764002Y-99893379D01*
X110817658Y-99846886D01*
X110870000Y-99835500D01*
X111386588Y-99835500D01*
X111454709Y-99855502D01*
G37*
%TD.AperFunction*%
%TA.AperFunction,NonConductor*%
G36*
X109473209Y-105684002D02*
G01*
X109494183Y-105700905D01*
X110897595Y-107104317D01*
X110931621Y-107166629D01*
X110934500Y-107193412D01*
X110934500Y-107508364D01*
X110914498Y-107576485D01*
X110897595Y-107597459D01*
X110841919Y-107653135D01*
X110837883Y-107659959D01*
X110837881Y-107659962D01*
X110765886Y-107781700D01*
X110758256Y-107794601D01*
X110756045Y-107802211D01*
X110753443Y-107808224D01*
X110708032Y-107862798D01*
X110640324Y-107884157D01*
X110571817Y-107865520D01*
X110536277Y-107831923D01*
X110535797Y-107831056D01*
X110514935Y-107806715D01*
X110486793Y-107741053D01*
X110486412Y-107741135D01*
X110485989Y-107739177D01*
X110485988Y-107739175D01*
X110477680Y-107700748D01*
X110475619Y-107688166D01*
X110471798Y-107654098D01*
X110471797Y-107654096D01*
X110471013Y-107647102D01*
X110460538Y-107617024D01*
X110456377Y-107602219D01*
X110451133Y-107577962D01*
X110451132Y-107577959D01*
X110449645Y-107571081D01*
X110432176Y-107533619D01*
X110427384Y-107521816D01*
X110413796Y-107482797D01*
X110396919Y-107455788D01*
X110389578Y-107442268D01*
X110379092Y-107419780D01*
X110379090Y-107419777D01*
X110376117Y-107413401D01*
X110350792Y-107380752D01*
X110343498Y-107370296D01*
X110325332Y-107341224D01*
X110325331Y-107341222D01*
X110321600Y-107335252D01*
X110294141Y-107307601D01*
X110293608Y-107307031D01*
X110293106Y-107306384D01*
X110268224Y-107281502D01*
X110199006Y-107211799D01*
X110198006Y-107211164D01*
X110196843Y-107210121D01*
X108865817Y-105879095D01*
X108831791Y-105816783D01*
X108836856Y-105745968D01*
X108879403Y-105689132D01*
X108945923Y-105664321D01*
X108954912Y-105664000D01*
X109405088Y-105664000D01*
X109473209Y-105684002D01*
G37*
%TD.AperFunction*%
%TA.AperFunction,NonConductor*%
G36*
X111352709Y-101785502D02*
G01*
X111373683Y-101802405D01*
X114253345Y-104682068D01*
X114254273Y-104683005D01*
X114314760Y-104744772D01*
X114349508Y-104767166D01*
X114359831Y-104774584D01*
X114392140Y-104800375D01*
X114398482Y-104803441D01*
X114420819Y-104814240D01*
X114434229Y-104821766D01*
X114455076Y-104835200D01*
X114461004Y-104839020D01*
X114499835Y-104853153D01*
X114511576Y-104858113D01*
X114542435Y-104873031D01*
X114542437Y-104873032D01*
X114548780Y-104876098D01*
X114577711Y-104882777D01*
X114579816Y-104883263D01*
X114594566Y-104887633D01*
X114617869Y-104896115D01*
X114617877Y-104896117D01*
X114624493Y-104898525D01*
X114637746Y-104900199D01*
X114665485Y-104903704D01*
X114678033Y-104905939D01*
X114711438Y-104913651D01*
X114711444Y-104913652D01*
X114718302Y-104915235D01*
X114725342Y-104915260D01*
X114725346Y-104915260D01*
X114757239Y-104915371D01*
X114758059Y-104915398D01*
X114758863Y-104915500D01*
X114793979Y-104915500D01*
X114794419Y-104915501D01*
X114892284Y-104915843D01*
X114893443Y-104915584D01*
X114894992Y-104915500D01*
X118216588Y-104915500D01*
X118284709Y-104935502D01*
X118305683Y-104952405D01*
X120362683Y-107009405D01*
X120396709Y-107071717D01*
X120391644Y-107142532D01*
X120349097Y-107199368D01*
X120282577Y-107224179D01*
X120273588Y-107224500D01*
X114766868Y-107224500D01*
X114765548Y-107224493D01*
X114763954Y-107224476D01*
X114679135Y-107223588D01*
X114672249Y-107225077D01*
X114672247Y-107225077D01*
X114638749Y-107232320D01*
X114626166Y-107234381D01*
X114592098Y-107238202D01*
X114592096Y-107238203D01*
X114585102Y-107238987D01*
X114555024Y-107249462D01*
X114540219Y-107253623D01*
X114515962Y-107258867D01*
X114515959Y-107258868D01*
X114509081Y-107260355D01*
X114471619Y-107277824D01*
X114459818Y-107282615D01*
X114420797Y-107296204D01*
X114414823Y-107299937D01*
X114414821Y-107299938D01*
X114393788Y-107313081D01*
X114380268Y-107320422D01*
X114357780Y-107330908D01*
X114357777Y-107330910D01*
X114351401Y-107333883D01*
X114322896Y-107355994D01*
X114318752Y-107359208D01*
X114308295Y-107366502D01*
X114273252Y-107388400D01*
X114245601Y-107415859D01*
X114245031Y-107416392D01*
X114244384Y-107416894D01*
X114219502Y-107441776D01*
X114149799Y-107510994D01*
X114149164Y-107511994D01*
X114148121Y-107513157D01*
X112925595Y-108735683D01*
X112863283Y-108769709D01*
X112792468Y-108764644D01*
X112735632Y-108722097D01*
X112710821Y-108655577D01*
X112710500Y-108646588D01*
X112710499Y-107991779D01*
X112710499Y-107989306D01*
X112707598Y-107952430D01*
X112661744Y-107794601D01*
X112606240Y-107700749D01*
X112582119Y-107659962D01*
X112582117Y-107659959D01*
X112578081Y-107653135D01*
X112522405Y-107597459D01*
X112488379Y-107535147D01*
X112485500Y-107508364D01*
X112485500Y-106828819D01*
X112485507Y-106827500D01*
X112486337Y-106748177D01*
X112486411Y-106741135D01*
X112484924Y-106734257D01*
X112484923Y-106734248D01*
X112477680Y-106700749D01*
X112475619Y-106688167D01*
X112471798Y-106654102D01*
X112471013Y-106647102D01*
X112468697Y-106640453D01*
X112468696Y-106640446D01*
X112460538Y-106617019D01*
X112456376Y-106602213D01*
X112449645Y-106571081D01*
X112432176Y-106533619D01*
X112427384Y-106521816D01*
X112413796Y-106482797D01*
X112396919Y-106455788D01*
X112389578Y-106442268D01*
X112379092Y-106419780D01*
X112379090Y-106419777D01*
X112376117Y-106413401D01*
X112350792Y-106380752D01*
X112343498Y-106370296D01*
X112325332Y-106341224D01*
X112325331Y-106341222D01*
X112321600Y-106335252D01*
X112294141Y-106307601D01*
X112293608Y-106307031D01*
X112293106Y-106306384D01*
X112268224Y-106281502D01*
X112199006Y-106211799D01*
X112198006Y-106211164D01*
X112196843Y-106210121D01*
X110780905Y-104794183D01*
X110746879Y-104731871D01*
X110744000Y-104705088D01*
X110744000Y-101891500D01*
X110764002Y-101823379D01*
X110817658Y-101776886D01*
X110870000Y-101765500D01*
X111284588Y-101765500D01*
X111352709Y-101785502D01*
G37*
%TD.AperFunction*%
%TA.AperFunction,NonConductor*%
G36*
X102076012Y-108343848D02*
G01*
X102082595Y-108349977D01*
X102607595Y-108874977D01*
X102641621Y-108937289D01*
X102644500Y-108964072D01*
X102644500Y-110459273D01*
X102624498Y-110527394D01*
X102581821Y-110567379D01*
X102581881Y-110567465D01*
X102581294Y-110567873D01*
X102579583Y-110569476D01*
X102576643Y-110571105D01*
X102576636Y-110571110D01*
X102571056Y-110574203D01*
X102416729Y-110706477D01*
X102412822Y-110711514D01*
X102412820Y-110711516D01*
X102358331Y-110781763D01*
X102292152Y-110867081D01*
X102202413Y-111049455D01*
X102200804Y-111055633D01*
X102200803Y-111055635D01*
X102154063Y-111235074D01*
X102151178Y-111246148D01*
X102147281Y-111320502D01*
X102142270Y-111416125D01*
X102118731Y-111483106D01*
X102062715Y-111526727D01*
X101992009Y-111533139D01*
X101927348Y-111498626D01*
X101904405Y-111475683D01*
X101870379Y-111413371D01*
X101867500Y-111386588D01*
X101867500Y-108439072D01*
X101887502Y-108370951D01*
X101941158Y-108324458D01*
X102011432Y-108314354D01*
X102076012Y-108343848D01*
G37*
%TD.AperFunction*%
%TA.AperFunction,NonConductor*%
G36*
X94074590Y-110050986D02*
G01*
X94121974Y-110080787D01*
X94829594Y-110788407D01*
X94863620Y-110850719D01*
X94866048Y-110866849D01*
X94873880Y-110959148D01*
X94874531Y-110966823D01*
X94875869Y-110971978D01*
X94875870Y-110971984D01*
X94894491Y-111043728D01*
X94934240Y-111196874D01*
X94936434Y-111201744D01*
X95018578Y-111384097D01*
X95031857Y-111413576D01*
X95164591Y-111610732D01*
X95328645Y-111782705D01*
X95519330Y-111924579D01*
X95731193Y-112032295D01*
X95736284Y-112033876D01*
X95736287Y-112033877D01*
X95953081Y-112101193D01*
X95958176Y-112102775D01*
X95963465Y-112103476D01*
X96188506Y-112133304D01*
X96188509Y-112133304D01*
X96193789Y-112134004D01*
X96199118Y-112133804D01*
X96199119Y-112133804D01*
X96296159Y-112130161D01*
X96431295Y-112125087D01*
X96663904Y-112076281D01*
X96668863Y-112074323D01*
X96668865Y-112074322D01*
X96879998Y-111990941D01*
X96880000Y-111990940D01*
X96884963Y-111988980D01*
X96969045Y-111937958D01*
X97083593Y-111868448D01*
X97083592Y-111868448D01*
X97088153Y-111865681D01*
X97146505Y-111815046D01*
X97263631Y-111713410D01*
X97263633Y-111713408D01*
X97267664Y-111709910D01*
X97271047Y-111705784D01*
X97271051Y-111705780D01*
X97414977Y-111530248D01*
X97418362Y-111526120D01*
X97433100Y-111500230D01*
X97514485Y-111357256D01*
X97535939Y-111319567D01*
X97559943Y-111253438D01*
X97601988Y-111196230D01*
X97668287Y-111170835D01*
X97737792Y-111185315D01*
X97788434Y-111235074D01*
X97804382Y-111296430D01*
X97804382Y-111362107D01*
X97819413Y-111539250D01*
X97820751Y-111544405D01*
X97820752Y-111544411D01*
X97848183Y-111650097D01*
X97879122Y-111769301D01*
X97901679Y-111819375D01*
X97949070Y-111924579D01*
X97976739Y-111986003D01*
X98109473Y-112183159D01*
X98113152Y-112187016D01*
X98113154Y-112187018D01*
X98153710Y-112229531D01*
X98273527Y-112355132D01*
X98464212Y-112497006D01*
X98676075Y-112604722D01*
X98681166Y-112606303D01*
X98681169Y-112606304D01*
X98837874Y-112654962D01*
X98903058Y-112675202D01*
X98908347Y-112675903D01*
X99133388Y-112705731D01*
X99133391Y-112705731D01*
X99138671Y-112706431D01*
X99144000Y-112706231D01*
X99144001Y-112706231D01*
X99241041Y-112702588D01*
X99376177Y-112697514D01*
X99608786Y-112648708D01*
X99613745Y-112646750D01*
X99613747Y-112646749D01*
X99824880Y-112563368D01*
X99824882Y-112563367D01*
X99829845Y-112561407D01*
X99869197Y-112537528D01*
X100016312Y-112448256D01*
X100033035Y-112438108D01*
X100064080Y-112411169D01*
X100208513Y-112285837D01*
X100208515Y-112285835D01*
X100212546Y-112282337D01*
X100266605Y-112216407D01*
X100325262Y-112176415D01*
X100396232Y-112174483D01*
X100456981Y-112211227D01*
X100470888Y-112229526D01*
X100480400Y-112244748D01*
X100507859Y-112272399D01*
X100508392Y-112272969D01*
X100508894Y-112273616D01*
X100533776Y-112298498D01*
X100602994Y-112368201D01*
X100603994Y-112368836D01*
X100605157Y-112369879D01*
X102148912Y-113913634D01*
X102180814Y-113967575D01*
X102193256Y-114010399D01*
X102197293Y-114017225D01*
X102197294Y-114017227D01*
X102244094Y-114096361D01*
X102261554Y-114165177D01*
X102239037Y-114232508D01*
X102183693Y-114276977D01*
X102135641Y-114286500D01*
X94099412Y-114286500D01*
X94031291Y-114266498D01*
X94010317Y-114249595D01*
X91779769Y-112019047D01*
X91745743Y-111956735D01*
X91750808Y-111885920D01*
X91793355Y-111829084D01*
X91859875Y-111804273D01*
X91875125Y-111804108D01*
X91908638Y-111805776D01*
X91915679Y-111806127D01*
X91915681Y-111806127D01*
X91917247Y-111806205D01*
X92089441Y-111806205D01*
X92091709Y-111806040D01*
X92091721Y-111806040D01*
X92232392Y-111795833D01*
X92294454Y-111791330D01*
X92298909Y-111790346D01*
X92298912Y-111790346D01*
X92559318Y-111732853D01*
X92559321Y-111732852D01*
X92563774Y-111731869D01*
X92821690Y-111634154D01*
X92955132Y-111560034D01*
X93058806Y-111502448D01*
X93058807Y-111502447D01*
X93062799Y-111500230D01*
X93252550Y-111355416D01*
X93278417Y-111335675D01*
X93278418Y-111335674D01*
X93282049Y-111332903D01*
X93295086Y-111319567D01*
X93471654Y-111138947D01*
X93471658Y-111138942D01*
X93474848Y-111135679D01*
X93517220Y-111077466D01*
X93634471Y-110916381D01*
X93634473Y-110916378D01*
X93637158Y-110912689D01*
X93765577Y-110668604D01*
X93857416Y-110408537D01*
X93909257Y-110145515D01*
X93942055Y-110082549D01*
X94003688Y-110047310D01*
X94074590Y-110050986D01*
G37*
%TD.AperFunction*%
%TA.AperFunction,NonConductor*%
G36*
X106473209Y-105684002D02*
G01*
X106494183Y-105700905D01*
X108733990Y-107940712D01*
X108768016Y-108003024D01*
X108760533Y-108079846D01*
X108751414Y-108100919D01*
X108750108Y-108107171D01*
X108711396Y-108292476D01*
X108709849Y-108299880D01*
X108709500Y-108306539D01*
X108709500Y-109005800D01*
X108709823Y-109008979D01*
X108723853Y-109147102D01*
X108724880Y-109157216D01*
X108785662Y-109351172D01*
X108884203Y-109528944D01*
X109016477Y-109683271D01*
X109177081Y-109807848D01*
X109359455Y-109897587D01*
X109365633Y-109899196D01*
X109365635Y-109899197D01*
X109549966Y-109947212D01*
X109549969Y-109947212D01*
X109556148Y-109948822D01*
X109628203Y-109952598D01*
X109752744Y-109959125D01*
X109752748Y-109959125D01*
X109759126Y-109959459D01*
X109960097Y-109929065D01*
X110150852Y-109858881D01*
X110156273Y-109855520D01*
X110318176Y-109755137D01*
X110318180Y-109755134D01*
X110323599Y-109751774D01*
X110471280Y-109612119D01*
X110475927Y-109605483D01*
X110532855Y-109524181D01*
X110588312Y-109479853D01*
X110658932Y-109472544D01*
X110722292Y-109504575D01*
X110750962Y-109551345D01*
X110752895Y-109550509D01*
X110756044Y-109557786D01*
X110758256Y-109565399D01*
X110762293Y-109572225D01*
X110837881Y-109700038D01*
X110837883Y-109700041D01*
X110841919Y-109706865D01*
X110958135Y-109823081D01*
X110964959Y-109827117D01*
X110964962Y-109827119D01*
X111049121Y-109876890D01*
X111099601Y-109906744D01*
X111107213Y-109908955D01*
X111107214Y-109908956D01*
X111179717Y-109930020D01*
X111257430Y-109952598D01*
X111270583Y-109953633D01*
X111291846Y-109955307D01*
X111291859Y-109955308D01*
X111294305Y-109955500D01*
X111401588Y-109955500D01*
X111469709Y-109975502D01*
X111516202Y-110029158D01*
X111526306Y-110099432D01*
X111496812Y-110164012D01*
X111490683Y-110170595D01*
X107411683Y-114249595D01*
X107349371Y-114283621D01*
X107322588Y-114286500D01*
X104704359Y-114286500D01*
X104636238Y-114266498D01*
X104589745Y-114212842D01*
X104579641Y-114142568D01*
X104595906Y-114096361D01*
X104641142Y-114019872D01*
X104646744Y-114010399D01*
X104692598Y-113852570D01*
X104693633Y-113839417D01*
X104695307Y-113818154D01*
X104695308Y-113818141D01*
X104695500Y-113815695D01*
X104695499Y-112984306D01*
X104692598Y-112947430D01*
X104646744Y-112789601D01*
X104630020Y-112761323D01*
X104567119Y-112654962D01*
X104567117Y-112654959D01*
X104563081Y-112648135D01*
X104446865Y-112531919D01*
X104440041Y-112527883D01*
X104440038Y-112527881D01*
X104312220Y-112452290D01*
X104305399Y-112448256D01*
X104297792Y-112446046D01*
X104291773Y-112443441D01*
X104237200Y-112398029D01*
X104215842Y-112330321D01*
X104234481Y-112261814D01*
X104268078Y-112226277D01*
X104268944Y-112225797D01*
X104423271Y-112093523D01*
X104436646Y-112076281D01*
X104502842Y-111990941D01*
X104547848Y-111932919D01*
X104637587Y-111750545D01*
X104641966Y-111733733D01*
X104687212Y-111560034D01*
X104687212Y-111560031D01*
X104688822Y-111553852D01*
X104694335Y-111448648D01*
X104699125Y-111357256D01*
X104699125Y-111357252D01*
X104699459Y-111350874D01*
X104669065Y-111149903D01*
X104662473Y-111131985D01*
X104630000Y-111043728D01*
X104598881Y-110959148D01*
X104572092Y-110915941D01*
X104495137Y-110791824D01*
X104495134Y-110791820D01*
X104491774Y-110786401D01*
X104380379Y-110668604D01*
X104356508Y-110643361D01*
X104356507Y-110643360D01*
X104352119Y-110638720D01*
X104346886Y-110635056D01*
X104346884Y-110635054D01*
X104249230Y-110566676D01*
X104204901Y-110511219D01*
X104195500Y-110463463D01*
X104195500Y-108599528D01*
X104195507Y-108598208D01*
X104196338Y-108518842D01*
X104196412Y-108511795D01*
X104187680Y-108471408D01*
X104185619Y-108458826D01*
X104181798Y-108424758D01*
X104181797Y-108424756D01*
X104181013Y-108417762D01*
X104170538Y-108387684D01*
X104166377Y-108372879D01*
X104161133Y-108348622D01*
X104161132Y-108348619D01*
X104159645Y-108341741D01*
X104142176Y-108304279D01*
X104137384Y-108292476D01*
X104123796Y-108253457D01*
X104106919Y-108226448D01*
X104099578Y-108212928D01*
X104089092Y-108190440D01*
X104089090Y-108190437D01*
X104086117Y-108184061D01*
X104060792Y-108151412D01*
X104053498Y-108140956D01*
X104035332Y-108111884D01*
X104035331Y-108111882D01*
X104031600Y-108105912D01*
X104004141Y-108078261D01*
X104003608Y-108077691D01*
X104003106Y-108077044D01*
X103978224Y-108052162D01*
X103909006Y-107982459D01*
X103908006Y-107981824D01*
X103906843Y-107980781D01*
X101805157Y-105879095D01*
X101771131Y-105816783D01*
X101776196Y-105745968D01*
X101818743Y-105689132D01*
X101885263Y-105664321D01*
X101894252Y-105664000D01*
X106405088Y-105664000D01*
X106473209Y-105684002D01*
G37*
%TD.AperFunction*%
%TA.AperFunction,NonConductor*%
G36*
X87353096Y-81022155D02*
G01*
X87456406Y-81045734D01*
X87483035Y-81055052D01*
X87578506Y-81101028D01*
X87602396Y-81116039D01*
X87668525Y-81168776D01*
X87679338Y-81180086D01*
X87679974Y-81179450D01*
X87686989Y-81186465D01*
X87692816Y-81194485D01*
X87700836Y-81200312D01*
X87700838Y-81200314D01*
X87710585Y-81207395D01*
X87725619Y-81220236D01*
X89975772Y-83470389D01*
X89988613Y-83485423D01*
X89995694Y-83495170D01*
X89995697Y-83495173D01*
X90001523Y-83503192D01*
X90006553Y-83506847D01*
X90012512Y-83512124D01*
X90012513Y-83512125D01*
X90185905Y-83665660D01*
X90220206Y-83696033D01*
X90223352Y-83698201D01*
X90457109Y-83859298D01*
X90457113Y-83859300D01*
X90460251Y-83861463D01*
X90718552Y-83996625D01*
X90722119Y-83997971D01*
X90722124Y-83997973D01*
X90764676Y-84014027D01*
X90991312Y-84099533D01*
X91157957Y-84140216D01*
X91270814Y-84167768D01*
X91270818Y-84167769D01*
X91274522Y-84168673D01*
X91278306Y-84169122D01*
X91278311Y-84169123D01*
X91560224Y-84202579D01*
X91560228Y-84202579D01*
X91564018Y-84203029D01*
X91567837Y-84203017D01*
X91567841Y-84203017D01*
X91706779Y-84202573D01*
X91855544Y-84202097D01*
X91859337Y-84201622D01*
X91859341Y-84201622D01*
X91999812Y-84184039D01*
X92144814Y-84165890D01*
X92148527Y-84164958D01*
X92148534Y-84164957D01*
X92423859Y-84095872D01*
X92423864Y-84095870D01*
X92427576Y-84094939D01*
X92693931Y-83992498D01*
X92699922Y-83990835D01*
X92713633Y-83981756D01*
X92733581Y-83970992D01*
X93441214Y-83667825D01*
X93446606Y-83665660D01*
X94201171Y-83382803D01*
X94206657Y-83380890D01*
X94862192Y-83169075D01*
X94973424Y-83133134D01*
X94978993Y-83131475D01*
X95238516Y-83060652D01*
X95756398Y-82919324D01*
X95762030Y-82917926D01*
X96548367Y-82741847D01*
X96554064Y-82740708D01*
X97128449Y-82639643D01*
X97347716Y-82601062D01*
X97353450Y-82600190D01*
X98152669Y-82497285D01*
X98158431Y-82496678D01*
X98961551Y-82430729D01*
X98967353Y-82430387D01*
X99772656Y-82401535D01*
X99778466Y-82401461D01*
X99967398Y-82403408D01*
X100584246Y-82409766D01*
X100590045Y-82409960D01*
X100771374Y-82420202D01*
X101394573Y-82455405D01*
X101400365Y-82455866D01*
X102201957Y-82538356D01*
X102207722Y-82539084D01*
X103004652Y-82658440D01*
X103010377Y-82659433D01*
X103800959Y-82815403D01*
X103806632Y-82816659D01*
X104589175Y-83008910D01*
X104594784Y-83010426D01*
X105367638Y-83238552D01*
X105373158Y-83240321D01*
X105510614Y-83287886D01*
X106134675Y-83503837D01*
X106140121Y-83505863D01*
X106888683Y-83804207D01*
X106894025Y-83806480D01*
X107313730Y-83996625D01*
X107628027Y-84139015D01*
X107633263Y-84141534D01*
X108351164Y-84507559D01*
X108356277Y-84510316D01*
X108890198Y-84814334D01*
X109056529Y-84909044D01*
X109061503Y-84912030D01*
X109706848Y-85319999D01*
X109742628Y-85342618D01*
X109747467Y-85345835D01*
X110408028Y-85807376D01*
X110412713Y-85810813D01*
X111051286Y-86302309D01*
X111055807Y-86305958D01*
X111671034Y-86826367D01*
X111675383Y-86830221D01*
X112265984Y-87378458D01*
X112270150Y-87382509D01*
X112834812Y-87957358D01*
X112838784Y-87961592D01*
X113257770Y-88429454D01*
X113376372Y-88561892D01*
X113380148Y-88566309D01*
X113889481Y-89190746D01*
X113893042Y-89195323D01*
X114373078Y-89842622D01*
X114376400Y-89847326D01*
X114638906Y-90237709D01*
X114805990Y-90486187D01*
X114816894Y-90506055D01*
X114823479Y-90521130D01*
X114829793Y-90528242D01*
X114831136Y-90530223D01*
X114831666Y-90531052D01*
X114831675Y-90531082D01*
X114832028Y-90531619D01*
X114833359Y-90533701D01*
X114834404Y-90535045D01*
X115137421Y-90982050D01*
X115138438Y-90983390D01*
X115138444Y-90983398D01*
X115473566Y-91424840D01*
X115474604Y-91426207D01*
X115835102Y-91851660D01*
X115836247Y-91852873D01*
X115836255Y-91852882D01*
X115955051Y-91978738D01*
X116217878Y-92257186D01*
X116621832Y-92641619D01*
X117045804Y-93003856D01*
X117488577Y-93342856D01*
X117489976Y-93343812D01*
X117489986Y-93343820D01*
X117934334Y-93647699D01*
X117935674Y-93648750D01*
X117937747Y-93650088D01*
X117938279Y-93650442D01*
X117938317Y-93650456D01*
X117939177Y-93651011D01*
X117941119Y-93652339D01*
X117948207Y-93658684D01*
X117969020Y-93667878D01*
X117986094Y-93677050D01*
X122849492Y-96794529D01*
X123620577Y-97288801D01*
X123636616Y-97300996D01*
X123652386Y-97315112D01*
X123662127Y-97319414D01*
X123685007Y-97332539D01*
X123708568Y-97349563D01*
X123922817Y-97504364D01*
X123933147Y-97512689D01*
X124174112Y-97728778D01*
X124183508Y-97738142D01*
X124282624Y-97847911D01*
X124400423Y-97978373D01*
X124408773Y-97988660D01*
X124497830Y-98111035D01*
X124599225Y-98250363D01*
X124606453Y-98261480D01*
X124768340Y-98541768D01*
X124774354Y-98553575D01*
X124782690Y-98572321D01*
X124905869Y-98849322D01*
X124910613Y-98861710D01*
X125010301Y-99169632D01*
X125013717Y-99182451D01*
X125080477Y-99499144D01*
X125082527Y-99512251D01*
X125094888Y-99632513D01*
X125102427Y-99705852D01*
X125115622Y-99834230D01*
X125116281Y-99847473D01*
X125115481Y-100122789D01*
X125115428Y-100140856D01*
X125112590Y-100167082D01*
X125110341Y-100177497D01*
X125111294Y-100186852D01*
X125111272Y-100187543D01*
X125109728Y-100196820D01*
X125111202Y-100206624D01*
X125111202Y-100206625D01*
X125112442Y-100214876D01*
X125113809Y-100236479D01*
X125097631Y-100946090D01*
X125097489Y-100949857D01*
X125058101Y-101696384D01*
X125057846Y-101700144D01*
X124996149Y-102445132D01*
X124995782Y-102448883D01*
X124916474Y-103150605D01*
X124911829Y-103191700D01*
X124911350Y-103195439D01*
X124810571Y-103898065D01*
X124805668Y-103919150D01*
X124803088Y-103927081D01*
X124803088Y-103927084D01*
X124800021Y-103936511D01*
X124800018Y-103946425D01*
X124800014Y-103957809D01*
X124798407Y-103977825D01*
X123813641Y-110083380D01*
X123807159Y-110107598D01*
X123807095Y-110107905D01*
X123803574Y-110117173D01*
X123803089Y-110127078D01*
X123801062Y-110136782D01*
X123800301Y-110136623D01*
X123797475Y-110152048D01*
X123782947Y-110196845D01*
X123770862Y-110234111D01*
X123759795Y-110258813D01*
X123705177Y-110352280D01*
X123689089Y-110374048D01*
X123615774Y-110453687D01*
X123595407Y-110471517D01*
X123506769Y-110533662D01*
X123483066Y-110546730D01*
X123383201Y-110588510D01*
X123357254Y-110596214D01*
X123250768Y-110615700D01*
X123223777Y-110617684D01*
X123137557Y-110614729D01*
X123122093Y-110612127D01*
X123121983Y-110612897D01*
X123112163Y-110611494D01*
X123102687Y-110608574D01*
X123088922Y-110608783D01*
X123086772Y-110608816D01*
X123064201Y-110607127D01*
X119515643Y-110017444D01*
X117097737Y-109615648D01*
X117096908Y-109615445D01*
X117095710Y-109614835D01*
X117082685Y-109612772D01*
X117035144Y-109605242D01*
X117034202Y-109605089D01*
X117008505Y-109600819D01*
X117008495Y-109600818D01*
X117005078Y-109600250D01*
X117003766Y-109600240D01*
X117002868Y-109600130D01*
X116980359Y-109596565D01*
X116980356Y-109596565D01*
X116970562Y-109595014D01*
X116964648Y-109595951D01*
X116583035Y-109612772D01*
X116198514Y-109663886D01*
X116195818Y-109664490D01*
X116195810Y-109664491D01*
X115822695Y-109748026D01*
X115822687Y-109748028D01*
X115819981Y-109748634D01*
X115817333Y-109749478D01*
X115817331Y-109749478D01*
X115453013Y-109865520D01*
X115453004Y-109865523D01*
X115450374Y-109866361D01*
X115363552Y-109902707D01*
X115095115Y-110015081D01*
X115095109Y-110015084D01*
X115092558Y-110016152D01*
X114940769Y-110096057D01*
X114815587Y-110161956D01*
X114749311Y-110196845D01*
X114746980Y-110198348D01*
X114425622Y-110405537D01*
X114425615Y-110405542D01*
X114423293Y-110407039D01*
X114117035Y-110645104D01*
X114115008Y-110646988D01*
X114115001Y-110646994D01*
X114025622Y-110730071D01*
X113832911Y-110909193D01*
X113826429Y-110916381D01*
X113581829Y-111187604D01*
X113581828Y-111187606D01*
X113577087Y-111192863D01*
X113572604Y-111196826D01*
X113571355Y-111198944D01*
X113567574Y-111205358D01*
X113567572Y-111205360D01*
X113564264Y-111210972D01*
X113551032Y-111229395D01*
X113044627Y-111815046D01*
X113040706Y-111819375D01*
X112490065Y-112399501D01*
X112482922Y-112407026D01*
X112478814Y-112411157D01*
X112171301Y-112706431D01*
X111894413Y-112972299D01*
X111890107Y-112976246D01*
X111280327Y-113509694D01*
X111275842Y-113513438D01*
X110641971Y-114018063D01*
X110637317Y-114021594D01*
X110469992Y-114142568D01*
X109980766Y-114496273D01*
X109975988Y-114499562D01*
X109298073Y-114943343D01*
X109293134Y-114946414D01*
X109220688Y-114989178D01*
X109209953Y-114995515D01*
X109141122Y-115012918D01*
X109073809Y-114990346D01*
X109029386Y-114934965D01*
X109021956Y-114864358D01*
X109056808Y-114797914D01*
X115042317Y-108812405D01*
X115104629Y-108778379D01*
X115131412Y-108775500D01*
X121367130Y-108775500D01*
X121422760Y-108788446D01*
X121460534Y-108807033D01*
X121560252Y-108856101D01*
X121566481Y-108857712D01*
X121566484Y-108857713D01*
X121593672Y-108864744D01*
X121593680Y-108864746D01*
X121596063Y-108865362D01*
X121598480Y-108865788D01*
X121598493Y-108865791D01*
X122875911Y-109091033D01*
X122956466Y-109105237D01*
X122958917Y-109105473D01*
X122958924Y-109105474D01*
X122986876Y-109108166D01*
X122986879Y-109108166D01*
X122993286Y-109108783D01*
X123119880Y-109095031D01*
X123148800Y-109091889D01*
X123148801Y-109091889D01*
X123156679Y-109091033D01*
X123164097Y-109088245D01*
X123164100Y-109088244D01*
X123303102Y-109035996D01*
X123303104Y-109035995D01*
X123310524Y-109033206D01*
X123445155Y-108938936D01*
X123552112Y-108814148D01*
X123624676Y-108666679D01*
X123633938Y-108630868D01*
X123778306Y-107812109D01*
X123781852Y-107775290D01*
X123764102Y-107611896D01*
X123758676Y-107597459D01*
X123709065Y-107465473D01*
X123709064Y-107465471D01*
X123706275Y-107458051D01*
X123612005Y-107323420D01*
X123604709Y-107317166D01*
X123493234Y-107221621D01*
X123487216Y-107216463D01*
X123480104Y-107212963D01*
X123474636Y-107209358D01*
X123428776Y-107155161D01*
X123419498Y-107084773D01*
X123449746Y-107020543D01*
X123489011Y-106991374D01*
X123489945Y-106991052D01*
X123664897Y-106887586D01*
X123692519Y-106862540D01*
X123810739Y-106755345D01*
X123810740Y-106755344D01*
X123815470Y-106751055D01*
X123935514Y-106587034D01*
X123985974Y-106476821D01*
X124017472Y-106408024D01*
X124017474Y-106408019D01*
X124020126Y-106402226D01*
X124027498Y-106370296D01*
X124064412Y-106210399D01*
X124065848Y-106204179D01*
X124070814Y-106000983D01*
X124054608Y-105910912D01*
X124041783Y-105839637D01*
X124034820Y-105800939D01*
X124023905Y-105773647D01*
X123961708Y-105618143D01*
X123961707Y-105618141D01*
X123959338Y-105612218D01*
X123847449Y-105442530D01*
X123703724Y-105298806D01*
X123693885Y-105292318D01*
X123639338Y-105256351D01*
X123534036Y-105186917D01*
X123497459Y-105172287D01*
X123477269Y-105164212D01*
X123345315Y-105111434D01*
X123340601Y-105110346D01*
X123340599Y-105110345D01*
X123340435Y-105110307D01*
X123340423Y-105110305D01*
X123338818Y-105109934D01*
X123206002Y-105086515D01*
X122934501Y-105038642D01*
X122867286Y-105003651D01*
X120087102Y-102223468D01*
X120086174Y-102222531D01*
X120030570Y-102165750D01*
X120030569Y-102165749D01*
X120025641Y-102160717D01*
X120019722Y-102156903D01*
X120019719Y-102156900D01*
X119990904Y-102138330D01*
X119980551Y-102130891D01*
X119973540Y-102125294D01*
X119948261Y-102105114D01*
X119941924Y-102102051D01*
X119941920Y-102102048D01*
X119919592Y-102091255D01*
X119906175Y-102083726D01*
X119885321Y-102070287D01*
X119879397Y-102066469D01*
X119840550Y-102052330D01*
X119828829Y-102047379D01*
X119791621Y-102029392D01*
X119784757Y-102027807D01*
X119784756Y-102027807D01*
X119760594Y-102022229D01*
X119745841Y-102017859D01*
X119743030Y-102016836D01*
X119715908Y-102006964D01*
X119674890Y-102001782D01*
X119662366Y-101999551D01*
X119622099Y-101990254D01*
X119615053Y-101990229D01*
X119615049Y-101990229D01*
X119583162Y-101990118D01*
X119582342Y-101990091D01*
X119581538Y-101989989D01*
X119546422Y-101989989D01*
X119545982Y-101989988D01*
X119545461Y-101989986D01*
X119448117Y-101989646D01*
X119446958Y-101989905D01*
X119445409Y-101989989D01*
X115838902Y-101989989D01*
X115770781Y-101969987D01*
X115749807Y-101953084D01*
X113736889Y-99940167D01*
X120016087Y-99940167D01*
X120017306Y-99971205D01*
X120025878Y-100189368D01*
X120026650Y-100209028D01*
X120074991Y-100473718D01*
X120160145Y-100728956D01*
X120280413Y-100969649D01*
X120282938Y-100973303D01*
X120282939Y-100973304D01*
X120349498Y-101069607D01*
X120433395Y-101190995D01*
X120616038Y-101388578D01*
X120619492Y-101391390D01*
X120821243Y-101555641D01*
X120821247Y-101555644D01*
X120824700Y-101558455D01*
X120828522Y-101560756D01*
X120984422Y-101654615D01*
X121055215Y-101697236D01*
X121151761Y-101738118D01*
X121298882Y-101800417D01*
X121298887Y-101800419D01*
X121302985Y-101802154D01*
X121307282Y-101803293D01*
X121307287Y-101803295D01*
X121558766Y-101869973D01*
X121563066Y-101871113D01*
X121567483Y-101871636D01*
X121567484Y-101871636D01*
X121649957Y-101881397D01*
X121830269Y-101902738D01*
X122099263Y-101896399D01*
X122103658Y-101895667D01*
X122103663Y-101895667D01*
X122360277Y-101852955D01*
X122360281Y-101852954D01*
X122364679Y-101852222D01*
X122531554Y-101799447D01*
X122616977Y-101772431D01*
X122616979Y-101772430D01*
X122621223Y-101771088D01*
X122863776Y-101654615D01*
X122979259Y-101577452D01*
X123083790Y-101507607D01*
X123083794Y-101507604D01*
X123087498Y-101505129D01*
X123090815Y-101502158D01*
X123090819Y-101502155D01*
X123284607Y-101328584D01*
X123284608Y-101328583D01*
X123287925Y-101325612D01*
X123461058Y-101119645D01*
X123474251Y-101098492D01*
X123552325Y-100973304D01*
X123603444Y-100891338D01*
X123619571Y-100854861D01*
X123710442Y-100649313D01*
X123712240Y-100645246D01*
X123785276Y-100386280D01*
X123795704Y-100308639D01*
X123820667Y-100122789D01*
X123820668Y-100122781D01*
X123821094Y-100119607D01*
X123822364Y-100079198D01*
X123824752Y-100003222D01*
X123824752Y-100003217D01*
X123824853Y-100000000D01*
X123818359Y-99908272D01*
X123806165Y-99736053D01*
X123805850Y-99731604D01*
X123798933Y-99699473D01*
X123750155Y-99472915D01*
X123749218Y-99468563D01*
X123738618Y-99439828D01*
X123657630Y-99220303D01*
X123656089Y-99216126D01*
X123633690Y-99174613D01*
X123530434Y-98983245D01*
X123530434Y-98983244D01*
X123528321Y-98979329D01*
X123368462Y-98762897D01*
X123364214Y-98758581D01*
X123230634Y-98622887D01*
X123179702Y-98571149D01*
X123176163Y-98568448D01*
X123176156Y-98568442D01*
X122988728Y-98425402D01*
X122965808Y-98407910D01*
X122948914Y-98398449D01*
X122734933Y-98278613D01*
X122734930Y-98278612D01*
X122731047Y-98276437D01*
X122726908Y-98274836D01*
X122726900Y-98274832D01*
X122541034Y-98202927D01*
X122480104Y-98179355D01*
X122475779Y-98178352D01*
X122475774Y-98178351D01*
X122331762Y-98144971D01*
X122217985Y-98118599D01*
X121949920Y-98095382D01*
X121945485Y-98095626D01*
X121945481Y-98095626D01*
X121836438Y-98101627D01*
X121681259Y-98110167D01*
X121676896Y-98111035D01*
X121676895Y-98111035D01*
X121640799Y-98118215D01*
X121417361Y-98162660D01*
X121280158Y-98210842D01*
X121167700Y-98250334D01*
X121167697Y-98250335D01*
X121163492Y-98251812D01*
X121159539Y-98253865D01*
X121159533Y-98253868D01*
X121024711Y-98323903D01*
X120924717Y-98375846D01*
X120921102Y-98378429D01*
X120921096Y-98378433D01*
X120818974Y-98451411D01*
X120705801Y-98532286D01*
X120702574Y-98535364D01*
X120702572Y-98535366D01*
X120531256Y-98698793D01*
X120511111Y-98718010D01*
X120508355Y-98721506D01*
X120479128Y-98758581D01*
X120344533Y-98929314D01*
X120289069Y-99024802D01*
X120211627Y-99158127D01*
X120211624Y-99158133D01*
X120209389Y-99161981D01*
X120177650Y-99240342D01*
X120110050Y-99407236D01*
X120110047Y-99407244D01*
X120108377Y-99411368D01*
X120043512Y-99672500D01*
X120016087Y-99940167D01*
X113736889Y-99940167D01*
X112314702Y-98517980D01*
X112313774Y-98517043D01*
X112258169Y-98460261D01*
X112258168Y-98460260D01*
X112253240Y-98455228D01*
X112247321Y-98451414D01*
X112247318Y-98451411D01*
X112218503Y-98432841D01*
X112208150Y-98425402D01*
X112194462Y-98414475D01*
X112175860Y-98399625D01*
X112169523Y-98396562D01*
X112169519Y-98396559D01*
X112147191Y-98385766D01*
X112133774Y-98378237D01*
X112112920Y-98364798D01*
X112106996Y-98360980D01*
X112068149Y-98346841D01*
X112056428Y-98341890D01*
X112019220Y-98323903D01*
X112012356Y-98322318D01*
X112012355Y-98322318D01*
X111988193Y-98316740D01*
X111973440Y-98312370D01*
X111960384Y-98307618D01*
X111943507Y-98301475D01*
X111902489Y-98296293D01*
X111889965Y-98294062D01*
X111849698Y-98284765D01*
X111842652Y-98284740D01*
X111842648Y-98284740D01*
X111810761Y-98284629D01*
X111809941Y-98284602D01*
X111809137Y-98284500D01*
X111774021Y-98284500D01*
X111773581Y-98284499D01*
X111773060Y-98284497D01*
X111675716Y-98284157D01*
X111674557Y-98284416D01*
X111673008Y-98284500D01*
X108118954Y-98284500D01*
X108050833Y-98264498D01*
X108004340Y-98210842D01*
X107994236Y-98140568D01*
X108023730Y-98075988D01*
X108028854Y-98070421D01*
X108192283Y-97903242D01*
X108192287Y-97903237D01*
X108195477Y-97899974D01*
X108307986Y-97745403D01*
X108355100Y-97680676D01*
X108355102Y-97680673D01*
X108357787Y-97676984D01*
X108486206Y-97432899D01*
X108578045Y-97172832D01*
X108614516Y-96987792D01*
X108630499Y-96906704D01*
X108630500Y-96906698D01*
X108631380Y-96902232D01*
X108634539Y-96838776D01*
X108644867Y-96631336D01*
X108644867Y-96631330D01*
X108645094Y-96626767D01*
X108618898Y-96352208D01*
X108553343Y-96084306D01*
X108449801Y-95828674D01*
X108447500Y-95824744D01*
X108447497Y-95824738D01*
X108312745Y-95594597D01*
X108312740Y-95594590D01*
X108310442Y-95590665D01*
X108273882Y-95544949D01*
X108141036Y-95378834D01*
X108141035Y-95378833D01*
X108138184Y-95375268D01*
X108064033Y-95306000D01*
X107939972Y-95190108D01*
X107939969Y-95190106D01*
X107936636Y-95186992D01*
X107710021Y-95029784D01*
X107680865Y-95015279D01*
X107467173Y-94908968D01*
X107467170Y-94908967D01*
X107463086Y-94906935D01*
X107201002Y-94821020D01*
X107196510Y-94820240D01*
X106933043Y-94774494D01*
X106933035Y-94774493D01*
X106929262Y-94773838D01*
X106919029Y-94773329D01*
X106843695Y-94769578D01*
X106843687Y-94769578D01*
X106842124Y-94769500D01*
X106669930Y-94769500D01*
X106667662Y-94769665D01*
X106667650Y-94769665D01*
X106533397Y-94779406D01*
X106464917Y-94784375D01*
X106460462Y-94785359D01*
X106460459Y-94785359D01*
X106200053Y-94842852D01*
X106200050Y-94842853D01*
X106195597Y-94843836D01*
X105937681Y-94941551D01*
X105933694Y-94943765D01*
X105933693Y-94943766D01*
X105724564Y-95059927D01*
X105696572Y-95075475D01*
X105628554Y-95127385D01*
X105542927Y-95192734D01*
X105477322Y-95242802D01*
X105474129Y-95246068D01*
X105474127Y-95246070D01*
X105287717Y-95436758D01*
X105287713Y-95436763D01*
X105284523Y-95440026D01*
X105281836Y-95443718D01*
X105281834Y-95443720D01*
X105144201Y-95632808D01*
X105122213Y-95663016D01*
X104993794Y-95907101D01*
X104901955Y-96167168D01*
X104901075Y-96171634D01*
X104864587Y-96356760D01*
X104848620Y-96437768D01*
X104848393Y-96442322D01*
X104848393Y-96442324D01*
X104838825Y-96634518D01*
X104834906Y-96713233D01*
X104861102Y-96987792D01*
X104862187Y-96992226D01*
X104862188Y-96992232D01*
X104905288Y-97168366D01*
X104926657Y-97255694D01*
X105030199Y-97511326D01*
X105032500Y-97515256D01*
X105032503Y-97515262D01*
X105167255Y-97745403D01*
X105167260Y-97745410D01*
X105169558Y-97749335D01*
X105172405Y-97752895D01*
X105338180Y-97960185D01*
X105341816Y-97964732D01*
X105345157Y-97967853D01*
X105460915Y-98075988D01*
X105543364Y-98153008D01*
X105769979Y-98310216D01*
X105774055Y-98312244D01*
X105774057Y-98312245D01*
X106012827Y-98431032D01*
X106012830Y-98431033D01*
X106016914Y-98433065D01*
X106278998Y-98518980D01*
X106283489Y-98519760D01*
X106283490Y-98519760D01*
X106546957Y-98565506D01*
X106546965Y-98565507D01*
X106550738Y-98566162D01*
X106554575Y-98566353D01*
X106636305Y-98570422D01*
X106636313Y-98570422D01*
X106637876Y-98570500D01*
X106810070Y-98570500D01*
X106848275Y-98567728D01*
X106896038Y-98564263D01*
X106965427Y-98579284D01*
X107015681Y-98629434D01*
X107030843Y-98698793D01*
X107006100Y-98765339D01*
X106994250Y-98779028D01*
X106496183Y-99277095D01*
X106433871Y-99311121D01*
X106407088Y-99314000D01*
X100906500Y-99314000D01*
X100838379Y-99293998D01*
X100791886Y-99240342D01*
X100780500Y-99188000D01*
X100780500Y-95760787D01*
X100782051Y-95741076D01*
X100783187Y-95733904D01*
X100784219Y-95727388D01*
X100780673Y-95659721D01*
X100780500Y-95653127D01*
X100780500Y-95632808D01*
X100780156Y-95629534D01*
X100778376Y-95612595D01*
X100777859Y-95606020D01*
X100775228Y-95555816D01*
X100774313Y-95538355D01*
X100770725Y-95524964D01*
X100767122Y-95505522D01*
X100766365Y-95498315D01*
X100766364Y-95498311D01*
X100765674Y-95491744D01*
X100749193Y-95441023D01*
X100744734Y-95427298D01*
X100742860Y-95420972D01*
X100727028Y-95361885D01*
X100727027Y-95361882D01*
X100725320Y-95355512D01*
X100719027Y-95343160D01*
X100711464Y-95324903D01*
X100711023Y-95323547D01*
X100707179Y-95311716D01*
X100703879Y-95306000D01*
X100673297Y-95253029D01*
X100670151Y-95247234D01*
X100642381Y-95192734D01*
X100642379Y-95192731D01*
X100639383Y-95186851D01*
X100630661Y-95176080D01*
X100619466Y-95159791D01*
X100612533Y-95147784D01*
X100594166Y-95127385D01*
X100567185Y-95097420D01*
X100562901Y-95092404D01*
X100552195Y-95079184D01*
X100550119Y-95076620D01*
X100535770Y-95062271D01*
X100531229Y-95057487D01*
X100490286Y-95012015D01*
X100490284Y-95012014D01*
X100485871Y-95007112D01*
X100474649Y-94998959D01*
X100459621Y-94986122D01*
X88478465Y-83004966D01*
X88445519Y-82947206D01*
X88431027Y-82890764D01*
X88429056Y-82883087D01*
X88349878Y-82739061D01*
X88325855Y-82710935D01*
X87349065Y-81734146D01*
X87320939Y-81710122D01*
X87176913Y-81630944D01*
X87017723Y-81590071D01*
X86853369Y-81590071D01*
X86845693Y-81592042D01*
X86845684Y-81592043D01*
X86755015Y-81615323D01*
X86684060Y-81612891D01*
X86625684Y-81572483D01*
X86598421Y-81506930D01*
X86610927Y-81437043D01*
X86634585Y-81404187D01*
X86818539Y-81220233D01*
X86833573Y-81207392D01*
X86843316Y-81200313D01*
X86851338Y-81194485D01*
X86857166Y-81186464D01*
X86864180Y-81179450D01*
X86864816Y-81180086D01*
X86875629Y-81168776D01*
X86941758Y-81116039D01*
X86965648Y-81101028D01*
X87061119Y-81055052D01*
X87087748Y-81045734D01*
X87191058Y-81022155D01*
X87219094Y-81018996D01*
X87325060Y-81018996D01*
X87353096Y-81022155D01*
G37*
%TD.AperFunction*%
%TA.AperFunction,NonConductor*%
G36*
X81679090Y-86463848D02*
G01*
X81735926Y-86506395D01*
X81760737Y-86572915D01*
X81749437Y-86634756D01*
X81744711Y-86644983D01*
X81744709Y-86644989D01*
X81742035Y-86650776D01*
X81722465Y-86734213D01*
X81699160Y-86833576D01*
X81695621Y-86848663D01*
X81694561Y-86886623D01*
X81692353Y-86965657D01*
X81689945Y-87051840D01*
X81691054Y-87058127D01*
X81714495Y-87191064D01*
X81725241Y-87252008D01*
X81800065Y-87440992D01*
X81803564Y-87446339D01*
X81890055Y-87578511D01*
X81911360Y-87611069D01*
X81914598Y-87614665D01*
X81914724Y-87614806D01*
X81914734Y-87614816D01*
X81915822Y-87616025D01*
X82410274Y-88110476D01*
X82528216Y-88206668D01*
X82708343Y-88300837D01*
X82724288Y-88305409D01*
X82778652Y-88337433D01*
X87962595Y-93521376D01*
X87996621Y-93583688D01*
X87999500Y-93610471D01*
X87999500Y-98929213D01*
X87997949Y-98948923D01*
X87995781Y-98962612D01*
X87996126Y-98969200D01*
X87996126Y-98969204D01*
X87999327Y-99030280D01*
X87999500Y-99036874D01*
X87999500Y-99057192D01*
X87999843Y-99060459D01*
X87999844Y-99060470D01*
X88001624Y-99077400D01*
X88002141Y-99083966D01*
X88005687Y-99151646D01*
X88009274Y-99165031D01*
X88012878Y-99184479D01*
X88014326Y-99198256D01*
X88016366Y-99204533D01*
X88016366Y-99204535D01*
X88035265Y-99262701D01*
X88037138Y-99269025D01*
X88052970Y-99328109D01*
X88052972Y-99328115D01*
X88054680Y-99334488D01*
X88057676Y-99340367D01*
X88057677Y-99340371D01*
X88060973Y-99346840D01*
X88068536Y-99365097D01*
X88072821Y-99378284D01*
X88076121Y-99383999D01*
X88076121Y-99384000D01*
X88106703Y-99436971D01*
X88109849Y-99442766D01*
X88137619Y-99497266D01*
X88140617Y-99503149D01*
X88144771Y-99508278D01*
X88144771Y-99508279D01*
X88149339Y-99513920D01*
X88160534Y-99530209D01*
X88167467Y-99542216D01*
X88171888Y-99547126D01*
X88212815Y-99592580D01*
X88217099Y-99597596D01*
X88229881Y-99613380D01*
X88244230Y-99627729D01*
X88248771Y-99632513D01*
X88284776Y-99672500D01*
X88294129Y-99682888D01*
X88305351Y-99691041D01*
X88320379Y-99703878D01*
X89117095Y-100500594D01*
X89151121Y-100562906D01*
X89154000Y-100589689D01*
X89154000Y-105664000D01*
X89667073Y-105664000D01*
X89735194Y-105684002D01*
X89771592Y-105719631D01*
X89784591Y-105738939D01*
X89788272Y-105742797D01*
X89791620Y-105746962D01*
X89791265Y-105747248D01*
X89791688Y-105747768D01*
X89792042Y-105747487D01*
X89794630Y-105750738D01*
X89796995Y-105754147D01*
X89799785Y-105757214D01*
X89799788Y-105757217D01*
X89812761Y-105771475D01*
X89812773Y-105771488D01*
X89813767Y-105772580D01*
X89876009Y-105834822D01*
X89878084Y-105836945D01*
X89948645Y-105910912D01*
X89952930Y-105914100D01*
X89952931Y-105914101D01*
X89954764Y-105915465D01*
X89968646Y-105927459D01*
X91844998Y-107803811D01*
X91879024Y-107866123D01*
X91873959Y-107936938D01*
X91831412Y-107993774D01*
X91765020Y-108018576D01*
X91744288Y-108020080D01*
X91739833Y-108021064D01*
X91739830Y-108021064D01*
X91479424Y-108078557D01*
X91479421Y-108078558D01*
X91474968Y-108079541D01*
X91217052Y-108177256D01*
X91213065Y-108179470D01*
X91213064Y-108179471D01*
X91004813Y-108295144D01*
X90975943Y-108311180D01*
X90925107Y-108349977D01*
X90765994Y-108471409D01*
X90756693Y-108478507D01*
X90753500Y-108481773D01*
X90753498Y-108481775D01*
X90567088Y-108672463D01*
X90567084Y-108672468D01*
X90563894Y-108675731D01*
X90561207Y-108679423D01*
X90561205Y-108679425D01*
X90418867Y-108874977D01*
X90401584Y-108898721D01*
X90273165Y-109142806D01*
X90181326Y-109402873D01*
X90167594Y-109472544D01*
X90129762Y-109664490D01*
X90127991Y-109673473D01*
X90127764Y-109678027D01*
X90127764Y-109678029D01*
X90115219Y-109930020D01*
X90114277Y-109948938D01*
X90118372Y-109991861D01*
X90123667Y-110047358D01*
X90110226Y-110117071D01*
X90061228Y-110168449D01*
X89992232Y-110185182D01*
X89925142Y-110161956D01*
X89909142Y-110148420D01*
X85248702Y-105487980D01*
X85247774Y-105487043D01*
X85192169Y-105430261D01*
X85192168Y-105430260D01*
X85187240Y-105425228D01*
X85181321Y-105421414D01*
X85181318Y-105421411D01*
X85152503Y-105402841D01*
X85142150Y-105395402D01*
X85135139Y-105389805D01*
X85109860Y-105369625D01*
X85103523Y-105366562D01*
X85103519Y-105366559D01*
X85081191Y-105355766D01*
X85067774Y-105348237D01*
X85046920Y-105334798D01*
X85040996Y-105330980D01*
X85002149Y-105316841D01*
X84990428Y-105311890D01*
X84953220Y-105293903D01*
X84946356Y-105292318D01*
X84946355Y-105292318D01*
X84922193Y-105286740D01*
X84907440Y-105282370D01*
X84904629Y-105281347D01*
X84877507Y-105271475D01*
X84836489Y-105266293D01*
X84823965Y-105264062D01*
X84783698Y-105254765D01*
X84776652Y-105254740D01*
X84776648Y-105254740D01*
X84744761Y-105254629D01*
X84743941Y-105254602D01*
X84743137Y-105254500D01*
X84708021Y-105254500D01*
X84707581Y-105254499D01*
X84707060Y-105254497D01*
X84609716Y-105254157D01*
X84608557Y-105254416D01*
X84607008Y-105254500D01*
X78383191Y-105254500D01*
X78315070Y-105234498D01*
X78287523Y-105210498D01*
X78270321Y-105190428D01*
X78185155Y-105091064D01*
X78050524Y-104996794D01*
X78043104Y-104994005D01*
X78043102Y-104994004D01*
X77904100Y-104941756D01*
X77904097Y-104941755D01*
X77896679Y-104938967D01*
X77888801Y-104938111D01*
X77888800Y-104938111D01*
X77859880Y-104934969D01*
X77733286Y-104921217D01*
X77726878Y-104921834D01*
X77726874Y-104921834D01*
X77699595Y-104924461D01*
X77696467Y-104924762D01*
X76336064Y-105164639D01*
X76300252Y-105173899D01*
X76294471Y-105176744D01*
X76294470Y-105176744D01*
X76273796Y-105186917D01*
X76152784Y-105246463D01*
X76146768Y-105251619D01*
X76146764Y-105251622D01*
X76034042Y-105348237D01*
X76027995Y-105353420D01*
X75933725Y-105488051D01*
X75875898Y-105641896D01*
X75858148Y-105805290D01*
X75858765Y-105811698D01*
X75858765Y-105811702D01*
X75860991Y-105834822D01*
X75861693Y-105842109D01*
X76006063Y-106660867D01*
X76006679Y-106663247D01*
X76006680Y-106663254D01*
X76013123Y-106688167D01*
X76015324Y-106696679D01*
X76018168Y-106702459D01*
X76018170Y-106702464D01*
X76033810Y-106734248D01*
X76087888Y-106844148D01*
X76194845Y-106968936D01*
X76329476Y-107063206D01*
X76336896Y-107065995D01*
X76336898Y-107065996D01*
X76475894Y-107118242D01*
X76475899Y-107118243D01*
X76483321Y-107121033D01*
X76491206Y-107121890D01*
X76497572Y-107123406D01*
X76559203Y-107158651D01*
X76591995Y-107221621D01*
X76585537Y-107292323D01*
X76558624Y-107333156D01*
X76557852Y-107333781D01*
X76553800Y-107338714D01*
X76432892Y-107485909D01*
X76432889Y-107485913D01*
X76428839Y-107490844D01*
X76401619Y-107542472D01*
X76346454Y-107647102D01*
X76334043Y-107670641D01*
X76332262Y-107676770D01*
X76332262Y-107676771D01*
X76288846Y-107826211D01*
X76277336Y-107865827D01*
X76261034Y-108068429D01*
X76261811Y-108074757D01*
X76261811Y-108074759D01*
X76280437Y-108226448D01*
X76285805Y-108270170D01*
X76350636Y-108462810D01*
X76452878Y-108638480D01*
X76588355Y-108790004D01*
X76618518Y-108812405D01*
X76746412Y-108907389D01*
X76746415Y-108907391D01*
X76751532Y-108911191D01*
X76757312Y-108913886D01*
X76757315Y-108913888D01*
X76807500Y-108937289D01*
X76935745Y-108997090D01*
X76941953Y-108998569D01*
X76941956Y-108998570D01*
X77050858Y-109024514D01*
X77133469Y-109044195D01*
X77336625Y-109050579D01*
X77341415Y-109049991D01*
X77341421Y-109049991D01*
X77341541Y-109049976D01*
X77343243Y-109049767D01*
X77344871Y-109049480D01*
X78028751Y-108928894D01*
X78028753Y-108928894D01*
X78031881Y-108928342D01*
X78090051Y-108911882D01*
X78172191Y-108888639D01*
X78178326Y-108886903D01*
X78358781Y-108793364D01*
X78394247Y-108764644D01*
X78511780Y-108669467D01*
X78511782Y-108669465D01*
X78516740Y-108665450D01*
X78520788Y-108660522D01*
X78520791Y-108660519D01*
X78641700Y-108513323D01*
X78645754Y-108508388D01*
X78718216Y-108370951D01*
X78737573Y-108334238D01*
X78737574Y-108334235D01*
X78740550Y-108328591D01*
X78797257Y-108133405D01*
X78813558Y-107930803D01*
X78805208Y-107862798D01*
X78789565Y-107735396D01*
X78789564Y-107735393D01*
X78788787Y-107729062D01*
X78723957Y-107536422D01*
X78621715Y-107360752D01*
X78486238Y-107209228D01*
X78323060Y-107088041D01*
X78232249Y-107045695D01*
X78178964Y-106998778D01*
X78159503Y-106930500D01*
X78180045Y-106862540D01*
X78234068Y-106816475D01*
X78285499Y-106805500D01*
X84320588Y-106805500D01*
X84388709Y-106825502D01*
X84409683Y-106842405D01*
X93171298Y-115604020D01*
X93172226Y-115604957D01*
X93232760Y-115666772D01*
X93238679Y-115670586D01*
X93238682Y-115670589D01*
X93267497Y-115689159D01*
X93277850Y-115696598D01*
X93310140Y-115722375D01*
X93316482Y-115725441D01*
X93338819Y-115736240D01*
X93352229Y-115743766D01*
X93373076Y-115757200D01*
X93379004Y-115761020D01*
X93417835Y-115775153D01*
X93429576Y-115780113D01*
X93460435Y-115795031D01*
X93460437Y-115795032D01*
X93466780Y-115798098D01*
X93495711Y-115804777D01*
X93497816Y-115805263D01*
X93512566Y-115809633D01*
X93535869Y-115818115D01*
X93535877Y-115818117D01*
X93542493Y-115820525D01*
X93555746Y-115822199D01*
X93583485Y-115825704D01*
X93596033Y-115827939D01*
X93629438Y-115835651D01*
X93629444Y-115835652D01*
X93636302Y-115837235D01*
X93643342Y-115837260D01*
X93643346Y-115837260D01*
X93675239Y-115837371D01*
X93676059Y-115837398D01*
X93676863Y-115837500D01*
X93711979Y-115837500D01*
X93712419Y-115837501D01*
X93810284Y-115837843D01*
X93811443Y-115837584D01*
X93812992Y-115837500D01*
X107105372Y-115837500D01*
X107173493Y-115857502D01*
X107219986Y-115911158D01*
X107230090Y-115981432D01*
X107200596Y-116046012D01*
X107159097Y-116077472D01*
X107136224Y-116088254D01*
X107130885Y-116090621D01*
X106382821Y-116401744D01*
X106377376Y-116403862D01*
X105615686Y-116679979D01*
X105610149Y-116681842D01*
X105438330Y-116735256D01*
X104836485Y-116922353D01*
X104830898Y-116923950D01*
X104293284Y-117064111D01*
X104046879Y-117128351D01*
X104041193Y-117129693D01*
X103248580Y-117297524D01*
X103242838Y-117298601D01*
X102672311Y-117392016D01*
X102443297Y-117429513D01*
X102437529Y-117430321D01*
X101855892Y-117498050D01*
X101632771Y-117524032D01*
X101626954Y-117524573D01*
X101484568Y-117534493D01*
X100818715Y-117580880D01*
X100812909Y-117581149D01*
X100347479Y-117591942D01*
X100002920Y-117599932D01*
X99997078Y-117599932D01*
X99652536Y-117591943D01*
X99187090Y-117581149D01*
X99181284Y-117580880D01*
X98519715Y-117534790D01*
X98373045Y-117524572D01*
X98367228Y-117524031D01*
X98138786Y-117497430D01*
X97562469Y-117430321D01*
X97556701Y-117429513D01*
X97327412Y-117391971D01*
X96757161Y-117298601D01*
X96751419Y-117297524D01*
X95958805Y-117129692D01*
X95953119Y-117128350D01*
X95706717Y-117064111D01*
X95169101Y-116923950D01*
X95163514Y-116922353D01*
X94712044Y-116782003D01*
X94389850Y-116681841D01*
X94384313Y-116679978D01*
X93622623Y-116403862D01*
X93617178Y-116401744D01*
X92869114Y-116090621D01*
X92863773Y-116088253D01*
X92130927Y-115742786D01*
X92125702Y-115740173D01*
X91409665Y-115361112D01*
X91404567Y-115358260D01*
X90790047Y-114995515D01*
X90706865Y-114946413D01*
X90701917Y-114943336D01*
X90024011Y-114499561D01*
X90019233Y-114496272D01*
X89362683Y-114021594D01*
X89362682Y-114021593D01*
X89358028Y-114018062D01*
X88724157Y-113513437D01*
X88719672Y-113509693D01*
X88109904Y-112976256D01*
X88105597Y-112972309D01*
X87521186Y-112411157D01*
X87517067Y-112407014D01*
X86959295Y-111819375D01*
X86955391Y-111815065D01*
X86448959Y-111229384D01*
X86435731Y-111210964D01*
X86432434Y-111205371D01*
X86432432Y-111205369D01*
X86427396Y-111196826D01*
X86422913Y-111192863D01*
X86167090Y-110909192D01*
X85974380Y-110730071D01*
X85885000Y-110646993D01*
X85884993Y-110646987D01*
X85882966Y-110645103D01*
X85576707Y-110407038D01*
X85574379Y-110405537D01*
X85574378Y-110405536D01*
X85253020Y-110198347D01*
X85250689Y-110196844D01*
X85200826Y-110170595D01*
X84909890Y-110017440D01*
X84909886Y-110017438D01*
X84907441Y-110016151D01*
X84549626Y-109866360D01*
X84180018Y-109748633D01*
X84177312Y-109748027D01*
X84177304Y-109748025D01*
X83804190Y-109664490D01*
X83804182Y-109664489D01*
X83801486Y-109663885D01*
X83425081Y-109613850D01*
X83419725Y-109613138D01*
X83416964Y-109612771D01*
X83242691Y-109605089D01*
X83042430Y-109596261D01*
X83042428Y-109596261D01*
X83035342Y-109595949D01*
X83029437Y-109595014D01*
X83019645Y-109596565D01*
X83019642Y-109596565D01*
X82996666Y-109600204D01*
X82994873Y-109600429D01*
X82992582Y-109600459D01*
X82987705Y-109601299D01*
X82987692Y-109601300D01*
X82965013Y-109605206D01*
X82963406Y-109605472D01*
X82932458Y-109610374D01*
X82910506Y-109613850D01*
X82910502Y-109613851D01*
X82904289Y-109614835D01*
X82902183Y-109615908D01*
X82900617Y-109616295D01*
X80094884Y-110099432D01*
X77238719Y-110591253D01*
X77225231Y-110592833D01*
X77200232Y-110594402D01*
X77200223Y-110594404D01*
X77190329Y-110595025D01*
X77181108Y-110598674D01*
X77171434Y-110600835D01*
X77171301Y-110600242D01*
X77156027Y-110604104D01*
X77037807Y-110618180D01*
X77012350Y-110618620D01*
X76958423Y-110614082D01*
X76870956Y-110606721D01*
X76845924Y-110602032D01*
X76709811Y-110561944D01*
X76686234Y-110552317D01*
X76560963Y-110485677D01*
X76539805Y-110471507D01*
X76430493Y-110381039D01*
X76412615Y-110362902D01*
X76323726Y-110252298D01*
X76309860Y-110230936D01*
X76306039Y-110223497D01*
X76245031Y-110104722D01*
X76235745Y-110081012D01*
X76235683Y-110080787D01*
X76208143Y-109982063D01*
X76203757Y-109966341D01*
X76201513Y-109950748D01*
X76200914Y-109950851D01*
X76199229Y-109941081D01*
X76199093Y-109931161D01*
X76192720Y-109912426D01*
X76187670Y-109892248D01*
X75216942Y-103975028D01*
X75215280Y-103954673D01*
X75215276Y-103943998D01*
X75215273Y-103934083D01*
X75212207Y-103924659D01*
X75212206Y-103924651D01*
X75209682Y-103916893D01*
X75204764Y-103895708D01*
X75141765Y-103454017D01*
X75099049Y-103154523D01*
X75098553Y-103150605D01*
X75012092Y-102369143D01*
X75011718Y-102365194D01*
X74949900Y-101581411D01*
X74949650Y-101577452D01*
X74940569Y-101385309D01*
X74912531Y-100792034D01*
X74912408Y-100788091D01*
X74912247Y-100777817D01*
X74903048Y-100193529D01*
X74900624Y-100039544D01*
X74902159Y-100017854D01*
X74903435Y-100009796D01*
X74903435Y-100009793D01*
X74904986Y-100000000D01*
X74903241Y-99988982D01*
X74901848Y-99962993D01*
X74902988Y-99940167D01*
X76176087Y-99940167D01*
X76177306Y-99971205D01*
X76185878Y-100189368D01*
X76186650Y-100209028D01*
X76234991Y-100473718D01*
X76320145Y-100728956D01*
X76440413Y-100969649D01*
X76442938Y-100973303D01*
X76442939Y-100973304D01*
X76509498Y-101069607D01*
X76593395Y-101190995D01*
X76776038Y-101388578D01*
X76779492Y-101391390D01*
X76981243Y-101555641D01*
X76981247Y-101555644D01*
X76984700Y-101558455D01*
X76988522Y-101560756D01*
X77144422Y-101654615D01*
X77215215Y-101697236D01*
X77311761Y-101738118D01*
X77458882Y-101800417D01*
X77458887Y-101800419D01*
X77462985Y-101802154D01*
X77467282Y-101803293D01*
X77467287Y-101803295D01*
X77718766Y-101869973D01*
X77723066Y-101871113D01*
X77727483Y-101871636D01*
X77727484Y-101871636D01*
X77809957Y-101881397D01*
X77990269Y-101902738D01*
X78259263Y-101896399D01*
X78263658Y-101895667D01*
X78263663Y-101895667D01*
X78520277Y-101852955D01*
X78520281Y-101852954D01*
X78524679Y-101852222D01*
X78691554Y-101799447D01*
X78776977Y-101772431D01*
X78776979Y-101772430D01*
X78781223Y-101771088D01*
X79023776Y-101654615D01*
X79139259Y-101577452D01*
X79243790Y-101507607D01*
X79243794Y-101507604D01*
X79247498Y-101505129D01*
X79250815Y-101502158D01*
X79250819Y-101502155D01*
X79444607Y-101328584D01*
X79444608Y-101328583D01*
X79447925Y-101325612D01*
X79621058Y-101119645D01*
X79634251Y-101098492D01*
X79712325Y-100973304D01*
X79763444Y-100891338D01*
X79779571Y-100854861D01*
X79870442Y-100649313D01*
X79872240Y-100645246D01*
X79945276Y-100386280D01*
X79955704Y-100308639D01*
X79980667Y-100122789D01*
X79980668Y-100122781D01*
X79981094Y-100119607D01*
X79982364Y-100079198D01*
X79984752Y-100003222D01*
X79984752Y-100003217D01*
X79984853Y-100000000D01*
X79978359Y-99908272D01*
X79966165Y-99736053D01*
X79965850Y-99731604D01*
X79958933Y-99699473D01*
X79937759Y-99601126D01*
X82582541Y-99601126D01*
X82612935Y-99802097D01*
X82683119Y-99992852D01*
X82686479Y-99998272D01*
X82686480Y-99998273D01*
X82786863Y-100160176D01*
X82786866Y-100160180D01*
X82790226Y-100165599D01*
X82929881Y-100313280D01*
X83096379Y-100429863D01*
X83282919Y-100510586D01*
X83328947Y-100520202D01*
X83477144Y-100551162D01*
X83477149Y-100551163D01*
X83481880Y-100552151D01*
X83486762Y-100552407D01*
X83486871Y-100552413D01*
X83486887Y-100552413D01*
X83488539Y-100552500D01*
X84187800Y-100552500D01*
X84235793Y-100547625D01*
X84332868Y-100537765D01*
X84332870Y-100537765D01*
X84339216Y-100537120D01*
X84533172Y-100476338D01*
X84710944Y-100377797D01*
X84865271Y-100245523D01*
X84872287Y-100236479D01*
X84946470Y-100140842D01*
X84989848Y-100084919D01*
X85079587Y-99902545D01*
X85106418Y-99799541D01*
X85129212Y-99712034D01*
X85129212Y-99712031D01*
X85130822Y-99705852D01*
X85135979Y-99607444D01*
X85141125Y-99509256D01*
X85141125Y-99509252D01*
X85141459Y-99502874D01*
X85111065Y-99301903D01*
X85040881Y-99111148D01*
X85021985Y-99080671D01*
X84937137Y-98943824D01*
X84937134Y-98943820D01*
X84933774Y-98938401D01*
X84849536Y-98849322D01*
X84798508Y-98795361D01*
X84798507Y-98795360D01*
X84794119Y-98790720D01*
X84777421Y-98779028D01*
X84706181Y-98729145D01*
X84661853Y-98673688D01*
X84654544Y-98603068D01*
X84686575Y-98539708D01*
X84733348Y-98511035D01*
X84732512Y-98509103D01*
X84739785Y-98505956D01*
X84747398Y-98503744D01*
X84756724Y-98498229D01*
X84882044Y-98424115D01*
X84888865Y-98420081D01*
X85005081Y-98303865D01*
X85016377Y-98284765D01*
X85084709Y-98169221D01*
X85084709Y-98169220D01*
X85088744Y-98162398D01*
X85092378Y-98149892D01*
X85132801Y-98010754D01*
X85134598Y-98004569D01*
X85135633Y-97991416D01*
X85137307Y-97970153D01*
X85137308Y-97970140D01*
X85137500Y-97967694D01*
X85137500Y-97136306D01*
X85137308Y-97133860D01*
X85137307Y-97133847D01*
X85135103Y-97105850D01*
X85134598Y-97099431D01*
X85088744Y-96941602D01*
X85068106Y-96906704D01*
X85009115Y-96806956D01*
X85005081Y-96800135D01*
X84888865Y-96683919D01*
X84747398Y-96600256D01*
X84739786Y-96598045D01*
X84739785Y-96598044D01*
X84595754Y-96556199D01*
X84595755Y-96556199D01*
X84589569Y-96554402D01*
X84576416Y-96553367D01*
X84555153Y-96551693D01*
X84555140Y-96551692D01*
X84552694Y-96551500D01*
X83171306Y-96551500D01*
X83168860Y-96551692D01*
X83168847Y-96551693D01*
X83147584Y-96553367D01*
X83134431Y-96554402D01*
X83128245Y-96556199D01*
X83128246Y-96556199D01*
X82984215Y-96598044D01*
X82984214Y-96598045D01*
X82976602Y-96600256D01*
X82835135Y-96683919D01*
X82718919Y-96800135D01*
X82714885Y-96806956D01*
X82655895Y-96906704D01*
X82635256Y-96941602D01*
X82589402Y-97099431D01*
X82588897Y-97105850D01*
X82586693Y-97133847D01*
X82586692Y-97133860D01*
X82586500Y-97136306D01*
X82586500Y-97967694D01*
X82586692Y-97970140D01*
X82586693Y-97970153D01*
X82588367Y-97991416D01*
X82589402Y-98004569D01*
X82591199Y-98010754D01*
X82631623Y-98149892D01*
X82635256Y-98162398D01*
X82639291Y-98169220D01*
X82639291Y-98169221D01*
X82707623Y-98284765D01*
X82718919Y-98303865D01*
X82835135Y-98420081D01*
X82841956Y-98424115D01*
X82967277Y-98498229D01*
X82976602Y-98503744D01*
X82984216Y-98505956D01*
X82990222Y-98508555D01*
X83044797Y-98553965D01*
X83066158Y-98621672D01*
X83047523Y-98690179D01*
X83013925Y-98725721D01*
X83013056Y-98726203D01*
X83008213Y-98730354D01*
X83008210Y-98730356D01*
X82975280Y-98758581D01*
X82858729Y-98858477D01*
X82734152Y-99019081D01*
X82685903Y-99117137D01*
X82656963Y-99175951D01*
X82644413Y-99201455D01*
X82642804Y-99207633D01*
X82642803Y-99207635D01*
X82602198Y-99363521D01*
X82593178Y-99398148D01*
X82590994Y-99439828D01*
X82582989Y-99592580D01*
X82582541Y-99601126D01*
X79937759Y-99601126D01*
X79910155Y-99472915D01*
X79909218Y-99468563D01*
X79898618Y-99439828D01*
X79817630Y-99220303D01*
X79816089Y-99216126D01*
X79793690Y-99174613D01*
X79690434Y-98983245D01*
X79690434Y-98983244D01*
X79688321Y-98979329D01*
X79528462Y-98762897D01*
X79524214Y-98758581D01*
X79390634Y-98622887D01*
X79339702Y-98571149D01*
X79336163Y-98568448D01*
X79336156Y-98568442D01*
X79148728Y-98425402D01*
X79125808Y-98407910D01*
X79108914Y-98398449D01*
X78894933Y-98278613D01*
X78894930Y-98278612D01*
X78891047Y-98276437D01*
X78886908Y-98274836D01*
X78886900Y-98274832D01*
X78701034Y-98202927D01*
X78640104Y-98179355D01*
X78635779Y-98178352D01*
X78635774Y-98178351D01*
X78491762Y-98144971D01*
X78377985Y-98118599D01*
X78109920Y-98095382D01*
X78105485Y-98095626D01*
X78105481Y-98095626D01*
X77996438Y-98101627D01*
X77841259Y-98110167D01*
X77836896Y-98111035D01*
X77836895Y-98111035D01*
X77800799Y-98118215D01*
X77577361Y-98162660D01*
X77440158Y-98210842D01*
X77327700Y-98250334D01*
X77327697Y-98250335D01*
X77323492Y-98251812D01*
X77319539Y-98253865D01*
X77319533Y-98253868D01*
X77184711Y-98323903D01*
X77084717Y-98375846D01*
X77081102Y-98378429D01*
X77081096Y-98378433D01*
X76978974Y-98451411D01*
X76865801Y-98532286D01*
X76862574Y-98535364D01*
X76862572Y-98535366D01*
X76691256Y-98698793D01*
X76671111Y-98718010D01*
X76668355Y-98721506D01*
X76639128Y-98758581D01*
X76504533Y-98929314D01*
X76449069Y-99024802D01*
X76371627Y-99158127D01*
X76371624Y-99158133D01*
X76369389Y-99161981D01*
X76337650Y-99240342D01*
X76270050Y-99407236D01*
X76270047Y-99407244D01*
X76268377Y-99411368D01*
X76203512Y-99672500D01*
X76176087Y-99940167D01*
X74902988Y-99940167D01*
X74914378Y-99712034D01*
X74915503Y-99689510D01*
X74916754Y-99677011D01*
X74926350Y-99613380D01*
X74952951Y-99436971D01*
X74962170Y-99375838D01*
X74964661Y-99363521D01*
X74998158Y-99232032D01*
X75039851Y-99068369D01*
X75043554Y-99056366D01*
X75056836Y-99019893D01*
X75147778Y-98770154D01*
X75152659Y-98758581D01*
X75166259Y-98730356D01*
X75284863Y-98484199D01*
X75290874Y-98473166D01*
X75297931Y-98461625D01*
X75449757Y-98213308D01*
X75456839Y-98202927D01*
X75640820Y-97960185D01*
X75648901Y-97950561D01*
X75856140Y-97727360D01*
X75865139Y-97718589D01*
X76093581Y-97517141D01*
X76103410Y-97509309D01*
X76110295Y-97504364D01*
X76325804Y-97349562D01*
X76348401Y-97336642D01*
X76349528Y-97336144D01*
X76349529Y-97336143D01*
X76358599Y-97332137D01*
X76374960Y-97317492D01*
X76390682Y-97305501D01*
X82014305Y-93676938D01*
X82031704Y-93667557D01*
X82051792Y-93658684D01*
X82059180Y-93652071D01*
X82059183Y-93652069D01*
X82065310Y-93646585D01*
X82079471Y-93635618D01*
X82305162Y-93485216D01*
X82305172Y-93485209D01*
X82305966Y-93484680D01*
X82557056Y-93306396D01*
X82774226Y-93142315D01*
X82789249Y-93132561D01*
X82796444Y-93128586D01*
X82796446Y-93128585D01*
X82805122Y-93123791D01*
X82809373Y-93119245D01*
X83022936Y-92931044D01*
X83025468Y-92928200D01*
X83025474Y-92928194D01*
X83213770Y-92716690D01*
X83216310Y-92713837D01*
X83253575Y-92660108D01*
X83379872Y-92478008D01*
X83379874Y-92478004D01*
X83382046Y-92474873D01*
X83433331Y-92377640D01*
X83515939Y-92221022D01*
X83515940Y-92221020D01*
X83517719Y-92217647D01*
X83621345Y-91945923D01*
X83648156Y-91837916D01*
X83690491Y-91667371D01*
X83690492Y-91667368D01*
X83691408Y-91663676D01*
X83726883Y-91375034D01*
X83727251Y-91084221D01*
X83692507Y-90795491D01*
X83623158Y-90513067D01*
X83520219Y-90241082D01*
X83385197Y-89983514D01*
X83383039Y-89980386D01*
X83383035Y-89980379D01*
X83222227Y-89747264D01*
X83220066Y-89744131D01*
X83031315Y-89531034D01*
X83027666Y-89526011D01*
X83009328Y-89512687D01*
X82994542Y-89500093D01*
X81694177Y-88206668D01*
X81357587Y-87871875D01*
X81354993Y-87869216D01*
X81222038Y-87728935D01*
X81211555Y-87716324D01*
X81200305Y-87700841D01*
X81200304Y-87700840D01*
X81194479Y-87692823D01*
X81186463Y-87686999D01*
X81179446Y-87679982D01*
X81180082Y-87679346D01*
X81168770Y-87668532D01*
X81126897Y-87616025D01*
X81116032Y-87602401D01*
X81101021Y-87578511D01*
X81055047Y-87483044D01*
X81045728Y-87456412D01*
X81022149Y-87353104D01*
X81018990Y-87325067D01*
X81018990Y-87219101D01*
X81022149Y-87191064D01*
X81045728Y-87087756D01*
X81055047Y-87061124D01*
X81101022Y-86965655D01*
X81116033Y-86941765D01*
X81168770Y-86875636D01*
X81180080Y-86864823D01*
X81179444Y-86864187D01*
X81186459Y-86857172D01*
X81194479Y-86851345D01*
X81200306Y-86843325D01*
X81200308Y-86843323D01*
X81207389Y-86833576D01*
X81220230Y-86818542D01*
X81545963Y-86492809D01*
X81608275Y-86458783D01*
X81679090Y-86463848D01*
G37*
%TD.AperFunction*%
M02*
