M48
; DRILL file {KiCad (6.0.0)} date Wed Jan 12 17:49:14 2022
; FORMAT={-:-/ absolute / metric / decimal}
; #@! TF.CreationDate,2022-01-12T17:49:14+01:00
; #@! TF.GenerationSoftware,Kicad,Pcbnew,(6.0.0)
; #@! TF.FileFunction,Plated,1,2,PTH
FMAT,2
METRIC
; #@! TA.AperFunction,Plated,PTH,ComponentDrill
T1C0.750
; #@! TA.AperFunction,Plated,PTH,ComponentDrill
T2C1.020
%
G90
G05
T1
X77.19Y-106.03
X77.537Y-108.0
X82.887Y-87.173
X83.862Y-97.552
X83.862Y-99.552
X84.302Y-85.758
X85.716Y-84.344
X87.13Y-82.93
X103.42Y-111.4
X103.42Y-113.4
X109.71Y-108.68
X111.71Y-108.68
X122.45Y-108.0
X122.797Y-106.03
T2
X90.88Y-100.99
X90.88Y-103.99
X93.88Y-100.99
X93.88Y-103.99
X96.26Y-110.73
X96.88Y-100.99
X96.88Y-103.99
X99.205Y-111.302
X99.88Y-100.99
X99.88Y-103.99
X102.88Y-100.99
X102.88Y-103.99
X105.88Y-100.99
X105.88Y-103.99
X108.88Y-100.99
X108.88Y-103.99
T0
M30
