%TF.GenerationSoftware,KiCad,Pcbnew,(6.0.0)*%
%TF.CreationDate,2022-01-12T18:20:28+01:00*%
%TF.ProjectId,Frame_PCB,4672616d-655f-4504-9342-2e6b69636164,rev?*%
%TF.SameCoordinates,Original*%
%TF.FileFunction,Profile,NP*%
%FSLAX46Y46*%
G04 Gerber Fmt 4.6, Leading zero omitted, Abs format (unit mm)*
G04 Created by KiCad (PCBNEW (6.0.0)) date 2022-01-12 18:20:28*
%MOMM*%
%LPD*%
G01*
G04 APERTURE LIST*
%TA.AperFunction,Profile*%
%ADD10C,0.050000*%
%TD*%
%TA.AperFunction,Profile*%
%ADD11C,2.265389*%
%TD*%
G04 APERTURE END LIST*
D10*
X102500000Y-81500000D02*
X97500000Y-81500000D01*
D11*
X101157894Y-88950800D02*
G75*
G03*
X101157894Y-88950800I-1132694J0D01*
G01*
D10*
X97500000Y-81500000D02*
X41000000Y-81500000D01*
X102500000Y-81500000D02*
X159000000Y-81500000D01*
X161000000Y-105750000D02*
G75*
G03*
X159000000Y-103750000I-1999999J1D01*
G01*
X42000000Y-103750000D02*
G75*
G03*
X42000000Y-100250000I0J1750000D01*
G01*
X158000000Y-100250000D02*
G75*
G03*
X158000000Y-103750000I0J-1750000D01*
G01*
X42000000Y-100250000D02*
X41000000Y-100250000D01*
X41000000Y-103750000D02*
X42000000Y-103750000D01*
X39000000Y-116500000D02*
G75*
G03*
X41000000Y-118500000I1999999J-1D01*
G01*
X161000000Y-98250000D02*
X161000000Y-83500000D01*
X38999999Y-98250000D02*
G75*
G03*
X41000000Y-100250001I2000002J1D01*
G01*
X39000000Y-83500000D02*
X39000000Y-98250000D01*
X41000000Y-103750000D02*
G75*
G03*
X39000000Y-105750000I-1J-1999999D01*
G01*
X41000000Y-81500000D02*
G75*
G03*
X39000000Y-83500000I-1J-1999999D01*
G01*
X158000000Y-103750000D02*
X159000000Y-103750000D01*
X159000000Y-100250000D02*
G75*
G03*
X161000000Y-98250000I1J1999999D01*
G01*
X161000000Y-116500000D02*
X161000000Y-105750000D01*
X39000000Y-105750000D02*
X39000000Y-116500000D01*
X159000000Y-100250000D02*
X158000000Y-100250000D01*
X161000000Y-83500000D02*
G75*
G03*
X159000000Y-81500000I-1999999J1D01*
G01*
X159000000Y-118500000D02*
G75*
G03*
X161000000Y-116500000I1J1999999D01*
G01*
X156000000Y-118500000D02*
X159000000Y-118500000D01*
X41000000Y-118500000D02*
X156000000Y-118500000D01*
M02*
