%TF.GenerationSoftware,KiCad,Pcbnew,(6.0.0)*%
%TF.CreationDate,2022-01-12T18:20:28+01:00*%
%TF.ProjectId,Frame_PCB,4672616d-655f-4504-9342-2e6b69636164,rev?*%
%TF.SameCoordinates,Original*%
%TF.FileFunction,Legend,Top*%
%TF.FilePolarity,Positive*%
%FSLAX46Y46*%
G04 Gerber Fmt 4.6, Leading zero omitted, Abs format (unit mm)*
G04 Created by KiCad (PCBNEW (6.0.0)) date 2022-01-12 18:20:28*
%MOMM*%
%LPD*%
G01*
G04 APERTURE LIST*
%ADD10C,0.150000*%
%ADD11C,0.120000*%
G04 APERTURE END LIST*
D10*
X143164571Y-109374190D02*
X143164571Y-109850380D01*
X142831238Y-108850380D02*
X143164571Y-109374190D01*
X143497904Y-108850380D01*
X143831238Y-109469428D02*
X144593142Y-109469428D01*
X145069333Y-109326571D02*
X145402666Y-109326571D01*
X145545523Y-109850380D02*
X145069333Y-109850380D01*
X145069333Y-108850380D01*
X145545523Y-108850380D01*
X145974095Y-109183714D02*
X145974095Y-109850380D01*
X145974095Y-109278952D02*
X146021714Y-109231333D01*
X146116952Y-109183714D01*
X146259809Y-109183714D01*
X146355047Y-109231333D01*
X146402666Y-109326571D01*
X146402666Y-109850380D01*
X147307428Y-109850380D02*
X147307428Y-108850380D01*
X147307428Y-109802761D02*
X147212190Y-109850380D01*
X147021714Y-109850380D01*
X146926476Y-109802761D01*
X146878857Y-109755142D01*
X146831238Y-109659904D01*
X146831238Y-109374190D01*
X146878857Y-109278952D01*
X146926476Y-109231333D01*
X147021714Y-109183714D01*
X147212190Y-109183714D01*
X147307428Y-109231333D01*
X147736000Y-109802761D02*
X147831238Y-109850380D01*
X148021714Y-109850380D01*
X148116952Y-109802761D01*
X148164571Y-109707523D01*
X148164571Y-109659904D01*
X148116952Y-109564666D01*
X148021714Y-109517047D01*
X147878857Y-109517047D01*
X147783619Y-109469428D01*
X147736000Y-109374190D01*
X147736000Y-109326571D01*
X147783619Y-109231333D01*
X147878857Y-109183714D01*
X148021714Y-109183714D01*
X148116952Y-109231333D01*
X148450285Y-109183714D02*
X148831238Y-109183714D01*
X148593142Y-108850380D02*
X148593142Y-109707523D01*
X148640761Y-109802761D01*
X148736000Y-109850380D01*
X148831238Y-109850380D01*
X149307428Y-109850380D02*
X149212190Y-109802761D01*
X149164571Y-109755142D01*
X149116952Y-109659904D01*
X149116952Y-109374190D01*
X149164571Y-109278952D01*
X149212190Y-109231333D01*
X149307428Y-109183714D01*
X149450285Y-109183714D01*
X149545523Y-109231333D01*
X149593142Y-109278952D01*
X149640761Y-109374190D01*
X149640761Y-109659904D01*
X149593142Y-109755142D01*
X149545523Y-109802761D01*
X149450285Y-109850380D01*
X149307428Y-109850380D01*
X150069333Y-109183714D02*
X150069333Y-110183714D01*
X150069333Y-109231333D02*
X150164571Y-109183714D01*
X150355047Y-109183714D01*
X150450285Y-109231333D01*
X150497904Y-109278952D01*
X150545523Y-109374190D01*
X150545523Y-109659904D01*
X150497904Y-109755142D01*
X150450285Y-109802761D01*
X150355047Y-109850380D01*
X150164571Y-109850380D01*
X150069333Y-109802761D01*
X92857142Y-93356380D02*
X93428571Y-93356380D01*
X93142857Y-94356380D02*
X93142857Y-93356380D01*
X93904761Y-94356380D02*
X93809523Y-94308761D01*
X93761904Y-94261142D01*
X93714285Y-94165904D01*
X93714285Y-93880190D01*
X93761904Y-93784952D01*
X93809523Y-93737333D01*
X93904761Y-93689714D01*
X94047619Y-93689714D01*
X94142857Y-93737333D01*
X94190476Y-93784952D01*
X94238095Y-93880190D01*
X94238095Y-94165904D01*
X94190476Y-94261142D01*
X94142857Y-94308761D01*
X94047619Y-94356380D01*
X93904761Y-94356380D01*
X95428571Y-94356380D02*
X95428571Y-93356380D01*
X95761904Y-94070666D01*
X96095238Y-93356380D01*
X96095238Y-94356380D01*
X96571428Y-94356380D02*
X96571428Y-93689714D01*
X96571428Y-93356380D02*
X96523809Y-93404000D01*
X96571428Y-93451619D01*
X96619047Y-93404000D01*
X96571428Y-93356380D01*
X96571428Y-93451619D01*
X97047619Y-93689714D02*
X97047619Y-94356380D01*
X97047619Y-93784952D02*
X97095238Y-93737333D01*
X97190476Y-93689714D01*
X97333333Y-93689714D01*
X97428571Y-93737333D01*
X97476190Y-93832571D01*
X97476190Y-94356380D01*
X97952380Y-94356380D02*
X97952380Y-93689714D01*
X97952380Y-93356380D02*
X97904761Y-93404000D01*
X97952380Y-93451619D01*
X98000000Y-93404000D01*
X97952380Y-93356380D01*
X97952380Y-93451619D01*
X99142857Y-94070666D02*
X99619047Y-94070666D01*
X99047619Y-94356380D02*
X99380952Y-93356380D01*
X99714285Y-94356380D01*
X99904761Y-93689714D02*
X100285714Y-93689714D01*
X100047619Y-94356380D02*
X100047619Y-93499238D01*
X100095238Y-93404000D01*
X100190476Y-93356380D01*
X100285714Y-93356380D01*
X100476190Y-93689714D02*
X100857142Y-93689714D01*
X100619047Y-93356380D02*
X100619047Y-94213523D01*
X100666666Y-94308761D01*
X100761904Y-94356380D01*
X100857142Y-94356380D01*
X101571428Y-94308761D02*
X101476190Y-94356380D01*
X101285714Y-94356380D01*
X101190476Y-94308761D01*
X101142857Y-94213523D01*
X101142857Y-93832571D01*
X101190476Y-93737333D01*
X101285714Y-93689714D01*
X101476190Y-93689714D01*
X101571428Y-93737333D01*
X101619047Y-93832571D01*
X101619047Y-93927809D01*
X101142857Y-94023047D01*
X102047619Y-94356380D02*
X102047619Y-93689714D01*
X102047619Y-93880190D02*
X102095238Y-93784952D01*
X102142857Y-93737333D01*
X102238095Y-93689714D01*
X102333333Y-93689714D01*
X102666666Y-94356380D02*
X102666666Y-93356380D01*
X102666666Y-93737333D02*
X102761904Y-93689714D01*
X102952380Y-93689714D01*
X103047619Y-93737333D01*
X103095238Y-93784952D01*
X103142857Y-93880190D01*
X103142857Y-94165904D01*
X103095238Y-94261142D01*
X103047619Y-94308761D01*
X102952380Y-94356380D01*
X102761904Y-94356380D01*
X102666666Y-94308761D01*
X104000000Y-93689714D02*
X104000000Y-94356380D01*
X103571428Y-93689714D02*
X103571428Y-94213523D01*
X103619047Y-94308761D01*
X103714285Y-94356380D01*
X103857142Y-94356380D01*
X103952380Y-94308761D01*
X104000000Y-94261142D01*
X104476190Y-94356380D02*
X104476190Y-93689714D01*
X104476190Y-93880190D02*
X104523809Y-93784952D01*
X104571428Y-93737333D01*
X104666666Y-93689714D01*
X104761904Y-93689714D01*
X105095238Y-93689714D02*
X105095238Y-94356380D01*
X105095238Y-93784952D02*
X105142857Y-93737333D01*
X105238095Y-93689714D01*
X105380952Y-93689714D01*
X105476190Y-93737333D01*
X105523809Y-93832571D01*
X105523809Y-94356380D01*
X106380952Y-94308761D02*
X106285714Y-94356380D01*
X106095238Y-94356380D01*
X106000000Y-94308761D01*
X105952380Y-94213523D01*
X105952380Y-93832571D01*
X106000000Y-93737333D01*
X106095238Y-93689714D01*
X106285714Y-93689714D01*
X106380952Y-93737333D01*
X106428571Y-93832571D01*
X106428571Y-93927809D01*
X105952380Y-94023047D01*
X106857142Y-94356380D02*
X106857142Y-93689714D01*
X106857142Y-93880190D02*
X106904761Y-93784952D01*
X106952380Y-93737333D01*
X107047619Y-93689714D01*
X107142857Y-93689714D01*
%TO.C,J1*%
X110842666Y-97581380D02*
X110842666Y-98295666D01*
X110795047Y-98438523D01*
X110699809Y-98533761D01*
X110556952Y-98581380D01*
X110461714Y-98581380D01*
X111842666Y-98581380D02*
X111271238Y-98581380D01*
X111556952Y-98581380D02*
X111556952Y-97581380D01*
X111461714Y-97724238D01*
X111366476Y-97819476D01*
X111271238Y-97867095D01*
%TO.C,J9*%
X146422666Y-111644380D02*
X146422666Y-112358666D01*
X146375047Y-112501523D01*
X146279809Y-112596761D01*
X146136952Y-112644380D01*
X146041714Y-112644380D01*
X146946476Y-112644380D02*
X147136952Y-112644380D01*
X147232190Y-112596761D01*
X147279809Y-112549142D01*
X147375047Y-112406285D01*
X147422666Y-112215809D01*
X147422666Y-111834857D01*
X147375047Y-111739619D01*
X147327428Y-111692000D01*
X147232190Y-111644380D01*
X147041714Y-111644380D01*
X146946476Y-111692000D01*
X146898857Y-111739619D01*
X146851238Y-111834857D01*
X146851238Y-112072952D01*
X146898857Y-112168190D01*
X146946476Y-112215809D01*
X147041714Y-112263428D01*
X147232190Y-112263428D01*
X147327428Y-112215809D01*
X147375047Y-112168190D01*
X147422666Y-112072952D01*
D11*
%TO.C,J1*%
X111015000Y-101709000D02*
X88985000Y-101709000D01*
X88985000Y-101709000D02*
X88985000Y-102209000D01*
X88985000Y-102209000D02*
X87565000Y-102209000D01*
X87565000Y-94619000D02*
X87565000Y-94929000D01*
X112435000Y-94929000D02*
X112435000Y-94619000D01*
X112435000Y-102209000D02*
X111015000Y-102209000D01*
X112435000Y-96449000D02*
X112435000Y-102209000D01*
X87565000Y-102209000D02*
X87565000Y-96449000D01*
X112435000Y-94619000D02*
X87565000Y-94619000D01*
X111015000Y-102209000D02*
X111015000Y-101709000D01*
%TO.C,J9*%
X142946000Y-110460000D02*
X142946000Y-116430000D01*
X147256000Y-116420000D02*
X147256000Y-115670000D01*
X142956000Y-116420000D02*
X144756000Y-116420000D01*
X150566000Y-110460000D02*
X142946000Y-110460000D01*
X146256000Y-116420000D02*
X147256000Y-116420000D01*
X142946000Y-116430000D02*
X150566000Y-116430000D01*
X143706000Y-111220000D02*
X146756000Y-111220000D01*
X150556000Y-116420000D02*
X150556000Y-115670000D01*
X146256000Y-115670000D02*
X146256000Y-116420000D01*
X142956000Y-115670000D02*
X142956000Y-116420000D01*
X144756000Y-116420000D02*
X144756000Y-115670000D01*
X149806000Y-114170000D02*
X149806000Y-111220000D01*
X142956000Y-114170000D02*
X143706000Y-114170000D01*
X150566000Y-116430000D02*
X150566000Y-110460000D01*
X150556000Y-114170000D02*
X149806000Y-114170000D01*
X150556000Y-115670000D02*
X148756000Y-115670000D01*
X150856000Y-116720000D02*
X150856000Y-115470000D01*
X148756000Y-116420000D02*
X150556000Y-116420000D01*
X149606000Y-116720000D02*
X150856000Y-116720000D01*
X147256000Y-115670000D02*
X146256000Y-115670000D01*
X144756000Y-115670000D02*
X142956000Y-115670000D01*
X143706000Y-114170000D02*
X143706000Y-111220000D01*
X149806000Y-111220000D02*
X146756000Y-111220000D01*
X148756000Y-115670000D02*
X148756000Y-116420000D01*
%TD*%
M02*
