M48
; DRILL file {KiCad (6.0.0)} date Wed Jan 12 18:20:22 2022
; FORMAT={-:-/ absolute / metric / decimal}
; #@! TF.CreationDate,2022-01-12T18:20:22+01:00
; #@! TF.GenerationSoftware,Kicad,Pcbnew,(6.0.0)
; #@! TF.FileFunction,Plated,1,2,PTH
FMAT,2
METRIC
; #@! TA.AperFunction,Plated,PTH,ViaDrill
T1C0.400
; #@! TA.AperFunction,Plated,PTH,ComponentDrill
T2C0.950
; #@! TA.AperFunction,Plated,PTH,ComponentDrill
T3C1.000
; #@! TA.AperFunction,Plated,PTH,ComponentDrill
T4C1.300
%
G90
G05
T1
X55.245Y-117.868
X55.88Y-117.018
T2
X51.723Y-98.282
X51.723Y-100.782
X51.723Y-103.282
X51.723Y-105.782
X109.712Y-109.161
X112.212Y-109.161
X114.712Y-109.161
X117.212Y-109.161
X125.908Y-100.254
X125.908Y-109.144
X128.408Y-100.254
X128.408Y-109.144
X130.908Y-100.254
X130.908Y-109.144
X133.408Y-100.254
X133.408Y-109.144
X148.006Y-98.282
X148.006Y-100.782
X148.006Y-103.282
X148.006Y-105.782
T3
X63.932Y-89.332
X63.932Y-98.984
X63.932Y-108.636
X66.432Y-89.332
X66.432Y-98.984
X66.432Y-108.636
X77.394Y-108.636
X77.414Y-89.332
X77.414Y-99.001
X79.894Y-108.636
X79.914Y-89.332
X79.914Y-99.001
X91.0Y-96.629
X91.0Y-99.629
X94.0Y-96.629
X94.0Y-99.629
X97.0Y-96.629
X97.0Y-99.629
X98.75Y-109.161
X100.0Y-96.629
X100.0Y-99.629
X101.25Y-109.161
X103.0Y-96.629
X103.0Y-99.629
X106.0Y-96.629
X106.0Y-99.629
X109.0Y-96.629
X109.0Y-99.629
X145.506Y-113.97
X148.006Y-113.97
T4
X128.753Y-86.279
X128.753Y-91.359
T0
M30
