%TF.GenerationSoftware,KiCad,Pcbnew,(6.0.0)*%
%TF.CreationDate,2022-01-12T18:20:28+01:00*%
%TF.ProjectId,Frame_PCB,4672616d-655f-4504-9342-2e6b69636164,rev?*%
%TF.SameCoordinates,Original*%
%TF.FileFunction,Legend,Bot*%
%TF.FilePolarity,Positive*%
%FSLAX46Y46*%
G04 Gerber Fmt 4.6, Leading zero omitted, Abs format (unit mm)*
G04 Created by KiCad (PCBNEW (6.0.0)) date 2022-01-12 18:20:28*
%MOMM*%
%LPD*%
G01*
G04 APERTURE LIST*
%ADD10C,0.150000*%
%ADD11C,0.450000*%
%ADD12C,0.300000*%
%ADD13C,0.120000*%
G04 APERTURE END LIST*
D10*
X56383428Y-106293904D02*
X56335809Y-106151047D01*
X56288190Y-106103428D01*
X56192952Y-106055809D01*
X56050095Y-106055809D01*
X55954857Y-106103428D01*
X55907238Y-106151047D01*
X55859619Y-106246285D01*
X55859619Y-106627238D01*
X56859619Y-106627238D01*
X56859619Y-106293904D01*
X56812000Y-106198666D01*
X56764380Y-106151047D01*
X56669142Y-106103428D01*
X56573904Y-106103428D01*
X56478666Y-106151047D01*
X56431047Y-106198666D01*
X56383428Y-106293904D01*
X56383428Y-106627238D01*
X56240571Y-105627238D02*
X56240571Y-104865333D01*
X55859619Y-104389142D02*
X56859619Y-104389142D01*
X56145333Y-104055809D01*
X56859619Y-103722476D01*
X55859619Y-103722476D01*
X55859619Y-103103428D02*
X55907238Y-103198666D01*
X55954857Y-103246285D01*
X56050095Y-103293904D01*
X56335809Y-103293904D01*
X56431047Y-103246285D01*
X56478666Y-103198666D01*
X56526285Y-103103428D01*
X56526285Y-102960571D01*
X56478666Y-102865333D01*
X56431047Y-102817714D01*
X56335809Y-102770095D01*
X56050095Y-102770095D01*
X55954857Y-102817714D01*
X55907238Y-102865333D01*
X55859619Y-102960571D01*
X55859619Y-103103428D01*
X56526285Y-102484380D02*
X56526285Y-102103428D01*
X56859619Y-102341523D02*
X56002476Y-102341523D01*
X55907238Y-102293904D01*
X55859619Y-102198666D01*
X55859619Y-102103428D01*
X55859619Y-101627238D02*
X55907238Y-101722476D01*
X55954857Y-101770095D01*
X56050095Y-101817714D01*
X56335809Y-101817714D01*
X56431047Y-101770095D01*
X56478666Y-101722476D01*
X56526285Y-101627238D01*
X56526285Y-101484380D01*
X56478666Y-101389142D01*
X56431047Y-101341523D01*
X56335809Y-101293904D01*
X56050095Y-101293904D01*
X55954857Y-101341523D01*
X55907238Y-101389142D01*
X55859619Y-101484380D01*
X55859619Y-101627238D01*
X55859619Y-100865333D02*
X56526285Y-100865333D01*
X56335809Y-100865333D02*
X56431047Y-100817714D01*
X56478666Y-100770095D01*
X56526285Y-100674857D01*
X56526285Y-100579619D01*
X56859619Y-99293904D02*
X56859619Y-99103428D01*
X56812000Y-99008190D01*
X56716761Y-98912952D01*
X56526285Y-98865333D01*
X56192952Y-98865333D01*
X56002476Y-98912952D01*
X55907238Y-99008190D01*
X55859619Y-99103428D01*
X55859619Y-99293904D01*
X55907238Y-99389142D01*
X56002476Y-99484380D01*
X56192952Y-99532000D01*
X56526285Y-99532000D01*
X56716761Y-99484380D01*
X56812000Y-99389142D01*
X56859619Y-99293904D01*
X56526285Y-98008190D02*
X55859619Y-98008190D01*
X56526285Y-98436761D02*
X56002476Y-98436761D01*
X55907238Y-98389142D01*
X55859619Y-98293904D01*
X55859619Y-98151047D01*
X55907238Y-98055809D01*
X55954857Y-98008190D01*
X56526285Y-97674857D02*
X56526285Y-97293904D01*
X56859619Y-97532000D02*
X56002476Y-97532000D01*
X55907238Y-97484380D01*
X55859619Y-97389142D01*
X55859619Y-97293904D01*
X122550380Y-86628523D02*
X121550380Y-86628523D01*
X122026571Y-86628523D02*
X122026571Y-87199952D01*
X122550380Y-87199952D02*
X121550380Y-87199952D01*
X122502761Y-88057095D02*
X122550380Y-87961857D01*
X122550380Y-87771380D01*
X122502761Y-87676142D01*
X122407523Y-87628523D01*
X122026571Y-87628523D01*
X121931333Y-87676142D01*
X121883714Y-87771380D01*
X121883714Y-87961857D01*
X121931333Y-88057095D01*
X122026571Y-88104714D01*
X122121809Y-88104714D01*
X122217047Y-87628523D01*
X122550380Y-88961857D02*
X122026571Y-88961857D01*
X121931333Y-88914238D01*
X121883714Y-88819000D01*
X121883714Y-88628523D01*
X121931333Y-88533285D01*
X122502761Y-88961857D02*
X122550380Y-88866619D01*
X122550380Y-88628523D01*
X122502761Y-88533285D01*
X122407523Y-88485666D01*
X122312285Y-88485666D01*
X122217047Y-88533285D01*
X122169428Y-88628523D01*
X122169428Y-88866619D01*
X122121809Y-88961857D01*
X121883714Y-89295190D02*
X121883714Y-89676142D01*
X121550380Y-89438047D02*
X122407523Y-89438047D01*
X122502761Y-89485666D01*
X122550380Y-89580904D01*
X122550380Y-89676142D01*
X122502761Y-90390428D02*
X122550380Y-90295190D01*
X122550380Y-90104714D01*
X122502761Y-90009476D01*
X122407523Y-89961857D01*
X122026571Y-89961857D01*
X121931333Y-90009476D01*
X121883714Y-90104714D01*
X121883714Y-90295190D01*
X121931333Y-90390428D01*
X122026571Y-90438047D01*
X122121809Y-90438047D01*
X122217047Y-89961857D01*
X122550380Y-90866619D02*
X121883714Y-90866619D01*
X122074190Y-90866619D02*
X121978952Y-90914238D01*
X121931333Y-90961857D01*
X121883714Y-91057095D01*
X121883714Y-91152333D01*
X70178190Y-103516380D02*
X69511523Y-103516380D01*
X70178190Y-104516380D01*
X69511523Y-104516380D01*
X69130571Y-104135428D02*
X68368666Y-104135428D01*
X67892476Y-103992571D02*
X67559142Y-103992571D01*
X67416285Y-104516380D02*
X67892476Y-104516380D01*
X67892476Y-103516380D01*
X67416285Y-103516380D01*
X66987714Y-103849714D02*
X66987714Y-104516380D01*
X66987714Y-103944952D02*
X66940095Y-103897333D01*
X66844857Y-103849714D01*
X66702000Y-103849714D01*
X66606761Y-103897333D01*
X66559142Y-103992571D01*
X66559142Y-104516380D01*
X65654380Y-104516380D02*
X65654380Y-103516380D01*
X65654380Y-104468761D02*
X65749619Y-104516380D01*
X65940095Y-104516380D01*
X66035333Y-104468761D01*
X66082952Y-104421142D01*
X66130571Y-104325904D01*
X66130571Y-104040190D01*
X66082952Y-103944952D01*
X66035333Y-103897333D01*
X65940095Y-103849714D01*
X65749619Y-103849714D01*
X65654380Y-103897333D01*
X65225809Y-104468761D02*
X65130571Y-104516380D01*
X64940095Y-104516380D01*
X64844857Y-104468761D01*
X64797238Y-104373523D01*
X64797238Y-104325904D01*
X64844857Y-104230666D01*
X64940095Y-104183047D01*
X65082952Y-104183047D01*
X65178190Y-104135428D01*
X65225809Y-104040190D01*
X65225809Y-103992571D01*
X65178190Y-103897333D01*
X65082952Y-103849714D01*
X64940095Y-103849714D01*
X64844857Y-103897333D01*
X64511523Y-103849714D02*
X64130571Y-103849714D01*
X64368666Y-103516380D02*
X64368666Y-104373523D01*
X64321047Y-104468761D01*
X64225809Y-104516380D01*
X64130571Y-104516380D01*
X63654380Y-104516380D02*
X63749619Y-104468761D01*
X63797238Y-104421142D01*
X63844857Y-104325904D01*
X63844857Y-104040190D01*
X63797238Y-103944952D01*
X63749619Y-103897333D01*
X63654380Y-103849714D01*
X63511523Y-103849714D01*
X63416285Y-103897333D01*
X63368666Y-103944952D01*
X63321047Y-104040190D01*
X63321047Y-104325904D01*
X63368666Y-104421142D01*
X63416285Y-104468761D01*
X63511523Y-104516380D01*
X63654380Y-104516380D01*
X62892476Y-103849714D02*
X62892476Y-104849714D01*
X62892476Y-103897333D02*
X62797238Y-103849714D01*
X62606761Y-103849714D01*
X62511523Y-103897333D01*
X62463904Y-103944952D01*
X62416285Y-104040190D01*
X62416285Y-104325904D01*
X62463904Y-104421142D01*
X62511523Y-104468761D01*
X62606761Y-104516380D01*
X62797238Y-104516380D01*
X62892476Y-104468761D01*
X61225809Y-104516380D02*
X61225809Y-103516380D01*
X60749619Y-103849714D02*
X60749619Y-104516380D01*
X60749619Y-103944952D02*
X60702000Y-103897333D01*
X60606761Y-103849714D01*
X60463904Y-103849714D01*
X60368666Y-103897333D01*
X60321047Y-103992571D01*
X60321047Y-104516380D01*
X143600666Y-97460571D02*
X143600666Y-97936761D01*
X143886380Y-97365333D02*
X142886380Y-97698666D01*
X143886380Y-98032000D01*
X143505428Y-98365333D02*
X143505428Y-99127238D01*
X143886380Y-99603428D02*
X142886380Y-99603428D01*
X143600666Y-99936761D01*
X142886380Y-100270095D01*
X143886380Y-100270095D01*
X143886380Y-100889142D02*
X143838761Y-100793904D01*
X143791142Y-100746285D01*
X143695904Y-100698666D01*
X143410190Y-100698666D01*
X143314952Y-100746285D01*
X143267333Y-100793904D01*
X143219714Y-100889142D01*
X143219714Y-101032000D01*
X143267333Y-101127238D01*
X143314952Y-101174857D01*
X143410190Y-101222476D01*
X143695904Y-101222476D01*
X143791142Y-101174857D01*
X143838761Y-101127238D01*
X143886380Y-101032000D01*
X143886380Y-100889142D01*
X143219714Y-101508190D02*
X143219714Y-101889142D01*
X142886380Y-101651047D02*
X143743523Y-101651047D01*
X143838761Y-101698666D01*
X143886380Y-101793904D01*
X143886380Y-101889142D01*
X143886380Y-102365333D02*
X143838761Y-102270095D01*
X143791142Y-102222476D01*
X143695904Y-102174857D01*
X143410190Y-102174857D01*
X143314952Y-102222476D01*
X143267333Y-102270095D01*
X143219714Y-102365333D01*
X143219714Y-102508190D01*
X143267333Y-102603428D01*
X143314952Y-102651047D01*
X143410190Y-102698666D01*
X143695904Y-102698666D01*
X143791142Y-102651047D01*
X143838761Y-102603428D01*
X143886380Y-102508190D01*
X143886380Y-102365333D01*
X143886380Y-103127238D02*
X143219714Y-103127238D01*
X143410190Y-103127238D02*
X143314952Y-103174857D01*
X143267333Y-103222476D01*
X143219714Y-103317714D01*
X143219714Y-103412952D01*
X142886380Y-104698666D02*
X142886380Y-104889142D01*
X142934000Y-104984380D01*
X143029238Y-105079619D01*
X143219714Y-105127238D01*
X143553047Y-105127238D01*
X143743523Y-105079619D01*
X143838761Y-104984380D01*
X143886380Y-104889142D01*
X143886380Y-104698666D01*
X143838761Y-104603428D01*
X143743523Y-104508190D01*
X143553047Y-104460571D01*
X143219714Y-104460571D01*
X143029238Y-104508190D01*
X142934000Y-104603428D01*
X142886380Y-104698666D01*
X143219714Y-105984380D02*
X143886380Y-105984380D01*
X143219714Y-105555809D02*
X143743523Y-105555809D01*
X143838761Y-105603428D01*
X143886380Y-105698666D01*
X143886380Y-105841523D01*
X143838761Y-105936761D01*
X143791142Y-105984380D01*
X143219714Y-106317714D02*
X143219714Y-106698666D01*
X142886380Y-106460571D02*
X143743523Y-106460571D01*
X143838761Y-106508190D01*
X143886380Y-106603428D01*
X143886380Y-106698666D01*
D11*
X159680571Y-83879142D02*
X158680571Y-86879142D01*
X157680571Y-83879142D01*
X156109142Y-83879142D02*
X155537714Y-83879142D01*
X155252000Y-84022000D01*
X154966285Y-84307714D01*
X154823428Y-84879142D01*
X154823428Y-85879142D01*
X154966285Y-86450571D01*
X155252000Y-86736285D01*
X155537714Y-86879142D01*
X156109142Y-86879142D01*
X156394857Y-86736285D01*
X156680571Y-86450571D01*
X156823428Y-85879142D01*
X156823428Y-84879142D01*
X156680571Y-84307714D01*
X156394857Y-84022000D01*
X156109142Y-83879142D01*
X151823428Y-86879142D02*
X152823428Y-85450571D01*
X153537714Y-86879142D02*
X153537714Y-83879142D01*
X152394857Y-83879142D01*
X152109142Y-84022000D01*
X151966285Y-84164857D01*
X151823428Y-84450571D01*
X151823428Y-84879142D01*
X151966285Y-85164857D01*
X152109142Y-85307714D01*
X152394857Y-85450571D01*
X153537714Y-85450571D01*
X149966285Y-83879142D02*
X149394857Y-83879142D01*
X149109142Y-84022000D01*
X148823428Y-84307714D01*
X148680571Y-84879142D01*
X148680571Y-85879142D01*
X148823428Y-86450571D01*
X149109142Y-86736285D01*
X149394857Y-86879142D01*
X149966285Y-86879142D01*
X150252000Y-86736285D01*
X150537714Y-86450571D01*
X150680571Y-85879142D01*
X150680571Y-84879142D01*
X150537714Y-84307714D01*
X150252000Y-84022000D01*
X149966285Y-83879142D01*
X147394857Y-86879142D02*
X147394857Y-83879142D01*
X145680571Y-86879142D01*
X145680571Y-83879142D01*
X141394857Y-83879142D02*
X141109142Y-83879142D01*
X140823428Y-84022000D01*
X140680571Y-84164857D01*
X140537714Y-84450571D01*
X140394857Y-85022000D01*
X140394857Y-85736285D01*
X140537714Y-86307714D01*
X140680571Y-86593428D01*
X140823428Y-86736285D01*
X141109142Y-86879142D01*
X141394857Y-86879142D01*
X141680571Y-86736285D01*
X141823428Y-86593428D01*
X141966285Y-86307714D01*
X142109142Y-85736285D01*
X142109142Y-85022000D01*
X141966285Y-84450571D01*
X141823428Y-84164857D01*
X141680571Y-84022000D01*
X141394857Y-83879142D01*
X139109142Y-86593428D02*
X138966285Y-86736285D01*
X139109142Y-86879142D01*
X139252000Y-86736285D01*
X139109142Y-86593428D01*
X139109142Y-86879142D01*
X136109142Y-86879142D02*
X137823428Y-86879142D01*
X136966285Y-86879142D02*
X136966285Y-83879142D01*
X137252000Y-84307714D01*
X137537714Y-84593428D01*
X137823428Y-84736285D01*
D10*
X82497333Y-84212380D02*
X81925904Y-84212380D01*
X82211619Y-85212380D02*
X82211619Y-84212380D01*
X81592571Y-85212380D02*
X81592571Y-84212380D01*
X81164000Y-85212380D02*
X81164000Y-84688571D01*
X81211619Y-84593333D01*
X81306857Y-84545714D01*
X81449714Y-84545714D01*
X81544952Y-84593333D01*
X81592571Y-84640952D01*
X80306857Y-85164761D02*
X80402095Y-85212380D01*
X80592571Y-85212380D01*
X80687809Y-85164761D01*
X80735428Y-85069523D01*
X80735428Y-84688571D01*
X80687809Y-84593333D01*
X80592571Y-84545714D01*
X80402095Y-84545714D01*
X80306857Y-84593333D01*
X80259238Y-84688571D01*
X80259238Y-84783809D01*
X80735428Y-84879047D01*
X79830666Y-85212380D02*
X79830666Y-84545714D01*
X79830666Y-84736190D02*
X79783047Y-84640952D01*
X79735428Y-84593333D01*
X79640190Y-84545714D01*
X79544952Y-84545714D01*
X79211619Y-85212380D02*
X79211619Y-84545714D01*
X79211619Y-84640952D02*
X79164000Y-84593333D01*
X79068761Y-84545714D01*
X78925904Y-84545714D01*
X78830666Y-84593333D01*
X78783047Y-84688571D01*
X78783047Y-85212380D01*
X78783047Y-84688571D02*
X78735428Y-84593333D01*
X78640190Y-84545714D01*
X78497333Y-84545714D01*
X78402095Y-84593333D01*
X78354476Y-84688571D01*
X78354476Y-85212380D01*
X77878285Y-85212380D02*
X77878285Y-84545714D01*
X77878285Y-84212380D02*
X77925904Y-84260000D01*
X77878285Y-84307619D01*
X77830666Y-84260000D01*
X77878285Y-84212380D01*
X77878285Y-84307619D01*
X77449714Y-85164761D02*
X77354476Y-85212380D01*
X77164000Y-85212380D01*
X77068761Y-85164761D01*
X77021142Y-85069523D01*
X77021142Y-85021904D01*
X77068761Y-84926666D01*
X77164000Y-84879047D01*
X77306857Y-84879047D01*
X77402095Y-84831428D01*
X77449714Y-84736190D01*
X77449714Y-84688571D01*
X77402095Y-84593333D01*
X77306857Y-84545714D01*
X77164000Y-84545714D01*
X77068761Y-84593333D01*
X76735428Y-84545714D02*
X76354476Y-84545714D01*
X76592571Y-84212380D02*
X76592571Y-85069523D01*
X76544952Y-85164761D01*
X76449714Y-85212380D01*
X76354476Y-85212380D01*
X75878285Y-85212380D02*
X75973523Y-85164761D01*
X76021142Y-85117142D01*
X76068761Y-85021904D01*
X76068761Y-84736190D01*
X76021142Y-84640952D01*
X75973523Y-84593333D01*
X75878285Y-84545714D01*
X75735428Y-84545714D01*
X75640190Y-84593333D01*
X75592571Y-84640952D01*
X75544952Y-84736190D01*
X75544952Y-85021904D01*
X75592571Y-85117142D01*
X75640190Y-85164761D01*
X75735428Y-85212380D01*
X75878285Y-85212380D01*
X75116380Y-85212380D02*
X75116380Y-84545714D01*
X75116380Y-84736190D02*
X75068761Y-84640952D01*
X75021142Y-84593333D01*
X74925904Y-84545714D01*
X74830666Y-84545714D01*
X82735428Y-94864380D02*
X82735428Y-93864380D01*
X82735428Y-94340571D02*
X82164000Y-94340571D01*
X82164000Y-94864380D02*
X82164000Y-93864380D01*
X81544952Y-94864380D02*
X81640190Y-94816761D01*
X81687809Y-94769142D01*
X81735428Y-94673904D01*
X81735428Y-94388190D01*
X81687809Y-94292952D01*
X81640190Y-94245333D01*
X81544952Y-94197714D01*
X81402095Y-94197714D01*
X81306857Y-94245333D01*
X81259238Y-94292952D01*
X81211619Y-94388190D01*
X81211619Y-94673904D01*
X81259238Y-94769142D01*
X81306857Y-94816761D01*
X81402095Y-94864380D01*
X81544952Y-94864380D01*
X80925904Y-94197714D02*
X80544952Y-94197714D01*
X80783047Y-93864380D02*
X80783047Y-94721523D01*
X80735428Y-94816761D01*
X80640190Y-94864380D01*
X80544952Y-94864380D01*
X79830666Y-94816761D02*
X79925904Y-94864380D01*
X80116380Y-94864380D01*
X80211619Y-94816761D01*
X80259238Y-94721523D01*
X80259238Y-94340571D01*
X80211619Y-94245333D01*
X80116380Y-94197714D01*
X79925904Y-94197714D01*
X79830666Y-94245333D01*
X79783047Y-94340571D01*
X79783047Y-94435809D01*
X80259238Y-94531047D01*
X79354476Y-94197714D02*
X79354476Y-94864380D01*
X79354476Y-94292952D02*
X79306857Y-94245333D01*
X79211619Y-94197714D01*
X79068761Y-94197714D01*
X78973523Y-94245333D01*
X78925904Y-94340571D01*
X78925904Y-94864380D01*
X78021142Y-94864380D02*
X78021142Y-93864380D01*
X78021142Y-94816761D02*
X78116380Y-94864380D01*
X78306857Y-94864380D01*
X78402095Y-94816761D01*
X78449714Y-94769142D01*
X78497333Y-94673904D01*
X78497333Y-94388190D01*
X78449714Y-94292952D01*
X78402095Y-94245333D01*
X78306857Y-94197714D01*
X78116380Y-94197714D01*
X78021142Y-94245333D01*
X76449714Y-94340571D02*
X76783047Y-94340571D01*
X76783047Y-94864380D02*
X76783047Y-93864380D01*
X76306857Y-93864380D01*
X75497333Y-94864380D02*
X75497333Y-94340571D01*
X75544952Y-94245333D01*
X75640190Y-94197714D01*
X75830666Y-94197714D01*
X75925904Y-94245333D01*
X75497333Y-94816761D02*
X75592571Y-94864380D01*
X75830666Y-94864380D01*
X75925904Y-94816761D01*
X75973523Y-94721523D01*
X75973523Y-94626285D01*
X75925904Y-94531047D01*
X75830666Y-94483428D01*
X75592571Y-94483428D01*
X75497333Y-94435809D01*
X75021142Y-94197714D02*
X75021142Y-94864380D01*
X75021142Y-94292952D02*
X74973523Y-94245333D01*
X74878285Y-94197714D01*
X74735428Y-94197714D01*
X74640190Y-94245333D01*
X74592571Y-94340571D01*
X74592571Y-94864380D01*
X133408476Y-104500571D02*
X133265619Y-104548190D01*
X133218000Y-104595809D01*
X133170380Y-104691047D01*
X133170380Y-104833904D01*
X133218000Y-104929142D01*
X133265619Y-104976761D01*
X133360857Y-105024380D01*
X133741809Y-105024380D01*
X133741809Y-104024380D01*
X133408476Y-104024380D01*
X133313238Y-104072000D01*
X133265619Y-104119619D01*
X133218000Y-104214857D01*
X133218000Y-104310095D01*
X133265619Y-104405333D01*
X133313238Y-104452952D01*
X133408476Y-104500571D01*
X133741809Y-104500571D01*
X132741809Y-104643428D02*
X131979904Y-104643428D01*
X131503714Y-105024380D02*
X131503714Y-104024380D01*
X131170380Y-104738666D01*
X130837047Y-104024380D01*
X130837047Y-105024380D01*
X130218000Y-105024380D02*
X130313238Y-104976761D01*
X130360857Y-104929142D01*
X130408476Y-104833904D01*
X130408476Y-104548190D01*
X130360857Y-104452952D01*
X130313238Y-104405333D01*
X130218000Y-104357714D01*
X130075142Y-104357714D01*
X129979904Y-104405333D01*
X129932285Y-104452952D01*
X129884666Y-104548190D01*
X129884666Y-104833904D01*
X129932285Y-104929142D01*
X129979904Y-104976761D01*
X130075142Y-105024380D01*
X130218000Y-105024380D01*
X129598952Y-104357714D02*
X129218000Y-104357714D01*
X129456095Y-104024380D02*
X129456095Y-104881523D01*
X129408476Y-104976761D01*
X129313238Y-105024380D01*
X129218000Y-105024380D01*
X128741809Y-105024380D02*
X128837047Y-104976761D01*
X128884666Y-104929142D01*
X128932285Y-104833904D01*
X128932285Y-104548190D01*
X128884666Y-104452952D01*
X128837047Y-104405333D01*
X128741809Y-104357714D01*
X128598952Y-104357714D01*
X128503714Y-104405333D01*
X128456095Y-104452952D01*
X128408476Y-104548190D01*
X128408476Y-104833904D01*
X128456095Y-104929142D01*
X128503714Y-104976761D01*
X128598952Y-105024380D01*
X128741809Y-105024380D01*
X127979904Y-105024380D02*
X127979904Y-104357714D01*
X127979904Y-104548190D02*
X127932285Y-104452952D01*
X127884666Y-104405333D01*
X127789428Y-104357714D01*
X127694190Y-104357714D01*
X126598952Y-105024380D02*
X126598952Y-104024380D01*
X126122761Y-104357714D02*
X126122761Y-105024380D01*
X126122761Y-104452952D02*
X126075142Y-104405333D01*
X125979904Y-104357714D01*
X125837047Y-104357714D01*
X125741809Y-104405333D01*
X125694190Y-104500571D01*
X125694190Y-105024380D01*
X118342952Y-104500571D02*
X118009619Y-104500571D01*
X117866761Y-105024380D02*
X118342952Y-105024380D01*
X118342952Y-104024380D01*
X117866761Y-104024380D01*
X117533428Y-105024380D02*
X117009619Y-104357714D01*
X117533428Y-104357714D02*
X117009619Y-105024380D01*
X116771523Y-104357714D02*
X116390571Y-104357714D01*
X116628666Y-104024380D02*
X116628666Y-104881523D01*
X116581047Y-104976761D01*
X116485809Y-105024380D01*
X116390571Y-105024380D01*
X116057238Y-105024380D02*
X116057238Y-104357714D01*
X116057238Y-104548190D02*
X116009619Y-104452952D01*
X115962000Y-104405333D01*
X115866761Y-104357714D01*
X115771523Y-104357714D01*
X115009619Y-104357714D02*
X115009619Y-105024380D01*
X115438190Y-104357714D02*
X115438190Y-104881523D01*
X115390571Y-104976761D01*
X115295333Y-105024380D01*
X115152476Y-105024380D01*
X115057238Y-104976761D01*
X115009619Y-104929142D01*
X114104857Y-105024380D02*
X114104857Y-104024380D01*
X114104857Y-104976761D02*
X114200095Y-105024380D01*
X114390571Y-105024380D01*
X114485809Y-104976761D01*
X114533428Y-104929142D01*
X114581047Y-104833904D01*
X114581047Y-104548190D01*
X114533428Y-104452952D01*
X114485809Y-104405333D01*
X114390571Y-104357714D01*
X114200095Y-104357714D01*
X114104857Y-104405333D01*
X113628666Y-105024380D02*
X113628666Y-104357714D01*
X113628666Y-104548190D02*
X113581047Y-104452952D01*
X113533428Y-104405333D01*
X113438190Y-104357714D01*
X113342952Y-104357714D01*
X112247714Y-105024380D02*
X112247714Y-104024380D01*
X111914380Y-104738666D01*
X111581047Y-104024380D01*
X111581047Y-105024380D01*
X110962000Y-105024380D02*
X111057238Y-104976761D01*
X111104857Y-104929142D01*
X111152476Y-104833904D01*
X111152476Y-104548190D01*
X111104857Y-104452952D01*
X111057238Y-104405333D01*
X110962000Y-104357714D01*
X110819142Y-104357714D01*
X110723904Y-104405333D01*
X110676285Y-104452952D01*
X110628666Y-104548190D01*
X110628666Y-104833904D01*
X110676285Y-104929142D01*
X110723904Y-104976761D01*
X110819142Y-105024380D01*
X110962000Y-105024380D01*
X110342952Y-104357714D02*
X109962000Y-104357714D01*
X110200095Y-104024380D02*
X110200095Y-104881523D01*
X110152476Y-104976761D01*
X110057238Y-105024380D01*
X109962000Y-105024380D01*
X109485809Y-105024380D02*
X109581047Y-104976761D01*
X109628666Y-104929142D01*
X109676285Y-104833904D01*
X109676285Y-104548190D01*
X109628666Y-104452952D01*
X109581047Y-104405333D01*
X109485809Y-104357714D01*
X109342952Y-104357714D01*
X109247714Y-104405333D01*
X109200095Y-104452952D01*
X109152476Y-104548190D01*
X109152476Y-104833904D01*
X109200095Y-104929142D01*
X109247714Y-104976761D01*
X109342952Y-105024380D01*
X109485809Y-105024380D01*
X108723904Y-105024380D02*
X108723904Y-104357714D01*
X108723904Y-104548190D02*
X108676285Y-104452952D01*
X108628666Y-104405333D01*
X108533428Y-104357714D01*
X108438190Y-104357714D01*
X105547619Y-104024380D02*
X104880952Y-104024380D01*
X105547619Y-105024380D01*
X104880952Y-105024380D01*
X104500000Y-104643428D02*
X103738095Y-104643428D01*
X103261904Y-104500571D02*
X102928571Y-104500571D01*
X102785714Y-105024380D02*
X103261904Y-105024380D01*
X103261904Y-104024380D01*
X102785714Y-104024380D01*
X102357142Y-104357714D02*
X102357142Y-105024380D01*
X102357142Y-104452952D02*
X102309523Y-104405333D01*
X102214285Y-104357714D01*
X102071428Y-104357714D01*
X101976190Y-104405333D01*
X101928571Y-104500571D01*
X101928571Y-105024380D01*
X101023809Y-105024380D02*
X101023809Y-104024380D01*
X101023809Y-104976761D02*
X101119047Y-105024380D01*
X101309523Y-105024380D01*
X101404761Y-104976761D01*
X101452380Y-104929142D01*
X101500000Y-104833904D01*
X101500000Y-104548190D01*
X101452380Y-104452952D01*
X101404761Y-104405333D01*
X101309523Y-104357714D01*
X101119047Y-104357714D01*
X101023809Y-104405333D01*
X100595238Y-104976761D02*
X100500000Y-105024380D01*
X100309523Y-105024380D01*
X100214285Y-104976761D01*
X100166666Y-104881523D01*
X100166666Y-104833904D01*
X100214285Y-104738666D01*
X100309523Y-104691047D01*
X100452380Y-104691047D01*
X100547619Y-104643428D01*
X100595238Y-104548190D01*
X100595238Y-104500571D01*
X100547619Y-104405333D01*
X100452380Y-104357714D01*
X100309523Y-104357714D01*
X100214285Y-104405333D01*
X99880952Y-104357714D02*
X99500000Y-104357714D01*
X99738095Y-104024380D02*
X99738095Y-104881523D01*
X99690476Y-104976761D01*
X99595238Y-105024380D01*
X99500000Y-105024380D01*
X99023809Y-105024380D02*
X99119047Y-104976761D01*
X99166666Y-104929142D01*
X99214285Y-104833904D01*
X99214285Y-104548190D01*
X99166666Y-104452952D01*
X99119047Y-104405333D01*
X99023809Y-104357714D01*
X98880952Y-104357714D01*
X98785714Y-104405333D01*
X98738095Y-104452952D01*
X98690476Y-104548190D01*
X98690476Y-104833904D01*
X98738095Y-104929142D01*
X98785714Y-104976761D01*
X98880952Y-105024380D01*
X99023809Y-105024380D01*
X98261904Y-104357714D02*
X98261904Y-105357714D01*
X98261904Y-104405333D02*
X98166666Y-104357714D01*
X97976190Y-104357714D01*
X97880952Y-104405333D01*
X97833333Y-104452952D01*
X97785714Y-104548190D01*
X97785714Y-104833904D01*
X97833333Y-104929142D01*
X97880952Y-104976761D01*
X97976190Y-105024380D01*
X98166666Y-105024380D01*
X98261904Y-104976761D01*
X96404761Y-104024380D02*
X96214285Y-104024380D01*
X96119047Y-104072000D01*
X96023809Y-104167238D01*
X95976190Y-104357714D01*
X95976190Y-104691047D01*
X96023809Y-104881523D01*
X96119047Y-104976761D01*
X96214285Y-105024380D01*
X96404761Y-105024380D01*
X96500000Y-104976761D01*
X96595238Y-104881523D01*
X96642857Y-104691047D01*
X96642857Y-104357714D01*
X96595238Y-104167238D01*
X96500000Y-104072000D01*
X96404761Y-104024380D01*
X95119047Y-104357714D02*
X95119047Y-105024380D01*
X95547619Y-104357714D02*
X95547619Y-104881523D01*
X95500000Y-104976761D01*
X95404761Y-105024380D01*
X95261904Y-105024380D01*
X95166666Y-104976761D01*
X95119047Y-104929142D01*
X94785714Y-104357714D02*
X94404761Y-104357714D01*
X94642857Y-104024380D02*
X94642857Y-104881523D01*
X94595238Y-104976761D01*
X94500000Y-105024380D01*
X94404761Y-105024380D01*
X68535333Y-94388190D02*
X68535333Y-94864380D01*
X68868666Y-93864380D02*
X68535333Y-94388190D01*
X68202000Y-93864380D01*
X68106761Y-94959619D02*
X67344857Y-94959619D01*
X67106761Y-94340571D02*
X66773428Y-94340571D01*
X66630571Y-94864380D02*
X67106761Y-94864380D01*
X67106761Y-93864380D01*
X66630571Y-93864380D01*
X66202000Y-94197714D02*
X66202000Y-94864380D01*
X66202000Y-94292952D02*
X66154380Y-94245333D01*
X66059142Y-94197714D01*
X65916285Y-94197714D01*
X65821047Y-94245333D01*
X65773428Y-94340571D01*
X65773428Y-94864380D01*
X64868666Y-94864380D02*
X64868666Y-93864380D01*
X64868666Y-94816761D02*
X64963904Y-94864380D01*
X65154380Y-94864380D01*
X65249619Y-94816761D01*
X65297238Y-94769142D01*
X65344857Y-94673904D01*
X65344857Y-94388190D01*
X65297238Y-94292952D01*
X65249619Y-94245333D01*
X65154380Y-94197714D01*
X64963904Y-94197714D01*
X64868666Y-94245333D01*
X64440095Y-94816761D02*
X64344857Y-94864380D01*
X64154380Y-94864380D01*
X64059142Y-94816761D01*
X64011523Y-94721523D01*
X64011523Y-94673904D01*
X64059142Y-94578666D01*
X64154380Y-94531047D01*
X64297238Y-94531047D01*
X64392476Y-94483428D01*
X64440095Y-94388190D01*
X64440095Y-94340571D01*
X64392476Y-94245333D01*
X64297238Y-94197714D01*
X64154380Y-94197714D01*
X64059142Y-94245333D01*
X63725809Y-94197714D02*
X63344857Y-94197714D01*
X63582952Y-93864380D02*
X63582952Y-94721523D01*
X63535333Y-94816761D01*
X63440095Y-94864380D01*
X63344857Y-94864380D01*
X62868666Y-94864380D02*
X62963904Y-94816761D01*
X63011523Y-94769142D01*
X63059142Y-94673904D01*
X63059142Y-94388190D01*
X63011523Y-94292952D01*
X62963904Y-94245333D01*
X62868666Y-94197714D01*
X62725809Y-94197714D01*
X62630571Y-94245333D01*
X62582952Y-94292952D01*
X62535333Y-94388190D01*
X62535333Y-94673904D01*
X62582952Y-94769142D01*
X62630571Y-94816761D01*
X62725809Y-94864380D01*
X62868666Y-94864380D01*
X62106761Y-94197714D02*
X62106761Y-95197714D01*
X62106761Y-94245333D02*
X62011523Y-94197714D01*
X61821047Y-94197714D01*
X61725809Y-94245333D01*
X61678190Y-94292952D01*
X61630571Y-94388190D01*
X61630571Y-94673904D01*
X61678190Y-94769142D01*
X61725809Y-94816761D01*
X61821047Y-94864380D01*
X62011523Y-94864380D01*
X62106761Y-94816761D01*
X84878285Y-104516380D02*
X84878285Y-103516380D01*
X84497333Y-103516380D01*
X84402095Y-103564000D01*
X84354476Y-103611619D01*
X84306857Y-103706857D01*
X84306857Y-103849714D01*
X84354476Y-103944952D01*
X84402095Y-103992571D01*
X84497333Y-104040190D01*
X84878285Y-104040190D01*
X83449714Y-104516380D02*
X83449714Y-103992571D01*
X83497333Y-103897333D01*
X83592571Y-103849714D01*
X83783047Y-103849714D01*
X83878285Y-103897333D01*
X83449714Y-104468761D02*
X83544952Y-104516380D01*
X83783047Y-104516380D01*
X83878285Y-104468761D01*
X83925904Y-104373523D01*
X83925904Y-104278285D01*
X83878285Y-104183047D01*
X83783047Y-104135428D01*
X83544952Y-104135428D01*
X83449714Y-104087809D01*
X82973523Y-104516380D02*
X82973523Y-103849714D01*
X82973523Y-104040190D02*
X82925904Y-103944952D01*
X82878285Y-103897333D01*
X82783047Y-103849714D01*
X82687809Y-103849714D01*
X82497333Y-103849714D02*
X82116380Y-103849714D01*
X82354476Y-103516380D02*
X82354476Y-104373523D01*
X82306857Y-104468761D01*
X82211619Y-104516380D01*
X82116380Y-104516380D01*
X80449714Y-104421142D02*
X80497333Y-104468761D01*
X80640190Y-104516380D01*
X80735428Y-104516380D01*
X80878285Y-104468761D01*
X80973523Y-104373523D01*
X81021142Y-104278285D01*
X81068761Y-104087809D01*
X81068761Y-103944952D01*
X81021142Y-103754476D01*
X80973523Y-103659238D01*
X80878285Y-103564000D01*
X80735428Y-103516380D01*
X80640190Y-103516380D01*
X80497333Y-103564000D01*
X80449714Y-103611619D01*
X79878285Y-104516380D02*
X79973523Y-104468761D01*
X80021142Y-104421142D01*
X80068761Y-104325904D01*
X80068761Y-104040190D01*
X80021142Y-103944952D01*
X79973523Y-103897333D01*
X79878285Y-103849714D01*
X79735428Y-103849714D01*
X79640190Y-103897333D01*
X79592571Y-103944952D01*
X79544952Y-104040190D01*
X79544952Y-104325904D01*
X79592571Y-104421142D01*
X79640190Y-104468761D01*
X79735428Y-104516380D01*
X79878285Y-104516380D01*
X78973523Y-104516380D02*
X79068761Y-104468761D01*
X79116380Y-104421142D01*
X79164000Y-104325904D01*
X79164000Y-104040190D01*
X79116380Y-103944952D01*
X79068761Y-103897333D01*
X78973523Y-103849714D01*
X78830666Y-103849714D01*
X78735428Y-103897333D01*
X78687809Y-103944952D01*
X78640190Y-104040190D01*
X78640190Y-104325904D01*
X78687809Y-104421142D01*
X78735428Y-104468761D01*
X78830666Y-104516380D01*
X78973523Y-104516380D01*
X78068761Y-104516380D02*
X78164000Y-104468761D01*
X78211619Y-104373523D01*
X78211619Y-103516380D01*
X77687809Y-104516380D02*
X77687809Y-103849714D01*
X77687809Y-103516380D02*
X77735428Y-103564000D01*
X77687809Y-103611619D01*
X77640190Y-103564000D01*
X77687809Y-103516380D01*
X77687809Y-103611619D01*
X77211619Y-103849714D02*
X77211619Y-104516380D01*
X77211619Y-103944952D02*
X77164000Y-103897333D01*
X77068761Y-103849714D01*
X76925904Y-103849714D01*
X76830666Y-103897333D01*
X76783047Y-103992571D01*
X76783047Y-104516380D01*
X75878285Y-103849714D02*
X75878285Y-104659238D01*
X75925904Y-104754476D01*
X75973523Y-104802095D01*
X76068761Y-104849714D01*
X76211619Y-104849714D01*
X76306857Y-104802095D01*
X75878285Y-104468761D02*
X75973523Y-104516380D01*
X76164000Y-104516380D01*
X76259238Y-104468761D01*
X76306857Y-104421142D01*
X76354476Y-104325904D01*
X76354476Y-104040190D01*
X76306857Y-103944952D01*
X76259238Y-103897333D01*
X76164000Y-103849714D01*
X75973523Y-103849714D01*
X75878285Y-103897333D01*
X74306857Y-103992571D02*
X74640190Y-103992571D01*
X74640190Y-104516380D02*
X74640190Y-103516380D01*
X74164000Y-103516380D01*
X73354476Y-104516380D02*
X73354476Y-103992571D01*
X73402095Y-103897333D01*
X73497333Y-103849714D01*
X73687809Y-103849714D01*
X73783047Y-103897333D01*
X73354476Y-104468761D02*
X73449714Y-104516380D01*
X73687809Y-104516380D01*
X73783047Y-104468761D01*
X73830666Y-104373523D01*
X73830666Y-104278285D01*
X73783047Y-104183047D01*
X73687809Y-104135428D01*
X73449714Y-104135428D01*
X73354476Y-104087809D01*
X72878285Y-103849714D02*
X72878285Y-104516380D01*
X72878285Y-103944952D02*
X72830666Y-103897333D01*
X72735428Y-103849714D01*
X72592571Y-103849714D01*
X72497333Y-103897333D01*
X72449714Y-103992571D01*
X72449714Y-104516380D01*
X69106761Y-84212380D02*
X68440095Y-85212380D01*
X68440095Y-84212380D02*
X69106761Y-85212380D01*
X68059142Y-84831428D02*
X67297238Y-84831428D01*
X66821047Y-84688571D02*
X66487714Y-84688571D01*
X66344857Y-85212380D02*
X66821047Y-85212380D01*
X66821047Y-84212380D01*
X66344857Y-84212380D01*
X65916285Y-84545714D02*
X65916285Y-85212380D01*
X65916285Y-84640952D02*
X65868666Y-84593333D01*
X65773428Y-84545714D01*
X65630571Y-84545714D01*
X65535333Y-84593333D01*
X65487714Y-84688571D01*
X65487714Y-85212380D01*
X64582952Y-85212380D02*
X64582952Y-84212380D01*
X64582952Y-85164761D02*
X64678190Y-85212380D01*
X64868666Y-85212380D01*
X64963904Y-85164761D01*
X65011523Y-85117142D01*
X65059142Y-85021904D01*
X65059142Y-84736190D01*
X65011523Y-84640952D01*
X64963904Y-84593333D01*
X64868666Y-84545714D01*
X64678190Y-84545714D01*
X64582952Y-84593333D01*
X64154380Y-85164761D02*
X64059142Y-85212380D01*
X63868666Y-85212380D01*
X63773428Y-85164761D01*
X63725809Y-85069523D01*
X63725809Y-85021904D01*
X63773428Y-84926666D01*
X63868666Y-84879047D01*
X64011523Y-84879047D01*
X64106761Y-84831428D01*
X64154380Y-84736190D01*
X64154380Y-84688571D01*
X64106761Y-84593333D01*
X64011523Y-84545714D01*
X63868666Y-84545714D01*
X63773428Y-84593333D01*
X63440095Y-84545714D02*
X63059142Y-84545714D01*
X63297238Y-84212380D02*
X63297238Y-85069523D01*
X63249619Y-85164761D01*
X63154380Y-85212380D01*
X63059142Y-85212380D01*
X62582952Y-85212380D02*
X62678190Y-85164761D01*
X62725809Y-85117142D01*
X62773428Y-85021904D01*
X62773428Y-84736190D01*
X62725809Y-84640952D01*
X62678190Y-84593333D01*
X62582952Y-84545714D01*
X62440095Y-84545714D01*
X62344857Y-84593333D01*
X62297238Y-84640952D01*
X62249619Y-84736190D01*
X62249619Y-85021904D01*
X62297238Y-85117142D01*
X62344857Y-85164761D01*
X62440095Y-85212380D01*
X62582952Y-85212380D01*
X61821047Y-84545714D02*
X61821047Y-85545714D01*
X61821047Y-84593333D02*
X61725809Y-84545714D01*
X61535333Y-84545714D01*
X61440095Y-84593333D01*
X61392476Y-84640952D01*
X61344857Y-84736190D01*
X61344857Y-85021904D01*
X61392476Y-85117142D01*
X61440095Y-85164761D01*
X61535333Y-85212380D01*
X61725809Y-85212380D01*
X61821047Y-85164761D01*
X133718000Y-95848666D02*
X133241809Y-95848666D01*
X133813238Y-96134380D02*
X133479904Y-95134380D01*
X133146571Y-96134380D01*
X132813238Y-95753428D02*
X132051333Y-95753428D01*
X131575142Y-96134380D02*
X131575142Y-95134380D01*
X131241809Y-95848666D01*
X130908476Y-95134380D01*
X130908476Y-96134380D01*
X130289428Y-96134380D02*
X130384666Y-96086761D01*
X130432285Y-96039142D01*
X130479904Y-95943904D01*
X130479904Y-95658190D01*
X130432285Y-95562952D01*
X130384666Y-95515333D01*
X130289428Y-95467714D01*
X130146571Y-95467714D01*
X130051333Y-95515333D01*
X130003714Y-95562952D01*
X129956095Y-95658190D01*
X129956095Y-95943904D01*
X130003714Y-96039142D01*
X130051333Y-96086761D01*
X130146571Y-96134380D01*
X130289428Y-96134380D01*
X129670380Y-95467714D02*
X129289428Y-95467714D01*
X129527523Y-95134380D02*
X129527523Y-95991523D01*
X129479904Y-96086761D01*
X129384666Y-96134380D01*
X129289428Y-96134380D01*
X128813238Y-96134380D02*
X128908476Y-96086761D01*
X128956095Y-96039142D01*
X129003714Y-95943904D01*
X129003714Y-95658190D01*
X128956095Y-95562952D01*
X128908476Y-95515333D01*
X128813238Y-95467714D01*
X128670380Y-95467714D01*
X128575142Y-95515333D01*
X128527523Y-95562952D01*
X128479904Y-95658190D01*
X128479904Y-95943904D01*
X128527523Y-96039142D01*
X128575142Y-96086761D01*
X128670380Y-96134380D01*
X128813238Y-96134380D01*
X128051333Y-96134380D02*
X128051333Y-95467714D01*
X128051333Y-95658190D02*
X128003714Y-95562952D01*
X127956095Y-95515333D01*
X127860857Y-95467714D01*
X127765619Y-95467714D01*
X126670380Y-96134380D02*
X126670380Y-95134380D01*
X126194190Y-95467714D02*
X126194190Y-96134380D01*
X126194190Y-95562952D02*
X126146571Y-95515333D01*
X126051333Y-95467714D01*
X125908476Y-95467714D01*
X125813238Y-95515333D01*
X125765619Y-95610571D01*
X125765619Y-96134380D01*
D12*
X159006476Y-89189142D02*
X159673142Y-89189142D01*
X159673142Y-90236761D02*
X159673142Y-88236761D01*
X158720761Y-88236761D01*
X157958857Y-90236761D02*
X157958857Y-88903428D01*
X157958857Y-89284380D02*
X157863619Y-89093904D01*
X157768380Y-88998666D01*
X157577904Y-88903428D01*
X157387428Y-88903428D01*
X155863619Y-90236761D02*
X155863619Y-89189142D01*
X155958857Y-88998666D01*
X156149333Y-88903428D01*
X156530285Y-88903428D01*
X156720761Y-88998666D01*
X155863619Y-90141523D02*
X156054095Y-90236761D01*
X156530285Y-90236761D01*
X156720761Y-90141523D01*
X156816000Y-89951047D01*
X156816000Y-89760571D01*
X156720761Y-89570095D01*
X156530285Y-89474857D01*
X156054095Y-89474857D01*
X155863619Y-89379619D01*
X154911238Y-90236761D02*
X154911238Y-88903428D01*
X154911238Y-89093904D02*
X154816000Y-88998666D01*
X154625523Y-88903428D01*
X154339809Y-88903428D01*
X154149333Y-88998666D01*
X154054095Y-89189142D01*
X154054095Y-90236761D01*
X154054095Y-89189142D02*
X153958857Y-88998666D01*
X153768380Y-88903428D01*
X153482666Y-88903428D01*
X153292190Y-88998666D01*
X153196952Y-89189142D01*
X153196952Y-90236761D01*
X151482666Y-90141523D02*
X151673142Y-90236761D01*
X152054095Y-90236761D01*
X152244571Y-90141523D01*
X152339809Y-89951047D01*
X152339809Y-89189142D01*
X152244571Y-88998666D01*
X152054095Y-88903428D01*
X151673142Y-88903428D01*
X151482666Y-88998666D01*
X151387428Y-89189142D01*
X151387428Y-89379619D01*
X152339809Y-89570095D01*
X149006476Y-90236761D02*
X149006476Y-88236761D01*
X148244571Y-88236761D01*
X148054095Y-88332000D01*
X147958857Y-88427238D01*
X147863619Y-88617714D01*
X147863619Y-88903428D01*
X147958857Y-89093904D01*
X148054095Y-89189142D01*
X148244571Y-89284380D01*
X149006476Y-89284380D01*
X145863619Y-90046285D02*
X145958857Y-90141523D01*
X146244571Y-90236761D01*
X146435047Y-90236761D01*
X146720761Y-90141523D01*
X146911238Y-89951047D01*
X147006476Y-89760571D01*
X147101714Y-89379619D01*
X147101714Y-89093904D01*
X147006476Y-88712952D01*
X146911238Y-88522476D01*
X146720761Y-88332000D01*
X146435047Y-88236761D01*
X146244571Y-88236761D01*
X145958857Y-88332000D01*
X145863619Y-88427238D01*
X144339809Y-89189142D02*
X144054095Y-89284380D01*
X143958857Y-89379619D01*
X143863619Y-89570095D01*
X143863619Y-89855809D01*
X143958857Y-90046285D01*
X144054095Y-90141523D01*
X144244571Y-90236761D01*
X145006476Y-90236761D01*
X145006476Y-88236761D01*
X144339809Y-88236761D01*
X144149333Y-88332000D01*
X144054095Y-88427238D01*
X143958857Y-88617714D01*
X143958857Y-88808190D01*
X144054095Y-88998666D01*
X144149333Y-89093904D01*
X144339809Y-89189142D01*
X145006476Y-89189142D01*
D10*
%TO.C,J3*%
X78997333Y-96658380D02*
X78997333Y-97372666D01*
X79044952Y-97515523D01*
X79140190Y-97610761D01*
X79283047Y-97658380D01*
X79378285Y-97658380D01*
X78616380Y-96658380D02*
X77997333Y-96658380D01*
X78330666Y-97039333D01*
X78187809Y-97039333D01*
X78092571Y-97086952D01*
X78044952Y-97134571D01*
X77997333Y-97229809D01*
X77997333Y-97467904D01*
X78044952Y-97563142D01*
X78092571Y-97610761D01*
X78187809Y-97658380D01*
X78473523Y-97658380D01*
X78568761Y-97610761D01*
X78616380Y-97563142D01*
%TO.C,J4*%
X78997333Y-106310380D02*
X78997333Y-107024666D01*
X79044952Y-107167523D01*
X79140190Y-107262761D01*
X79283047Y-107310380D01*
X79378285Y-107310380D01*
X78092571Y-106643714D02*
X78092571Y-107310380D01*
X78330666Y-106262761D02*
X78568761Y-106977047D01*
X77949714Y-106977047D01*
%TO.C,J6*%
X78997333Y-87006380D02*
X78997333Y-87720666D01*
X79044952Y-87863523D01*
X79140190Y-87958761D01*
X79283047Y-88006380D01*
X79378285Y-88006380D01*
X78092571Y-87006380D02*
X78283047Y-87006380D01*
X78378285Y-87054000D01*
X78425904Y-87101619D01*
X78521142Y-87244476D01*
X78568761Y-87434952D01*
X78568761Y-87815904D01*
X78521142Y-87911142D01*
X78473523Y-87958761D01*
X78378285Y-88006380D01*
X78187809Y-88006380D01*
X78092571Y-87958761D01*
X78044952Y-87911142D01*
X77997333Y-87815904D01*
X77997333Y-87577809D01*
X78044952Y-87482571D01*
X78092571Y-87434952D01*
X78187809Y-87387333D01*
X78378285Y-87387333D01*
X78473523Y-87434952D01*
X78521142Y-87482571D01*
X78568761Y-87577809D01*
%TO.C,J7*%
X65535333Y-87006380D02*
X65535333Y-87720666D01*
X65582952Y-87863523D01*
X65678190Y-87958761D01*
X65821047Y-88006380D01*
X65916285Y-88006380D01*
X65154380Y-87006380D02*
X64487714Y-87006380D01*
X64916285Y-88006380D01*
%TO.C,J2*%
X113795333Y-106818380D02*
X113795333Y-107532666D01*
X113842952Y-107675523D01*
X113938190Y-107770761D01*
X114081047Y-107818380D01*
X114176285Y-107818380D01*
X113366761Y-106913619D02*
X113319142Y-106866000D01*
X113223904Y-106818380D01*
X112985809Y-106818380D01*
X112890571Y-106866000D01*
X112842952Y-106913619D01*
X112795333Y-107008857D01*
X112795333Y-107104095D01*
X112842952Y-107246952D01*
X113414380Y-107818380D01*
X112795333Y-107818380D01*
%TO.C,J5*%
X124141380Y-88485666D02*
X124855666Y-88485666D01*
X124998523Y-88438047D01*
X125093761Y-88342809D01*
X125141380Y-88199952D01*
X125141380Y-88104714D01*
X124141380Y-89438047D02*
X124141380Y-88961857D01*
X124617571Y-88914238D01*
X124569952Y-88961857D01*
X124522333Y-89057095D01*
X124522333Y-89295190D01*
X124569952Y-89390428D01*
X124617571Y-89438047D01*
X124712809Y-89485666D01*
X124950904Y-89485666D01*
X125046142Y-89438047D01*
X125093761Y-89390428D01*
X125141380Y-89295190D01*
X125141380Y-89057095D01*
X125093761Y-88961857D01*
X125046142Y-88914238D01*
%TO.C,J10*%
X66011523Y-106310380D02*
X66011523Y-107024666D01*
X66059142Y-107167523D01*
X66154380Y-107262761D01*
X66297238Y-107310380D01*
X66392476Y-107310380D01*
X65011523Y-107310380D02*
X65582952Y-107310380D01*
X65297238Y-107310380D02*
X65297238Y-106310380D01*
X65392476Y-106453238D01*
X65487714Y-106548476D01*
X65582952Y-106596095D01*
X64392476Y-106310380D02*
X64297238Y-106310380D01*
X64202000Y-106358000D01*
X64154380Y-106405619D01*
X64106761Y-106500857D01*
X64059142Y-106691333D01*
X64059142Y-106929428D01*
X64106761Y-107119904D01*
X64154380Y-107215142D01*
X64202000Y-107262761D01*
X64297238Y-107310380D01*
X64392476Y-107310380D01*
X64487714Y-107262761D01*
X64535333Y-107215142D01*
X64582952Y-107119904D01*
X64630571Y-106929428D01*
X64630571Y-106691333D01*
X64582952Y-106500857D01*
X64535333Y-106405619D01*
X64487714Y-106358000D01*
X64392476Y-106310380D01*
%TO.C,J8*%
X65515333Y-96658380D02*
X65515333Y-97372666D01*
X65562952Y-97515523D01*
X65658190Y-97610761D01*
X65801047Y-97658380D01*
X65896285Y-97658380D01*
X64896285Y-97086952D02*
X64991523Y-97039333D01*
X65039142Y-96991714D01*
X65086761Y-96896476D01*
X65086761Y-96848857D01*
X65039142Y-96753619D01*
X64991523Y-96706000D01*
X64896285Y-96658380D01*
X64705809Y-96658380D01*
X64610571Y-96706000D01*
X64562952Y-96753619D01*
X64515333Y-96848857D01*
X64515333Y-96896476D01*
X64562952Y-96991714D01*
X64610571Y-97039333D01*
X64705809Y-97086952D01*
X64896285Y-97086952D01*
X64991523Y-97134571D01*
X65039142Y-97182190D01*
X65086761Y-97277428D01*
X65086761Y-97467904D01*
X65039142Y-97563142D01*
X64991523Y-97610761D01*
X64896285Y-97658380D01*
X64705809Y-97658380D01*
X64610571Y-97610761D01*
X64562952Y-97563142D01*
X64515333Y-97467904D01*
X64515333Y-97277428D01*
X64562952Y-97182190D01*
X64610571Y-97134571D01*
X64705809Y-97086952D01*
%TO.C,J17*%
X130527523Y-97928380D02*
X130527523Y-98642666D01*
X130575142Y-98785523D01*
X130670380Y-98880761D01*
X130813238Y-98928380D01*
X130908476Y-98928380D01*
X129527523Y-98928380D02*
X130098952Y-98928380D01*
X129813238Y-98928380D02*
X129813238Y-97928380D01*
X129908476Y-98071238D01*
X130003714Y-98166476D01*
X130098952Y-98214095D01*
X129194190Y-97928380D02*
X128527523Y-97928380D01*
X128956095Y-98928380D01*
%TO.C,J14*%
X53224380Y-101222476D02*
X53938666Y-101222476D01*
X54081523Y-101174857D01*
X54176761Y-101079619D01*
X54224380Y-100936761D01*
X54224380Y-100841523D01*
X54224380Y-102222476D02*
X54224380Y-101651047D01*
X54224380Y-101936761D02*
X53224380Y-101936761D01*
X53367238Y-101841523D01*
X53462476Y-101746285D01*
X53510095Y-101651047D01*
X53557714Y-103079619D02*
X54224380Y-103079619D01*
X53176761Y-102841523D02*
X53891047Y-102603428D01*
X53891047Y-103222476D01*
%TO.C,J11*%
X100809523Y-106818380D02*
X100809523Y-107532666D01*
X100857142Y-107675523D01*
X100952380Y-107770761D01*
X101095238Y-107818380D01*
X101190476Y-107818380D01*
X99809523Y-107818380D02*
X100380952Y-107818380D01*
X100095238Y-107818380D02*
X100095238Y-106818380D01*
X100190476Y-106961238D01*
X100285714Y-107056476D01*
X100380952Y-107104095D01*
X98857142Y-107818380D02*
X99428571Y-107818380D01*
X99142857Y-107818380D02*
X99142857Y-106818380D01*
X99238095Y-106961238D01*
X99333333Y-107056476D01*
X99428571Y-107104095D01*
%TO.C,J16*%
X145426380Y-101222476D02*
X146140666Y-101222476D01*
X146283523Y-101174857D01*
X146378761Y-101079619D01*
X146426380Y-100936761D01*
X146426380Y-100841523D01*
X146426380Y-102222476D02*
X146426380Y-101651047D01*
X146426380Y-101936761D02*
X145426380Y-101936761D01*
X145569238Y-101841523D01*
X145664476Y-101746285D01*
X145712095Y-101651047D01*
X145426380Y-103079619D02*
X145426380Y-102889142D01*
X145474000Y-102793904D01*
X145521619Y-102746285D01*
X145664476Y-102651047D01*
X145854952Y-102603428D01*
X146235904Y-102603428D01*
X146331142Y-102651047D01*
X146378761Y-102698666D01*
X146426380Y-102793904D01*
X146426380Y-102984380D01*
X146378761Y-103079619D01*
X146331142Y-103127238D01*
X146235904Y-103174857D01*
X145997809Y-103174857D01*
X145902571Y-103127238D01*
X145854952Y-103079619D01*
X145807333Y-102984380D01*
X145807333Y-102793904D01*
X145854952Y-102698666D01*
X145902571Y-102651047D01*
X145997809Y-102603428D01*
%TO.C,J15*%
X130467523Y-106818380D02*
X130467523Y-107532666D01*
X130515142Y-107675523D01*
X130610380Y-107770761D01*
X130753238Y-107818380D01*
X130848476Y-107818380D01*
X129467523Y-107818380D02*
X130038952Y-107818380D01*
X129753238Y-107818380D02*
X129753238Y-106818380D01*
X129848476Y-106961238D01*
X129943714Y-107056476D01*
X130038952Y-107104095D01*
X128562761Y-106818380D02*
X129038952Y-106818380D01*
X129086571Y-107294571D01*
X129038952Y-107246952D01*
X128943714Y-107199333D01*
X128705619Y-107199333D01*
X128610380Y-107246952D01*
X128562761Y-107294571D01*
X128515142Y-107389809D01*
X128515142Y-107627904D01*
X128562761Y-107723142D01*
X128610380Y-107770761D01*
X128705619Y-107818380D01*
X128943714Y-107818380D01*
X129038952Y-107770761D01*
X129086571Y-107723142D01*
D13*
%TO.C,J3*%
X76664000Y-101451000D02*
X74864000Y-101451000D01*
X75814000Y-101751000D02*
X74564000Y-101751000D01*
X81714000Y-96251000D02*
X78664000Y-96251000D01*
X79164000Y-101451000D02*
X78164000Y-101451000D01*
X74854000Y-95491000D02*
X82474000Y-95491000D01*
X82474000Y-101461000D02*
X74854000Y-101461000D01*
X74564000Y-101751000D02*
X74564000Y-100501000D01*
X81714000Y-99201000D02*
X81714000Y-96251000D01*
X82464000Y-101451000D02*
X80664000Y-101451000D01*
X74864000Y-99201000D02*
X75614000Y-99201000D01*
X74864000Y-100701000D02*
X76664000Y-100701000D01*
X80664000Y-101451000D02*
X80664000Y-100701000D01*
X82464000Y-99201000D02*
X81714000Y-99201000D01*
X75614000Y-96251000D02*
X78664000Y-96251000D01*
X80664000Y-100701000D02*
X82464000Y-100701000D01*
X79164000Y-100701000D02*
X79164000Y-101451000D01*
X82474000Y-95491000D02*
X82474000Y-101461000D01*
X78164000Y-101451000D02*
X78164000Y-100701000D01*
X78164000Y-100701000D02*
X79164000Y-100701000D01*
X75614000Y-99201000D02*
X75614000Y-96251000D01*
X82464000Y-100701000D02*
X82464000Y-101451000D01*
X76664000Y-100701000D02*
X76664000Y-101451000D01*
X74864000Y-101451000D02*
X74864000Y-100701000D01*
X74854000Y-101461000D02*
X74854000Y-95491000D01*
%TO.C,J4*%
X82444000Y-110336000D02*
X82444000Y-111086000D01*
X82444000Y-108836000D02*
X81694000Y-108836000D01*
X75594000Y-105886000D02*
X78644000Y-105886000D01*
X82454000Y-111096000D02*
X74834000Y-111096000D01*
X79144000Y-111086000D02*
X78144000Y-111086000D01*
X75594000Y-108836000D02*
X75594000Y-105886000D01*
X78144000Y-110336000D02*
X79144000Y-110336000D01*
X78144000Y-111086000D02*
X78144000Y-110336000D01*
X74844000Y-111086000D02*
X74844000Y-110336000D01*
X76644000Y-110336000D02*
X76644000Y-111086000D01*
X74834000Y-105126000D02*
X82454000Y-105126000D01*
X81694000Y-105886000D02*
X78644000Y-105886000D01*
X74844000Y-110336000D02*
X76644000Y-110336000D01*
X80644000Y-110336000D02*
X82444000Y-110336000D01*
X74844000Y-108836000D02*
X75594000Y-108836000D01*
X82444000Y-111086000D02*
X80644000Y-111086000D01*
X76644000Y-111086000D02*
X74844000Y-111086000D01*
X74544000Y-111386000D02*
X74544000Y-110136000D01*
X81694000Y-108836000D02*
X81694000Y-105886000D01*
X74834000Y-111096000D02*
X74834000Y-105126000D01*
X79144000Y-110336000D02*
X79144000Y-111086000D01*
X82454000Y-105126000D02*
X82454000Y-111096000D01*
X75794000Y-111386000D02*
X74544000Y-111386000D01*
X80644000Y-111086000D02*
X80644000Y-110336000D01*
%TO.C,J6*%
X80664000Y-91782000D02*
X80664000Y-91032000D01*
X75814000Y-92082000D02*
X74564000Y-92082000D01*
X82464000Y-91032000D02*
X82464000Y-91782000D01*
X76664000Y-91032000D02*
X76664000Y-91782000D01*
X74854000Y-85822000D02*
X82474000Y-85822000D01*
X75614000Y-86582000D02*
X78664000Y-86582000D01*
X82474000Y-91792000D02*
X74854000Y-91792000D01*
X81714000Y-86582000D02*
X78664000Y-86582000D01*
X74864000Y-89532000D02*
X75614000Y-89532000D01*
X75614000Y-89532000D02*
X75614000Y-86582000D01*
X74864000Y-91032000D02*
X76664000Y-91032000D01*
X76664000Y-91782000D02*
X74864000Y-91782000D01*
X74854000Y-91792000D02*
X74854000Y-85822000D01*
X74564000Y-92082000D02*
X74564000Y-90832000D01*
X78164000Y-91782000D02*
X78164000Y-91032000D01*
X81714000Y-89532000D02*
X81714000Y-86582000D01*
X79164000Y-91782000D02*
X78164000Y-91782000D01*
X74864000Y-91782000D02*
X74864000Y-91032000D01*
X80664000Y-91032000D02*
X82464000Y-91032000D01*
X82474000Y-85822000D02*
X82474000Y-91792000D01*
X82464000Y-89532000D02*
X81714000Y-89532000D01*
X82464000Y-91782000D02*
X80664000Y-91782000D01*
X78164000Y-91032000D02*
X79164000Y-91032000D01*
X79164000Y-91032000D02*
X79164000Y-91782000D01*
%TO.C,J7*%
X63182000Y-91782000D02*
X61382000Y-91782000D01*
X61382000Y-91032000D02*
X63182000Y-91032000D01*
X61372000Y-91792000D02*
X61372000Y-85822000D01*
X65682000Y-91032000D02*
X65682000Y-91782000D01*
X61082000Y-92082000D02*
X61082000Y-90832000D01*
X61382000Y-89532000D02*
X62132000Y-89532000D01*
X61372000Y-85822000D02*
X68992000Y-85822000D01*
X64682000Y-91032000D02*
X65682000Y-91032000D01*
X65682000Y-91782000D02*
X64682000Y-91782000D01*
X67182000Y-91032000D02*
X68982000Y-91032000D01*
X68982000Y-89532000D02*
X68232000Y-89532000D01*
X62132000Y-86582000D02*
X65182000Y-86582000D01*
X67182000Y-91782000D02*
X67182000Y-91032000D01*
X68232000Y-86582000D02*
X65182000Y-86582000D01*
X68982000Y-91032000D02*
X68982000Y-91782000D01*
X64682000Y-91782000D02*
X64682000Y-91032000D01*
X63182000Y-91032000D02*
X63182000Y-91782000D01*
X62332000Y-92082000D02*
X61082000Y-92082000D01*
X68982000Y-91782000D02*
X67182000Y-91782000D01*
X62132000Y-89532000D02*
X62132000Y-86582000D01*
X61382000Y-91782000D02*
X61382000Y-91032000D01*
X68992000Y-91792000D02*
X61372000Y-91792000D01*
X68992000Y-85822000D02*
X68992000Y-91792000D01*
X68232000Y-89532000D02*
X68232000Y-86582000D01*
%TO.C,J2*%
X107912000Y-106411000D02*
X113462000Y-106411000D01*
X119762000Y-109361000D02*
X119012000Y-109361000D01*
X107912000Y-109361000D02*
X107912000Y-106411000D01*
X119012000Y-106411000D02*
X113462000Y-106411000D01*
X119772000Y-105651000D02*
X119772000Y-111621000D01*
X107162000Y-111611000D02*
X107162000Y-110861000D01*
X117962000Y-111611000D02*
X117962000Y-110861000D01*
X119762000Y-110861000D02*
X119762000Y-111611000D01*
X107162000Y-109361000D02*
X107912000Y-109361000D01*
X110462000Y-110861000D02*
X116462000Y-110861000D01*
X106862000Y-111911000D02*
X106862000Y-110661000D01*
X119772000Y-111621000D02*
X107152000Y-111621000D01*
X108962000Y-111611000D02*
X107162000Y-111611000D01*
X108962000Y-110861000D02*
X108962000Y-111611000D01*
X107152000Y-111621000D02*
X107152000Y-105651000D01*
X107162000Y-110861000D02*
X108962000Y-110861000D01*
X116462000Y-111611000D02*
X110462000Y-111611000D01*
X108112000Y-111911000D02*
X106862000Y-111911000D01*
X107152000Y-105651000D02*
X119772000Y-105651000D01*
X117962000Y-110861000D02*
X119762000Y-110861000D01*
X119762000Y-111611000D02*
X117962000Y-111611000D01*
X116462000Y-110861000D02*
X116462000Y-111611000D01*
X119012000Y-109361000D02*
X119012000Y-106411000D01*
X110462000Y-111611000D02*
X110462000Y-110861000D01*
%TO.C,J5*%
X129776000Y-90132000D02*
X129822000Y-90085000D01*
X123492000Y-83679000D02*
X123492000Y-93959000D01*
X131353000Y-83679000D02*
X131353000Y-93959000D01*
X132913000Y-83439000D02*
X133653000Y-83439000D01*
X132853000Y-83679000D02*
X132853000Y-93959000D01*
X123492000Y-93959000D02*
X133413000Y-93959000D01*
X123492000Y-83679000D02*
X133413000Y-83679000D01*
X129992000Y-90325000D02*
X130027000Y-90290000D01*
X133413000Y-83679000D02*
X133413000Y-93959000D01*
X127684000Y-92634000D02*
X127730000Y-92587000D01*
X126452000Y-83679000D02*
X126452000Y-93959000D01*
X127478000Y-92429000D02*
X127514000Y-92394000D01*
X133653000Y-83439000D02*
X133653000Y-83939000D01*
X130433253Y-86307805D02*
G75*
G03*
X130288000Y-85595000I-1680254J28806D01*
G01*
X127217573Y-85595958D02*
G75*
G03*
X127218000Y-86963000I1535431J-683041D01*
G01*
X129436042Y-84743573D02*
G75*
G03*
X128069000Y-84744000I-683041J-1535431D01*
G01*
X130287756Y-86962318D02*
G75*
G03*
X130433000Y-86279000I-1534748J683317D01*
G01*
X128069958Y-87814427D02*
G75*
G03*
X129437000Y-87814000I683041J1535431D01*
G01*
X130433000Y-91359000D02*
G75*
G03*
X130433000Y-91359000I-1680000J0D01*
G01*
%TO.C,J10*%
X65682000Y-111086000D02*
X64682000Y-111086000D01*
X68992000Y-105126000D02*
X68992000Y-111096000D01*
X68982000Y-108836000D02*
X68232000Y-108836000D01*
X63182000Y-111086000D02*
X61382000Y-111086000D01*
X67182000Y-110336000D02*
X68982000Y-110336000D01*
X68982000Y-110336000D02*
X68982000Y-111086000D01*
X68992000Y-111096000D02*
X61372000Y-111096000D01*
X65682000Y-110336000D02*
X65682000Y-111086000D01*
X64682000Y-110336000D02*
X65682000Y-110336000D01*
X62132000Y-108836000D02*
X62132000Y-105886000D01*
X62332000Y-111386000D02*
X61082000Y-111386000D01*
X61382000Y-108836000D02*
X62132000Y-108836000D01*
X61382000Y-111086000D02*
X61382000Y-110336000D01*
X61372000Y-111096000D02*
X61372000Y-105126000D01*
X61382000Y-110336000D02*
X63182000Y-110336000D01*
X68232000Y-105886000D02*
X65182000Y-105886000D01*
X61372000Y-105126000D02*
X68992000Y-105126000D01*
X61082000Y-111386000D02*
X61082000Y-110136000D01*
X62132000Y-105886000D02*
X65182000Y-105886000D01*
X68232000Y-108836000D02*
X68232000Y-105886000D01*
X67182000Y-111086000D02*
X67182000Y-110336000D01*
X63182000Y-110336000D02*
X63182000Y-111086000D01*
X64682000Y-111086000D02*
X64682000Y-110336000D01*
X68982000Y-111086000D02*
X67182000Y-111086000D01*
%TO.C,J8*%
X68982000Y-101434000D02*
X67182000Y-101434000D01*
X68992000Y-101444000D02*
X61372000Y-101444000D01*
X68982000Y-99184000D02*
X68232000Y-99184000D01*
X68982000Y-100684000D02*
X68982000Y-101434000D01*
X61082000Y-101734000D02*
X61082000Y-100484000D01*
X63182000Y-100684000D02*
X63182000Y-101434000D01*
X63182000Y-101434000D02*
X61382000Y-101434000D01*
X61382000Y-100684000D02*
X63182000Y-100684000D01*
X65682000Y-101434000D02*
X64682000Y-101434000D01*
X67182000Y-101434000D02*
X67182000Y-100684000D01*
X61382000Y-99184000D02*
X62132000Y-99184000D01*
X68992000Y-95474000D02*
X68992000Y-101444000D01*
X62132000Y-96234000D02*
X65182000Y-96234000D01*
X68232000Y-99184000D02*
X68232000Y-96234000D01*
X61372000Y-95474000D02*
X68992000Y-95474000D01*
X64682000Y-100684000D02*
X65682000Y-100684000D01*
X68232000Y-96234000D02*
X65182000Y-96234000D01*
X61372000Y-101444000D02*
X61372000Y-95474000D01*
X62332000Y-101734000D02*
X61082000Y-101734000D01*
X62132000Y-99184000D02*
X62132000Y-96234000D01*
X67182000Y-100684000D02*
X68982000Y-100684000D01*
X65682000Y-100684000D02*
X65682000Y-101434000D01*
X64682000Y-101434000D02*
X64682000Y-100684000D01*
X61382000Y-101434000D02*
X61382000Y-100684000D01*
%TO.C,J17*%
X135968000Y-102714000D02*
X123348000Y-102714000D01*
X132658000Y-101954000D02*
X132658000Y-102704000D01*
X135208000Y-100454000D02*
X135208000Y-97504000D01*
X125158000Y-102704000D02*
X123358000Y-102704000D01*
X123348000Y-96744000D02*
X135968000Y-96744000D01*
X135958000Y-101954000D02*
X135958000Y-102704000D01*
X124108000Y-100454000D02*
X124108000Y-97504000D01*
X132658000Y-102704000D02*
X126658000Y-102704000D01*
X123358000Y-102704000D02*
X123358000Y-101954000D01*
X123358000Y-101954000D02*
X125158000Y-101954000D01*
X123058000Y-103004000D02*
X123058000Y-101754000D01*
X135958000Y-100454000D02*
X135208000Y-100454000D01*
X123348000Y-102714000D02*
X123348000Y-96744000D01*
X124308000Y-103004000D02*
X123058000Y-103004000D01*
X134158000Y-101954000D02*
X135958000Y-101954000D01*
X125158000Y-101954000D02*
X125158000Y-102704000D01*
X135208000Y-97504000D02*
X129658000Y-97504000D01*
X126658000Y-102704000D02*
X126658000Y-101954000D01*
X124108000Y-97504000D02*
X129658000Y-97504000D01*
X135958000Y-102704000D02*
X134158000Y-102704000D01*
X123358000Y-100454000D02*
X124108000Y-100454000D01*
X134158000Y-102704000D02*
X134158000Y-101954000D01*
X135968000Y-96744000D02*
X135968000Y-102714000D01*
X126658000Y-101954000D02*
X132658000Y-101954000D01*
%TO.C,J14*%
X50023000Y-108332000D02*
X49273000Y-108332000D01*
X49263000Y-108342000D02*
X49263000Y-95722000D01*
X49273000Y-95732000D02*
X50023000Y-95732000D01*
X48973000Y-96682000D02*
X48973000Y-95432000D01*
X50023000Y-97532000D02*
X49273000Y-97532000D01*
X49273000Y-108332000D02*
X49273000Y-106532000D01*
X54473000Y-107582000D02*
X54473000Y-102032000D01*
X51523000Y-96482000D02*
X54473000Y-96482000D01*
X54473000Y-96482000D02*
X54473000Y-102032000D01*
X50023000Y-106532000D02*
X50023000Y-108332000D01*
X50023000Y-99032000D02*
X50023000Y-105032000D01*
X51523000Y-108332000D02*
X51523000Y-107582000D01*
X55233000Y-108342000D02*
X49263000Y-108342000D01*
X49273000Y-106532000D02*
X50023000Y-106532000D01*
X49263000Y-95722000D02*
X55233000Y-95722000D01*
X55233000Y-95722000D02*
X55233000Y-108342000D01*
X49273000Y-105032000D02*
X49273000Y-99032000D01*
X50023000Y-95732000D02*
X50023000Y-97532000D01*
X50023000Y-105032000D02*
X49273000Y-105032000D01*
X51523000Y-107582000D02*
X54473000Y-107582000D01*
X51523000Y-95732000D02*
X51523000Y-96482000D01*
X48973000Y-95432000D02*
X50223000Y-95432000D01*
X49273000Y-97532000D02*
X49273000Y-95732000D01*
X49273000Y-99032000D02*
X50023000Y-99032000D01*
%TO.C,J11*%
X96200000Y-111611000D02*
X96200000Y-110861000D01*
X103050000Y-106411000D02*
X100000000Y-106411000D01*
X100500000Y-111611000D02*
X99500000Y-111611000D01*
X96190000Y-105651000D02*
X103810000Y-105651000D01*
X96950000Y-109361000D02*
X96950000Y-106411000D01*
X96950000Y-106411000D02*
X100000000Y-106411000D01*
X95900000Y-111911000D02*
X95900000Y-110661000D01*
X98000000Y-111611000D02*
X96200000Y-111611000D01*
X99500000Y-111611000D02*
X99500000Y-110861000D01*
X103800000Y-110861000D02*
X103800000Y-111611000D01*
X102000000Y-111611000D02*
X102000000Y-110861000D01*
X100500000Y-110861000D02*
X100500000Y-111611000D01*
X96190000Y-111621000D02*
X96190000Y-105651000D01*
X98000000Y-110861000D02*
X98000000Y-111611000D01*
X96200000Y-110861000D02*
X98000000Y-110861000D01*
X103050000Y-109361000D02*
X103050000Y-106411000D01*
X103810000Y-105651000D02*
X103810000Y-111621000D01*
X96200000Y-109361000D02*
X96950000Y-109361000D01*
X102000000Y-110861000D02*
X103800000Y-110861000D01*
X103810000Y-111621000D02*
X96190000Y-111621000D01*
X97150000Y-111911000D02*
X95900000Y-111911000D01*
X103800000Y-111611000D02*
X102000000Y-111611000D01*
X103800000Y-109361000D02*
X103050000Y-109361000D01*
X99500000Y-110861000D02*
X100500000Y-110861000D01*
%TO.C,J16*%
X149706000Y-105032000D02*
X149706000Y-99032000D01*
X150456000Y-95732000D02*
X150456000Y-97532000D01*
X150756000Y-108632000D02*
X149506000Y-108632000D01*
X150456000Y-105032000D02*
X149706000Y-105032000D01*
X148206000Y-95732000D02*
X148206000Y-96482000D01*
X150456000Y-108332000D02*
X149706000Y-108332000D01*
X145256000Y-96482000D02*
X145256000Y-102032000D01*
X149706000Y-106532000D02*
X150456000Y-106532000D01*
X145256000Y-107582000D02*
X145256000Y-102032000D01*
X150456000Y-106532000D02*
X150456000Y-108332000D01*
X150456000Y-97532000D02*
X149706000Y-97532000D01*
X148206000Y-96482000D02*
X145256000Y-96482000D01*
X150456000Y-99032000D02*
X150456000Y-105032000D01*
X149706000Y-95732000D02*
X150456000Y-95732000D01*
X150466000Y-108342000D02*
X144496000Y-108342000D01*
X149706000Y-97532000D02*
X149706000Y-95732000D01*
X149706000Y-99032000D02*
X150456000Y-99032000D01*
X149706000Y-108332000D02*
X149706000Y-106532000D01*
X148206000Y-108332000D02*
X148206000Y-107582000D01*
X144496000Y-95722000D02*
X150466000Y-95722000D01*
X148206000Y-107582000D02*
X145256000Y-107582000D01*
X144496000Y-108342000D02*
X144496000Y-95722000D01*
X150466000Y-95722000D02*
X150466000Y-108342000D01*
X150756000Y-107382000D02*
X150756000Y-108632000D01*
%TO.C,J15*%
X125158000Y-111594000D02*
X123358000Y-111594000D01*
X123358000Y-110844000D02*
X125158000Y-110844000D01*
X134158000Y-110844000D02*
X135958000Y-110844000D01*
X135208000Y-106394000D02*
X129658000Y-106394000D01*
X123348000Y-105634000D02*
X135968000Y-105634000D01*
X135958000Y-111594000D02*
X134158000Y-111594000D01*
X123348000Y-111604000D02*
X123348000Y-105634000D01*
X126658000Y-111594000D02*
X126658000Y-110844000D01*
X135958000Y-110844000D02*
X135958000Y-111594000D01*
X123058000Y-111894000D02*
X123058000Y-110644000D01*
X124108000Y-109344000D02*
X124108000Y-106394000D01*
X135968000Y-111604000D02*
X123348000Y-111604000D01*
X125158000Y-110844000D02*
X125158000Y-111594000D01*
X132658000Y-111594000D02*
X126658000Y-111594000D01*
X134158000Y-111594000D02*
X134158000Y-110844000D01*
X126658000Y-110844000D02*
X132658000Y-110844000D01*
X135968000Y-105634000D02*
X135968000Y-111604000D01*
X132658000Y-110844000D02*
X132658000Y-111594000D01*
X124108000Y-106394000D02*
X129658000Y-106394000D01*
X123358000Y-111594000D02*
X123358000Y-110844000D01*
X123358000Y-109344000D02*
X124108000Y-109344000D01*
X135208000Y-109344000D02*
X135208000Y-106394000D01*
X124308000Y-111894000D02*
X123058000Y-111894000D01*
X135958000Y-109344000D02*
X135208000Y-109344000D01*
%TD*%
M02*
