%TF.GenerationSoftware,KiCad,Pcbnew,(6.0.0)*%
%TF.CreationDate,2022-01-12T18:20:28+01:00*%
%TF.ProjectId,Frame_PCB,4672616d-655f-4504-9342-2e6b69636164,rev?*%
%TF.SameCoordinates,Original*%
%TF.FileFunction,Soldermask,Top*%
%TF.FilePolarity,Negative*%
%FSLAX46Y46*%
G04 Gerber Fmt 4.6, Leading zero omitted, Abs format (unit mm)*
G04 Created by KiCad (PCBNEW (6.0.0)) date 2022-01-12 18:20:28*
%MOMM*%
%LPD*%
G01*
G04 APERTURE LIST*
G04 Aperture macros list*
%AMRoundRect*
0 Rectangle with rounded corners*
0 $1 Rounding radius*
0 $2 $3 $4 $5 $6 $7 $8 $9 X,Y pos of 4 corners*
0 Add a 4 corners polygon primitive as box body*
4,1,4,$2,$3,$4,$5,$6,$7,$8,$9,$2,$3,0*
0 Add four circle primitives for the rounded corners*
1,1,$1+$1,$2,$3*
1,1,$1+$1,$4,$5*
1,1,$1+$1,$6,$7*
1,1,$1+$1,$8,$9*
0 Add four rect primitives between the rounded corners*
20,1,$1+$1,$2,$3,$4,$5,0*
20,1,$1+$1,$4,$5,$6,$7,0*
20,1,$1+$1,$6,$7,$8,$9,0*
20,1,$1+$1,$8,$9,$2,$3,0*%
G04 Aperture macros list end*
%ADD10C,1.000000*%
%ADD11RoundRect,0.250000X0.500000X0.500000X-0.500000X0.500000X-0.500000X-0.500000X0.500000X-0.500000X0*%
%ADD12C,1.500000*%
%ADD13RoundRect,0.250000X0.600000X0.750000X-0.600000X0.750000X-0.600000X-0.750000X0.600000X-0.750000X0*%
%ADD14O,1.700000X2.000000*%
%ADD15RoundRect,0.250000X-0.600000X-0.750000X0.600000X-0.750000X0.600000X0.750000X-0.600000X0.750000X0*%
%ADD16RoundRect,0.250000X-0.600000X-0.725000X0.600000X-0.725000X0.600000X0.725000X-0.600000X0.725000X0*%
%ADD17O,1.700000X1.950000*%
%ADD18R,2.600000X2.600000*%
%ADD19C,2.600000*%
%ADD20RoundRect,0.250000X-0.725000X0.600000X-0.725000X-0.600000X0.725000X-0.600000X0.725000X0.600000X0*%
%ADD21O,1.950000X1.700000*%
%ADD22RoundRect,0.250000X0.725000X-0.600000X0.725000X0.600000X-0.725000X0.600000X-0.725000X-0.600000X0*%
G04 APERTURE END LIST*
D10*
%TO.C,J1*%
X88000000Y-95689000D03*
X112000000Y-95689000D03*
D11*
X109000000Y-99629000D03*
D12*
X106000000Y-99629000D03*
X103000000Y-99629000D03*
X100000000Y-99629000D03*
X97000000Y-99629000D03*
X94000000Y-99629000D03*
X91000000Y-99629000D03*
X109000000Y-96629000D03*
X106000000Y-96629000D03*
X103000000Y-96629000D03*
X100000000Y-96629000D03*
X97000000Y-96629000D03*
X94000000Y-96629000D03*
X91000000Y-96629000D03*
%TD*%
D13*
%TO.C,J9*%
X148006000Y-113970000D03*
D14*
X145506000Y-113970000D03*
%TD*%
D15*
%TO.C,J3*%
X77414000Y-99001000D03*
D14*
X79914000Y-99001000D03*
%TD*%
D15*
%TO.C,J4*%
X77394000Y-108636000D03*
D14*
X79894000Y-108636000D03*
%TD*%
D15*
%TO.C,J6*%
X77414000Y-89332000D03*
D14*
X79914000Y-89332000D03*
%TD*%
D15*
%TO.C,J7*%
X63932000Y-89332000D03*
D14*
X66432000Y-89332000D03*
%TD*%
D16*
%TO.C,J2*%
X109712000Y-109161000D03*
D17*
X112212000Y-109161000D03*
X114712000Y-109161000D03*
X117212000Y-109161000D03*
%TD*%
D18*
%TO.C,J5*%
X128753000Y-86279000D03*
D19*
X128753000Y-91359000D03*
%TD*%
D15*
%TO.C,J10*%
X63932000Y-108636000D03*
D14*
X66432000Y-108636000D03*
%TD*%
D15*
%TO.C,J8*%
X63932000Y-98984000D03*
D14*
X66432000Y-98984000D03*
%TD*%
D16*
%TO.C,J17*%
X125908000Y-100254000D03*
D17*
X128408000Y-100254000D03*
X130908000Y-100254000D03*
X133408000Y-100254000D03*
%TD*%
D20*
%TO.C,J14*%
X51723000Y-98282000D03*
D21*
X51723000Y-100782000D03*
X51723000Y-103282000D03*
X51723000Y-105782000D03*
%TD*%
D15*
%TO.C,J11*%
X98750000Y-109161000D03*
D14*
X101250000Y-109161000D03*
%TD*%
D22*
%TO.C,J16*%
X148006000Y-105782000D03*
D21*
X148006000Y-103282000D03*
X148006000Y-100782000D03*
X148006000Y-98282000D03*
%TD*%
D16*
%TO.C,J15*%
X125908000Y-109144000D03*
D17*
X128408000Y-109144000D03*
X130908000Y-109144000D03*
X133408000Y-109144000D03*
%TD*%
M02*
